<svg width="210" height="210" viewBox="0 0 210 210" fill="none" xmlns="http://www.w3.org/2000/svg">
<path d="M92.7999 15.0155C68.6648 15.4248 31.3226 24.2361 20.5741 46.8794C16.8201 54.7878 17.0743 66.4142 17.5825 89.667C17.7319 96.501 17.9796 106.463 19.7194 118.823C23.3334 144.499 25.7936 161.978 35.1049 172.155C58.4359 197.658 142.714 196.921 178.703 151.008C198.335 125.963 201.355 90.334 183.404 60.8894C163.64 28.4711 125.112 14.4674 92.7999 15.0155Z" fill="white" fill-opacity="0.32"/>
<path d="M145.287 122.298C145.971 125.195 146.858 127.499 147.658 130.297C135.271 128.357 122.974 128.757 110.412 126.812C119.853 113.418 128.11 107.932 124.946 89.1959C123.461 80.4032 117.959 63.5091 122.209 55.4872C127.051 46.348 133.629 49.4223 132.635 40.7215C131.082 27.1223 138.863 13.6519 156.458 20.9418C173.824 28.1367 168.504 76.6396 157.044 88.9119C149.384 101.309 141.718 107.173 145.287 122.298Z" fill="url(#paint0_linear_60_437)"/>
<mask id="mask0_60_437" style="mask-type:luminance" maskUnits="userSpaceOnUse" x="120" y="18" width="48" height="108">
<path d="M124.739 87.717C124.169 84.4171 117.621 61.7381 122.148 55.1369C127.306 47.6163 133.531 48.9913 132.602 40.5726C131.15 27.4144 138.83 13.5522 156.454 20.9096C173.848 28.1711 168.476 76.7063 157.058 88.813C149.269 102.49 141.868 105.297 145.262 123.217C147.639 135.769 126.88 100.125 124.739 87.717Z" fill="white"/>
</mask>
<g mask="url(#mask0_60_437)">
<path d="M128.506 127.014L128.318 126.956C129.684 122.529 131.413 118.159 133.085 113.933L133.718 112.332C135.056 108.938 136.192 105.878 137.195 103.178C137.76 101.658 138.293 100.222 138.821 98.834C140.422 94.629 141.554 91.679 142.125 90.192C142.324 89.675 142.454 89.334 142.513 89.181C146.925 77.5793 148.655 60.1678 149.585 50.8139C149.686 49.7986 149.776 48.8913 149.858 48.1124C151.267 34.7247 154.336 20.9642 158.98 7.21285L159.165 7.27565C154.526 21.0131 151.46 34.7594 150.053 48.1329C149.971 48.9113 149.881 49.8185 149.78 50.8331C148.849 60.1962 147.118 77.6244 142.696 89.25C142.637 89.404 142.507 89.744 142.308 90.262C141.737 91.749 140.605 94.699 139.004 98.904C138.476 100.291 137.943 101.726 137.379 103.246C136.376 105.947 135.239 109.008 133.9 112.403L133.267 114.005C131.597 118.228 129.869 122.594 128.506 127.014Z" fill="#FCFDFE"/>
<path d="M136.854 105.581L136.668 105.52C139.213 97.7359 139.063 87.557 136.235 76.0857C133.877 66.5176 129.693 56.3762 124.756 48.262L124.923 48.1601C129.87 56.2906 134.062 66.452 136.425 76.0388C139.262 87.546 139.41 97.762 136.854 105.581Z" fill="#FCFDFE"/>
<path d="M149.45 52.3705C148.368 45.3504 146.39 38.4188 144.478 31.7154C143.166 27.1198 141.81 22.3677 140.752 17.6207L140.943 17.578C142 22.3195 143.356 27.0689 144.666 31.6616C146.58 38.3708 148.56 45.3085 149.644 52.341L149.45 52.3705Z" fill="#FCFDFE"/>
<path d="M146.489 75.1936L146.316 75.1011C151.011 66.3324 161.285 56.7176 168.302 54.5254L168.36 54.7121C161.384 56.8918 151.164 66.4626 146.489 75.1936Z" fill="#FCFDFE"/>
</g>
<path d="M155.64 82.176C152.183 98.913 142.529 95.273 130 91.165C132.098 106.943 133.56 122.383 134.99 138.058C143.416 140.683 149.5 142.406 154.271 132.812C159.668 121.962 162.422 115.522 175.506 112.895C188.59 110.269 198.535 100.697 194.212 88.0749C189.663 74.7918 201.195 57.569 190.119 47.8663C170.819 30.9596 159.238 64.748 155.64 82.176Z" fill="url(#paint1_linear_60_437)"/>
<mask id="mask1_60_437" style="mask-type:luminance" maskUnits="userSpaceOnUse" x="119" y="43" width="77" height="98">
<path d="M128.786 135.04C137.859 139.686 148.086 144.989 154.324 132.665C159.518 122.406 162.483 115.312 175.521 112.861C188.558 110.41 198.536 100.593 194.22 88.078C189.677 74.9085 201.155 57.398 190.118 47.8757C170.886 31.2837 159.129 64.1596 155.674 82.4313C152.22 100.703 140.679 92.544 128.97 91.85C112.983 90.903 121.454 131.286 128.786 135.04Z" fill="white"/>
</mask>
<g mask="url(#mask1_60_437)">
<path d="M136.181 117.934L136.096 117.758C149.055 111.52 159.678 105.963 168.624 96.081C177.176 86.634 181.375 76.4374 182.666 61.9853C183.339 54.4466 184.673 49.126 186.631 41.8691L186.82 41.9203C184.865 49.1671 183.533 54.4801 182.861 62.0028C181.566 76.5007 177.352 86.732 168.769 96.212C159.8 106.121 149.159 111.687 136.181 117.934Z" fill="#FCFDFE"/>
<path d="M152.568 138.791C149.595 135.127 146.389 132.146 142.769 129.678C140.925 128.421 139.029 127.565 136.75 126.667L136.822 126.484C139.114 127.388 141.021 128.249 142.879 129.516C146.516 131.995 149.735 134.988 152.72 138.668L152.568 138.791Z" fill="#FCFDFE"/>
<path d="M162.966 101.919L162.881 101.742C172.726 96.981 184.938 95.859 197.267 98.584L197.224 98.776C184.938 96.06 172.772 97.176 162.966 101.919Z" fill="#FCFDFE"/>
<path d="M179.876 77.467L179.681 77.4432C179.833 76.1918 178.181 65.5629 176.583 56.0329C174.784 45.3005 173.095 36.1239 172.818 35.5767L172.993 35.4883C173.316 36.1263 175.17 46.4187 176.776 56.0006C178.376 65.544 180.03 76.1947 179.876 77.467Z" fill="#FCFDFE"/>
</g>
<path d="M38.5401 69.1308L11.133 155.525C10.5321 157.419 12.0498 159.315 14.0297 159.144L74.3292 153.933L46.7146 67.6465L38.5401 69.1308Z" fill="url(#paint2_linear_60_437)"/>
<path d="M39.5499 69.1308L12.1428 155.525C11.5419 157.419 13.0597 159.315 15.0395 159.144L75.339 153.933L47.7243 67.6465L39.5499 69.1308Z" fill="url(#paint3_linear_60_437)"/>
<path d="M177.429 70.0913L41.4081 67.3661C39.4467 67.3267 38.1319 68.6885 38.4769 70.4075L58.2321 168.838C58.5772 170.557 60.4248 171.851 62.3536 171.727L196.115 163.193C197.646 163.096 198.635 161.78 198.329 160.255L180.799 72.9098C180.492 71.3844 178.986 70.1224 177.429 70.0913Z" fill="url(#paint4_linear_60_437)"/>
<path d="M178.439 70.0913L42.4177 67.3661C40.4563 67.3267 39.1416 68.6885 39.4866 70.4075L59.2418 168.838C59.5868 170.557 61.4345 171.851 63.3633 171.727L197.125 163.193C198.655 163.096 199.645 161.78 199.339 160.255L181.808 72.9098C181.502 71.3844 179.995 70.1224 178.439 70.0913Z" fill="url(#paint5_linear_60_437)"/>
<g opacity="0.15">
<path d="M141.422 122.999C114.869 110.081 89.3129 120.275 71.4989 103.715C60.5508 93.538 58.8113 79.0609 59.3878 67.7061L42.4177 67.3661C40.4563 67.3267 39.1416 68.6885 39.4866 70.4076L59.2418 168.838C59.5868 170.557 61.4345 171.851 63.3632 171.727L179.25 164.334C167.066 139.734 152.965 128.615 141.422 122.999Z" fill="#97A6B7"/>
</g>
<path d="M192.534 159.881L65.9784 167.544C63.8561 167.673 61.8217 166.24 61.4412 164.345L43.8636 76.7641C43.4831 74.8682 44.9269 73.3582 47.0817 73.3912L175.57 75.3586C177.301 75.3852 178.975 76.7781 179.315 78.4701L195.002 156.631C195.341 158.323 194.238 159.778 192.534 159.881Z" fill="#D8DEE8"/>
<path d="M193.107 159.847L66.69 167.502C64.5701 167.63 62.5379 166.199 62.1576 164.304L44.5901 76.7739C44.2099 74.8791 45.6517 73.3699 47.8041 73.4029L176.152 75.3682C177.881 75.3947 179.554 76.787 179.893 78.4781L195.572 156.598C195.912 158.289 194.81 159.744 193.107 159.847Z" fill="url(#paint6_linear_60_437)"/>
<path d="M174.435 85.681L54.7892 84.9449L53.709 79.5625L173.459 80.8145L174.435 85.681Z" fill="url(#paint7_linear_60_437)"/>
<g opacity="0.3">
<path d="M141.421 123C114.868 110.082 89.3119 120.276 71.4978 103.716C62.3787 95.239 59.6443 83.752 59.3236 73.5795L47.6577 73.4009C45.5861 73.3692 44.1984 74.8214 44.5644 76.6448L62.1838 164.433C62.5497 166.257 64.5054 167.634 66.5458 167.511L177.435 160.796C165.686 138.656 152.396 128.339 141.421 123Z" fill="#D8DEE8"/>
</g>
<path d="M69.7219 159.884C69.468 159.884 69.247 159.705 69.1966 159.454L55.3757 90.591C55.3441 90.433 55.3849 90.269 55.4869 90.145C55.5888 90.021 55.7409 89.949 55.9013 89.949C55.9009 89.949 55.9016 89.949 55.9013 89.949L79.5669 89.99C79.8219 89.99 80.0414 90.17 80.0916 90.42L93.6499 157.977C93.6809 158.129 93.6439 158.288 93.5479 158.411C93.4529 158.534 93.3089 158.609 93.1539 158.618L69.7512 159.884C69.7414 159.884 69.7316 159.884 69.7219 159.884ZM56.556 91.022L70.1566 158.788L92.4769 157.581L79.1266 91.061L56.556 91.022Z" fill="#D8DEE8"/>
<path d="M95.8979 158.468C95.6439 158.468 95.423 158.289 95.372 158.037L81.8444 90.636C81.8128 90.478 81.8536 90.314 81.9556 90.19C82.0575 90.066 82.2097 89.994 82.3701 89.994C82.3698 89.994 82.3705 89.994 82.3701 89.994L105.051 90.033C105.306 90.034 105.526 90.214 105.576 90.464L118.852 156.613C118.883 156.766 118.845 156.924 118.75 157.047C118.655 157.17 118.511 157.245 118.355 157.254L95.927 158.467C95.917 158.468 95.9069 158.468 95.8979 158.468ZM83.025 91.067L96.332 157.371L117.679 156.217L104.611 91.104L83.025 91.067Z" fill="#D8DEE8"/>
<path d="M120.986 157.112C120.732 157.112 120.511 156.933 120.46 156.681L107.214 90.681C107.182 90.523 107.223 90.359 107.325 90.235C107.427 90.111 107.579 90.039 107.739 90.039L129.496 90.076C129.751 90.077 129.97 90.257 130.021 90.507L143.026 155.307C143.057 155.459 143.019 155.618 142.924 155.741C142.829 155.864 142.685 155.939 142.529 155.948L121.015 157.111C121.005 157.112 120.995 157.112 120.986 157.112ZM108.394 91.112L121.42 156.016L141.853 154.91L129.056 91.148L108.394 91.112Z" fill="#D8DEE8"/>
<path d="M145.052 155.81C144.798 155.81 144.577 155.63 144.526 155.379L131.55 90.722C131.518 90.564 131.559 90.4 131.661 90.276C131.763 90.152 131.915 90.08 132.075 90.08H132.076L152.963 90.116C153.218 90.116 153.437 90.296 153.487 90.546L166.233 154.05C166.263 154.203 166.226 154.361 166.131 154.484C166.036 154.607 165.891 154.683 165.736 154.691L145.081 155.809C145.071 155.809 145.061 155.81 145.052 155.81ZM132.73 91.153L145.486 154.713L165.06 153.654L152.522 91.187L132.73 91.153Z" fill="#D8DEE8"/>
<path d="M168.158 154.561C167.904 154.561 167.683 154.381 167.633 154.13L154.915 90.763C154.883 90.605 154.924 90.441 155.026 90.317C155.128 90.193 155.28 90.121 155.44 90.121L175.51 90.156C175.765 90.156 175.985 90.336 176.035 90.586L188.53 152.845C188.561 152.998 188.524 153.156 188.428 153.279C188.333 153.402 188.189 153.478 188.034 153.486L168.187 154.56C168.178 154.56 168.168 154.561 168.158 154.561ZM156.095 91.194L168.593 153.464L187.357 152.449L175.07 91.227L156.095 91.194Z" fill="#D8DEE8"/>
<path opacity="0.15" d="M79.2927 99.702L59.9604 99.8139L58.5332 92.702L77.8877 92.7009L79.2927 99.702Z" fill="url(#paint8_linear_60_437)"/>
<path opacity="0.15" d="M104.827 99.554L86.2989 99.661L84.9019 92.7L103.452 92.699L104.827 99.554Z" fill="url(#paint9_linear_60_437)"/>
<path opacity="0.15" d="M129.317 99.4119L111.544 99.5149L110.176 92.6979L127.969 92.6969L129.317 99.4119Z" fill="url(#paint10_linear_60_437)"/>
<path opacity="0.15" d="M152.825 99.275L135.762 99.374L134.422 92.696L151.504 92.695L152.825 99.275Z" fill="url(#paint11_linear_60_437)"/>
<path d="M155.056 110.389L138.026 110.653L136.328 102.195L153.383 102.055L155.056 110.389Z" fill="url(#paint12_linear_60_437)"/>
<path d="M81.304 110.389L62.5776 110.653L60.7109 102.195L79.4646 102.055L81.304 110.389Z" fill="url(#paint13_linear_60_437)"/>
<path d="M107.203 110.389L88.4759 110.653L86.6089 102.195L105.363 102.055L107.203 110.389Z" fill="url(#paint14_linear_60_437)"/>
<path d="M131.464 110.389L113.944 110.653L112.197 102.195L129.743 102.055L131.464 110.389Z" fill="url(#paint15_linear_60_437)"/>
<path d="M83.7419 121.735L65.0152 121.999L63.1484 113.54L81.9021 113.4L83.7419 121.735Z" fill="url(#paint16_linear_60_437)"/>
<path d="M86.3299 134.255L67.603 134.518L65.7363 126.06L84.4899 125.92L86.3299 134.255Z" fill="url(#paint17_linear_60_437)"/>
<path d="M177.893 110.026L160.864 110.283L159.166 102.041L176.221 101.904L177.893 110.026Z" fill="url(#paint18_linear_60_437)"/>
<path d="M179.911 120.215L162.881 120.472L161.184 112.23L178.238 112.094L179.911 120.215Z" fill="url(#paint19_linear_60_437)"/>
<path opacity="0.15" d="M175.411 99.146L159.017 99.241L157.703 92.696L174.117 92.695L175.411 99.146Z" fill="url(#paint20_linear_60_437)"/>
<path d="M66.2666 38.2222C67.8306 37.7654 69.9209 40.6372 71.6586 43.0245C74.2583 46.5962 77.2956 50.7692 76.4774 55.7801C75.6724 60.71 71.4458 64.5494 70.2414 64.0002C69.2111 63.5305 71.1919 60.2148 69.6745 55.7801C68.4501 52.2016 66.4213 52.2003 65.0608 48.692C63.3723 44.3379 64.3426 38.7842 66.2666 38.2222Z" fill="url(#paint21_linear_60_437)"/>
<path d="M67.0412 60.9297C75.0966 62.8853 80.4025 66.0247 83.5009 68.2453C85.1809 69.4488 85.9569 70.1994 86.3749 71.2935C88.7619 77.5283 76.5019 86.955 75.1954 87.943C74.6247 86.612 74.0541 85.2814 73.4834 83.9507C74.7502 76.9976 76.8592 74.8162 78.6242 74.1675C79.1178 73.986 79.9466 73.7914 79.9305 73.5578C79.8925 73.0054 75.236 73.7926 70.786 72.1644C66.3487 70.5407 61.8906 66.4327 62.6866 63.7166C62.832 63.2208 63.4406 61.7876 67.0412 60.9297Z" fill="url(#paint22_linear_60_437)"/>
<path d="M74.8522 106.502C74.8522 106.502 74.1023 106.769 74.0996 107.362C74.0968 107.955 74.8591 110.567 75.6872 111.496C76.5153 112.424 76.5894 111.039 76.5381 110.147C76.487 109.255 76.2699 107.258 76.0651 106.872C75.8604 106.486 74.8522 106.502 74.8522 106.502Z" fill="url(#paint23_linear_60_437)"/>
<path d="M77.2605 70.0458C78.7241 70.0171 82.1534 69.744 83.0669 71.4392C83.8279 72.8536 82.4937 74.9976 81.673 76.3163C79.4418 79.9013 77.2762 80.2681 75.7508 82.4707C75.1604 83.3233 74.6255 84.5141 74.4552 86.216C74.1314 85.4608 73.8078 84.7061 73.4841 83.9513C74.7509 76.9982 76.8599 74.8167 78.6249 74.1681C79.1185 73.9867 79.9473 73.7921 79.9312 73.5585C79.8932 73.006 75.2367 73.7933 70.7867 72.1651C66.7418 70.685 62.6932 67.1434 62.6094 64.4707C69.0144 69.0647 73.8352 70.113 77.2605 70.0458Z" fill="url(#paint24_linear_60_437)"/>
<path d="M74.4199 103.982C74.4641 104.896 74.5416 105.66 74.6116 106.228C74.7663 107.483 74.9086 107.98 75.1034 108.432C75.2734 108.826 75.6982 109.686 75.901 109.627C76.1071 109.566 75.895 108.613 75.7345 105.964C75.7112 105.579 75.6403 104.355 75.6403 104.355L74.4199 103.982Z" fill="white"/>
<path d="M62.3961 61.452C67.0373 64.2503 70.0503 67.4318 71.802 69.5804C73.8699 72.1168 77.0151 75.9749 78.1539 81.7276C78.761 84.794 78.4622 87.545 77.8401 92.921C77.2221 98.26 76.3364 102.607 75.6434 105.576C75.2865 105.719 74.9296 105.863 74.5728 106.006C73.6168 104.249 72.3663 101.469 71.918 97.914C71.1845 92.097 73.3607 90.249 72.3161 86.123C71.4114 82.5498 68.7897 80.3586 63.5465 75.9763C59.2386 72.3758 55.2664 70.2396 53.792 65.7485C53.5415 64.9859 53.3287 64.0504 53.7369 63.1937C54.6165 61.3477 57.9823 60.7036 62.3961 61.452Z" fill="url(#paint25_linear_60_437)"/>
<path d="M58.6915 38.5546C59.8962 38.2954 61.8774 38.3469 63.7661 36.8596C64.3347 36.4119 66.3491 34.8257 66.1045 32.5561C65.8892 30.558 63.9954 29.4842 63.7631 29.3563C62.4224 28.6185 61.0859 28.7824 59.6037 28.9851C57.6816 29.248 57.0432 29.773 55.7076 30.1331C52.4034 31.0237 51.286 29.1647 47.9593 29.3216C43.7074 29.522 43.3396 32.6623 39.7622 32.7406C35.7462 32.8285 34.9765 28.8981 31.0114 28.2322C25.5077 27.3078 17.1805 33.2327 17.3482 40.0628C17.445 44.0076 20.3825 48.5286 24.1343 49.8858C26.3213 50.6769 28.6812 50.4257 29.3547 51.8478C29.8341 52.8599 28.7564 53.6397 28.8583 55.403C28.9893 57.6764 30.9466 59.2718 31.2627 59.5294C34.1967 61.9209 40.7748 60.7129 45.2668 57.3289C53.3674 51.2265 52.1414 39.9639 58.6915 38.5546Z" fill="url(#paint26_linear_60_437)"/>
<path d="M49.3871 37.7446C52.1154 37.4085 55.2623 37.1526 58.7592 37.1051C66.1483 37.0048 67.2061 37.9417 67.4768 38.6353C67.9814 39.9282 67.117 40.5762 67.6078 42.8307C67.9013 44.1787 67.6239 44.793 68.1913 46.2413C68.7443 47.6529 68.3105 48.4116 67.8216 51.7214C67.1964 55.9537 66.908 58.1047 68.0923 59.8109C68.9152 60.9963 69.8358 61.0967 69.7481 61.6598C69.5612 62.8596 65.413 62.198 60.1611 64.5012C58.6408 65.1678 57.2413 65.9894 56.0679 66.6784C53.32 68.2916 52.8115 68.9086 51.5391 69.6394C47.5149 71.9511 41.4698 72.1738 38.3014 69.3782C37.1202 68.3359 36.2593 66.8037 36.6467 66.2429C37.1742 65.4793 39.5332 67.2138 41.6979 66.1558C43.132 65.4549 42.8595 64.321 44.5175 62.985C46.5128 61.3771 47.9 62.2196 49.2581 61.1735C51.3767 59.5415 50.4129 55.634 49.8182 49.0827C49.5721 46.3706 49.3252 42.498 49.3871 37.7446Z" fill="url(#paint27_linear_60_437)"/>
<path d="M57.3834 36.2207C56.3755 36.8459 54.7465 37.663 54.5671 37.8849C54.3877 38.1064 59.5023 38.9823 62.6849 37.3763C62.6849 37.3763 63.1782 37.1021 61.2597 36.7184C60.8509 36.6367 60.9308 35.8414 60.9856 35.0192L60.6019 34.3065C60.6019 34.3065 58.391 35.5952 57.3834 36.2207Z" fill="#F1F4F6"/>
<path d="M59.925 33.8224C59.925 33.8224 59.5297 35.4995 61.0066 36.3283C62.3291 37.0706 64.5665 34.0279 64.1486 32.8972C64.0093 32.52 63.5113 32.0352 62.9908 31.8723C62.6247 31.7577 61.2396 31.802 60.6464 32.9681C60.491 32.6272 60.2128 32.4484 60.0259 32.5045C59.7886 32.5753 59.7538 33.0071 59.7458 33.1049C59.7183 33.444 59.8551 33.707 59.925 33.8224Z" fill="#F1F4F6"/>
<path opacity="0.3" d="M62.216 60.7078C60.6944 61.3384 60.489 62.7014 58.3851 63.4745C56.378 64.212 55.7046 63.2879 53.7028 63.9002C50.6961 64.8199 49.5465 67.7211 49.0914 67.4474C48.6745 67.1966 49.0743 64.4213 51.0069 62.6232C53.2263 60.5581 55.6168 61.5038 57.0371 59.3598C57.5897 58.5256 58.0157 57.1929 57.5337 56.1674C56.8805 54.7775 55.1744 55.2595 54.2703 54.11C52.6459 52.0447 56.4472 48.3197 55.4054 45.171C54.9897 43.9144 53.6658 42.3394 49.3966 41.2852C49.4546 44.4413 49.6364 47.0789 49.8182 49.0819C50.4129 55.6331 51.3767 59.5407 49.2581 61.1726C47.9 62.2188 46.5128 61.3763 44.5175 62.9843C42.8595 64.3202 43.132 65.4541 41.6979 66.155C39.5332 67.213 37.1742 65.4786 36.6467 66.2421C36.2593 66.803 37.1202 68.3351 38.3014 69.3774C41.4698 72.173 47.5149 71.9502 51.5391 69.6387C52.8116 68.9078 53.3199 68.2908 56.0679 66.6777C57.2413 65.9887 58.6408 65.167 60.1611 64.5003C63.8468 62.884 66.9866 62.7276 68.5975 62.3635C65.3993 60.231 63.4511 60.1959 62.216 60.7078Z" fill="url(#paint28_linear_60_437)"/>
<path d="M75.4059 63.416L58.6931 64.2292C58.4631 64.2405 58.2532 64.3637 58.1315 64.5592L57.669 65.3014C57.4389 65.6709 57.7154 66.1474 58.1505 66.1309L75.8533 65.4565L75.4059 63.416Z" fill="url(#paint29_linear_60_437)"/>
<path d="M92.7889 54.1095L75.5228 54.4441C75.0118 54.454 74.544 54.7323 74.2916 55.1765L68.3125 65.6961L86.5479 64.9695C87.0479 64.9496 87.5049 64.6786 87.7619 64.2487L93.3019 54.9941C93.5379 54.6002 93.2479 54.1006 92.7889 54.1095Z" fill="url(#paint30_linear_60_437)"/>
<path opacity="0.3" d="M74.2915 55.1773C74.544 54.733 75.0118 54.4547 75.5228 54.4448L75.9011 54.4375C75.9575 54.9949 76.1286 55.5047 76.4696 55.9163C77.5343 57.2014 79.3031 56.4087 80.6216 57.7688C82.0698 59.2627 80.7319 61.0411 82.0267 62.4316C83.3899 63.895 85.5939 62.7035 88.1269 63.6401L87.7619 64.2495C87.5049 64.6794 87.0479 64.9503 86.5479 64.9703L68.3125 65.6968L74.2915 55.1773Z" fill="url(#paint31_linear_60_437)"/>
<path d="M60.761 62.8588C60.9786 62.2844 61.1961 61.71 61.4136 61.1354C59.0095 60.4763 55.6844 59.5024 52.2739 58.2837C51.4312 57.9826 51.1227 57.5934 50.8973 57.2944C49.1488 54.9754 53.5986 50.8843 53.5189 45.5758C53.4637 41.8961 51.2328 37.6868 49.2671 37.6391C45.2714 37.542 36.4613 54.4965 43.8815 61.7328C47.5643 65.3244 54.4449 65.7412 60.761 62.8588Z" fill="url(#paint32_linear_60_437)"/>
<path d="M61.4129 61.1345C62.9222 60.3327 64.7289 61.1545 64.8453 61.2096C65.177 61.3661 65.6596 61.645 66.1472 62.1431C66.2024 62.2183 66.8571 63.1256 66.6186 63.4162C66.4274 63.6491 65.687 63.4561 64.7972 62.9026C64.4242 62.8503 63.8689 62.8023 63.2037 62.8636C61.9821 62.9763 61.4225 63.3622 60.9791 63.029C60.6543 62.7852 60.5437 62.2696 60.6605 61.8862C60.7861 61.4745 61.1574 61.2702 61.4129 61.1345Z" fill="#F1F4F6"/>
<path d="M159.624 189.344C159.703 188.911 161.103 188.518 161.796 189.099C162.14 189.387 162.377 189.972 162.178 190.236C162.105 190.332 162.402 190.5 162.118 190.504C161.175 190.515 159.546 189.775 159.624 189.344Z" fill="url(#paint33_linear_60_437)"/>
<path d="M161.155 189.346L162.607 189.418C162.104 188.504 162.709 186.016 162.709 186.016L161.141 186.062C161.141 186.062 161.179 186.784 161.275 187.857C161.308 188.224 161.247 188.777 161.155 189.346Z" fill="url(#paint34_linear_60_437)"/>
<path d="M160.962 189.324C160.962 189.324 162.696 188.925 162.883 189.269C163.071 189.612 163.216 190.533 162.117 190.503C161.017 190.474 160.865 189.616 160.962 189.324Z" fill="url(#paint35_linear_60_437)"/>
<path d="M141.239 192.489C141.378 192.071 142.819 191.878 143.424 192.55C143.725 192.884 143.878 193.496 143.643 193.729C143.558 193.814 143.828 194.023 143.546 193.986C142.611 193.865 141.102 192.905 141.239 192.489Z" fill="url(#paint36_linear_60_437)"/>
<path d="M142.943 192.891L144.37 193.171C144.004 192.194 144.959 189.818 144.959 189.818L143.401 189.639C143.401 189.639 143.335 190.359 143.276 191.435C143.256 191.803 143.116 192.342 142.943 192.891Z" fill="url(#paint37_linear_60_437)"/>
<path d="M142.57 192.657C142.57 192.657 144.342 192.504 144.479 192.87C144.617 193.237 144.632 194.169 143.547 193.986C142.463 193.802 142.432 192.932 142.57 192.657Z" fill="url(#paint38_linear_60_437)"/>
<path d="M155.678 142.669C156.066 149.313 156.611 156.223 157.344 163.374C158.193 171.658 159.224 179.573 160.381 187.096C161.807 187.585 163.125 187.096 163.125 187.096C163.125 187.096 164.792 184.365 166.064 177.108C166.881 172.451 166.937 172.509 166.946 171.697C166.992 167.599 165.554 166.412 165.28 162.749C165.027 159.36 166.105 158.345 166.75 154.53C167.246 151.596 167.431 147.32 165.868 141.732C162.471 142.044 159.075 142.357 155.678 142.669Z" fill="url(#paint39_linear_60_437)"/>
<path opacity="0.3" d="M155.678 142.669C156.066 149.313 156.611 156.223 157.344 163.374C158.193 171.658 159.224 179.573 160.381 187.096C161.807 187.585 163.125 187.096 163.125 187.096C163.107 186.399 163.058 185.35 162.913 184.083C162.527 180.721 161.912 179.764 161.849 177.701C161.768 175.063 162.724 174.982 162.913 172.384C163.206 168.356 160.994 167.401 160.785 163.875C160.565 160.149 162.898 158.923 164.685 154.303C165.74 151.576 166.677 147.481 165.868 141.732C162.471 142.044 159.075 142.357 155.678 142.669Z" fill="url(#paint40_linear_60_437)"/>
<path d="M148.525 142.461C146.572 149.038 144.68 157.207 143.626 166.703C142.602 175.92 142.621 184.105 143.038 190.842C143.658 191.015 144.279 191.188 144.899 191.362C148.508 187.586 149.796 184.116 150.289 181.582C151.017 177.832 149.92 176.561 150.877 172.322C151.097 171.346 151.406 170.299 154.992 163.27C158.414 156.561 159.116 155.587 159.695 153.178C160.522 149.739 160.304 146.689 159.989 144.646C156.168 143.918 152.346 143.189 148.525 142.461Z" fill="url(#paint41_linear_60_437)"/>
<path d="M133.137 128.246L127.014 113.902C126.708 113.186 127.119 112.366 127.876 112.182L139.093 109.458C139.699 109.31 140.322 109.629 140.558 110.206L146.19 123.993C146.47 124.679 146.101 125.458 145.392 125.675L134.666 128.957C134.05 129.145 133.391 128.839 133.137 128.246Z" fill="#26264F"/>
<path d="M133.415 127.556L127.695 114.158C127.409 113.488 127.793 112.722 128.5 112.551L138.977 110.006C139.544 109.869 140.125 110.166 140.346 110.705L145.607 123.583C145.869 124.224 145.523 124.952 144.861 125.154L134.842 128.22C134.267 128.396 133.651 128.11 133.415 127.556Z" fill="url(#paint42_linear_60_437)"/>
<path d="M129.883 123.618L129.699 121.928L128.725 120.071C128.593 119.818 128.524 119.537 128.524 119.252V117.408L129.699 120.127C129.699 120.127 130.471 119.429 130.765 119.282C131.059 119.135 131.022 119.723 130.802 119.944C130.581 120.164 130.912 121.965 130.691 122.148L130.765 123.251L129.883 123.618Z" fill="url(#paint43_linear_60_437)"/>
<path d="M139.216 112.852C140.13 110.616 142.093 109.33 143.111 108.663C145.519 107.085 147.06 107.373 152.591 106.532C159.961 105.41 160.843 104.348 163.32 105.209C166.574 106.34 168.273 109.294 169.052 110.647C172.978 117.471 168.388 120.939 169.566 134.531C170.048 140.082 171.282 144.906 168.317 147.759C167.693 148.359 166.995 148.674 165.598 149.302C160.06 151.794 155.094 151.365 152.076 151.066C148.756 150.737 147.078 150.549 146.197 149.375C144.791 147.502 146.238 145.12 146.491 140.998C146.672 138.038 146 135.693 144.654 131.003C141.525 120.1 137.464 117.136 139.216 112.852Z" fill="url(#paint44_linear_60_437)"/>
<path d="M151.553 102.509C151.217 101.314 151.804 100.207 151.933 99.969C152.474 98.97 152.613 98.833 152.871 98.66L153.23 98.439C153.23 98.439 153.251 98.431 153.273 98.423C153.503 98.341 154.289 98.317 154.448 98.351C154.956 98.459 155.497 100.53 155.343 103.457C155.364 103.568 155.384 103.681 155.404 103.794C155.484 104.257 155.547 104.71 155.596 105.153C155.643 105.576 156.244 105.567 156.67 105.539C158.397 105.429 159.242 105.576 159.315 105.833C159.453 106.315 157.405 107.891 154.875 108.246C151.481 108.271 148.719 107.909 149.016 107.375C149.148 107.138 151.778 106.45 152.518 105.769C153.195 105.145 153.14 104.501 153.196 104.04C152.99 103.934 151.8 103.39 151.553 102.509Z" fill="url(#paint45_linear_60_437)"/>
<path d="M152.178 97.6079C152.181 98.5139 152.608 99.4829 152.826 99.6379C152.854 99.6589 153.012 99.7839 153.154 99.9969C153.174 100.026 153.191 100.06 153.206 100.104C153.405 100.676 152.496 101.348 152.671 101.604C152.799 101.79 153.416 101.542 153.49 101.702C153.559 101.853 153.046 102.165 153.124 102.346C153.183 102.482 153.499 102.357 153.698 102.566C153.798 102.67 153.769 102.753 153.874 103.071C153.933 103.251 154.016 103.448 154.081 103.557C154.394 104.09 155.282 104.284 155.453 104.071C155.5 104.012 155.459 103.962 155.508 103.763C155.508 103.763 155.553 103.578 155.681 103.364C155.865 103.059 156.308 102.841 156.756 102.519C157.584 101.923 157.809 101.414 157.876 101.243C157.9 101.181 157.915 101.135 157.926 101.102C158.141 100.434 158.142 99.4519 157.842 98.8479C157.339 97.8369 156.203 98.3169 155.274 97.3149C154.201 96.1579 154.84 94.5779 154.258 94.4029C153.616 94.2109 152.172 95.9309 152.178 97.6079Z" fill="#26264F"/>
<path d="M152.996 101.392C153.218 101.086 153.609 101.373 153.611 101.768C153.613 102.163 153.23 102.574 152.859 102.496C152.488 102.418 152.697 101.803 152.996 101.392Z" fill="url(#paint46_linear_60_437)"/>
<path d="M153.176 100.73L152.661 101.401C152.661 101.401 152.105 102.223 151.78 101.773C151.515 101.405 151.446 101.413 151.43 101.429C151.427 101.432 151.426 101.436 151.426 101.436C151.421 101.434 151.464 101.253 151.504 101.093C151.366 101.29 151.177 101.609 151.063 102.04C150.951 102.457 150.832 102.905 151.068 103.334C151.081 103.359 151.341 103.816 151.826 103.927C151.826 103.927 152.016 103.97 152.822 103.829C152.822 103.829 151.941 103.19 151.928 103.038C151.892 102.625 152.464 102.402 152.889 101.556C153.053 101.23 153.133 100.934 153.176 100.73Z" fill="#26264F"/>
<path opacity="0.3" d="M154.944 147.171C153.967 145.226 156.361 142.64 154.797 139.675C153.469 137.156 151.056 137.721 149.947 135.413C148.607 132.625 151.521 130.541 151.417 126.3C151.292 121.23 146.929 116.154 144.362 116.6C142.701 116.887 142.487 119.366 141.318 122.079C142.353 124.347 143.561 127.188 144.656 131.003C146.001 135.693 146.674 138.038 146.493 140.998C146.24 145.12 144.793 147.501 146.199 149.375C147.079 150.549 148.758 150.737 152.078 151.066C155.096 151.364 160.061 151.794 165.6 149.302C166.301 148.986 166.826 148.75 167.254 148.517C158.601 149.817 155.719 148.713 154.944 147.171Z" fill="url(#paint47_linear_60_437)"/>
<path d="M129.553 123.287C130.092 123.054 130.631 122.822 131.17 122.589C132.081 123.52 133.243 124.426 134.22 124.132C135.676 123.694 135.312 121.014 137.086 116.306C139.095 110.971 141.375 109.6 142.524 109.104C143.166 108.827 143.608 108.643 144.141 108.773C146.59 109.372 147.4 115.755 146.713 120.531C146.326 123.222 145.566 128.499 141.238 131.003C140.623 131.359 137.239 133.318 133.889 131.775C131.028 130.457 129.26 127.076 129.553 123.287Z" fill="url(#paint48_linear_60_437)"/>
<defs>
<linearGradient id="paint0_linear_60_437" x1="107.606" y1="155.107" x2="190.169" y2="-33.1568" gradientUnits="userSpaceOnUse">
<stop stop-color="#AA80F9"/>
<stop offset="0.9964" stop-color="#6165D7"/>
</linearGradient>
<linearGradient id="paint1_linear_60_437" x1="190.395" y1="70.9089" x2="91.291" y2="143.314" gradientUnits="userSpaceOnUse">
<stop offset="0.0036" stop-color="#E38DDD"/>
<stop offset="1" stop-color="#9571F6"/>
</linearGradient>
<linearGradient id="paint2_linear_60_437" x1="-20.1882" y1="113.401" x2="43.1411" y2="113.401" gradientUnits="userSpaceOnUse">
<stop stop-color="#444B8C"/>
<stop offset="0.9964" stop-color="#26264F"/>
</linearGradient>
<linearGradient id="paint3_linear_60_437" x1="12.0098" y1="113.401" x2="75.3391" y2="113.401" gradientUnits="userSpaceOnUse">
<stop stop-color="#444B8C"/>
<stop offset="0.9964" stop-color="#26264F"/>
</linearGradient>
<linearGradient id="paint4_linear_60_437" x1="172.13" y1="111.836" x2="54.2554" y2="119.426" gradientUnits="userSpaceOnUse">
<stop stop-color="#444B8C"/>
<stop offset="0.9964" stop-color="#26264F"/>
</linearGradient>
<linearGradient id="paint5_linear_60_437" x1="39.4316" y1="119.55" x2="199.394" y2="119.55" gradientUnits="userSpaceOnUse">
<stop stop-color="#444B8C"/>
<stop offset="0.9964" stop-color="#26264F"/>
</linearGradient>
<linearGradient id="paint6_linear_60_437" x1="146.714" y1="61.3043" x2="113.07" y2="131.284" gradientUnits="userSpaceOnUse">
<stop offset="0.0036" stop-color="#EBEFF2"/>
<stop offset="1" stop-color="white"/>
</linearGradient>
<linearGradient id="paint7_linear_60_437" x1="53.709" y1="82.6218" x2="174.435" y2="82.6218" gradientUnits="userSpaceOnUse">
<stop offset="0.0036" stop-color="#E38DDD"/>
<stop offset="1" stop-color="#9571F6"/>
</linearGradient>
<linearGradient id="paint8_linear_60_437" x1="59.2466" y1="96.2569" x2="77.8521" y2="92.5239" gradientUnits="userSpaceOnUse">
<stop stop-color="#AA80F9"/>
<stop offset="0.9964" stop-color="#6165D7"/>
</linearGradient>
<linearGradient id="paint9_linear_60_437" x1="85.6009" y1="96.18" x2="103.432" y2="92.602" gradientUnits="userSpaceOnUse">
<stop stop-color="#AA80F9"/>
<stop offset="0.9964" stop-color="#6165D7"/>
</linearGradient>
<linearGradient id="paint10_linear_60_437" x1="110.86" y1="96.1059" x2="127.964" y2="92.6729" gradientUnits="userSpaceOnUse">
<stop stop-color="#AA80F9"/>
<stop offset="0.9964" stop-color="#6165D7"/>
</linearGradient>
<linearGradient id="paint11_linear_60_437" x1="135.092" y1="96.035" x2="151.513" y2="92.739" gradientUnits="userSpaceOnUse">
<stop stop-color="#AA80F9"/>
<stop offset="0.9964" stop-color="#6165D7"/>
</linearGradient>
<linearGradient id="paint12_linear_60_437" x1="133.037" y1="94.9609" x2="170.748" y2="128.877" gradientUnits="userSpaceOnUse">
<stop offset="0.0036" stop-color="#E38DDD"/>
<stop offset="1" stop-color="#9571F6"/>
</linearGradient>
<linearGradient id="paint13_linear_60_437" x1="57.4503" y1="94.1489" x2="97.8569" y2="130.489" gradientUnits="userSpaceOnUse">
<stop stop-color="#FFC444"/>
<stop offset="0.9964" stop-color="#F36F56"/>
</linearGradient>
<linearGradient id="paint14_linear_60_437" x1="83.3489" y1="94.1489" x2="123.755" y2="130.489" gradientUnits="userSpaceOnUse">
<stop offset="0.0036" stop-color="#E38DDD"/>
<stop offset="1" stop-color="#9571F6"/>
</linearGradient>
<linearGradient id="paint15_linear_60_437" x1="108.915" y1="94.7259" x2="147.405" y2="129.343" gradientUnits="userSpaceOnUse">
<stop stop-color="#FFC444"/>
<stop offset="0.9964" stop-color="#F36F56"/>
</linearGradient>
<linearGradient id="paint16_linear_60_437" x1="59.8878" y1="105.494" x2="100.294" y2="141.835" gradientUnits="userSpaceOnUse">
<stop offset="0.0036" stop-color="#E38DDD"/>
<stop offset="1" stop-color="#9571F6"/>
</linearGradient>
<linearGradient id="paint17_linear_60_437" x1="62.4757" y1="118.014" x2="102.882" y2="154.354" gradientUnits="userSpaceOnUse">
<stop stop-color="#FFC444"/>
<stop offset="0.9964" stop-color="#F36F56"/>
</linearGradient>
<linearGradient id="paint18_linear_60_437" x1="155.967" y1="94.7839" x2="193.405" y2="128.454" gradientUnits="userSpaceOnUse">
<stop stop-color="#FFC444"/>
<stop offset="0.9964" stop-color="#F36F56"/>
</linearGradient>
<linearGradient id="paint19_linear_60_437" x1="157.985" y1="104.973" x2="195.423" y2="138.644" gradientUnits="userSpaceOnUse">
<stop offset="0.0036" stop-color="#E38DDD"/>
<stop offset="1" stop-color="#9571F6"/>
</linearGradient>
<linearGradient id="paint20_linear_60_437" x1="158.36" y1="95.968" x2="174.138" y2="92.802" gradientUnits="userSpaceOnUse">
<stop stop-color="#AA80F9"/>
<stop offset="0.9964" stop-color="#6165D7"/>
</linearGradient>
<linearGradient id="paint21_linear_60_437" x1="76.6133" y1="51.1132" x2="64.1914" y2="51.1132" gradientUnits="userSpaceOnUse">
<stop stop-color="#FFC444"/>
<stop offset="0.9964" stop-color="#F36F56"/>
</linearGradient>
<linearGradient id="paint22_linear_60_437" x1="98.0059" y1="74.4361" x2="73.9169" y2="74.4361" gradientUnits="userSpaceOnUse">
<stop stop-color="#311944"/>
<stop offset="1" stop-color="#A03976"/>
</linearGradient>
<linearGradient id="paint23_linear_60_437" x1="77.3097" y1="101.094" x2="72.8367" y2="119.324" gradientUnits="userSpaceOnUse">
<stop stop-color="#444B8C"/>
<stop offset="0.9964" stop-color="#26264F"/>
</linearGradient>
<linearGradient id="paint24_linear_60_437" x1="86.6829" y1="75.3431" x2="62.5944" y2="75.3431" gradientUnits="userSpaceOnUse">
<stop stop-color="#311944"/>
<stop offset="1" stop-color="#A03976"/>
</linearGradient>
<linearGradient id="paint25_linear_60_437" x1="85.1429" y1="59.4794" x2="63.5444" y2="85.7227" gradientUnits="userSpaceOnUse">
<stop stop-color="#311944"/>
<stop offset="1" stop-color="#A03976"/>
</linearGradient>
<linearGradient id="paint26_linear_60_437" x1="24.8855" y1="23.3569" x2="52.1966" y2="48.7008" gradientUnits="userSpaceOnUse">
<stop stop-color="#444B8C"/>
<stop offset="0.9964" stop-color="#26264F"/>
</linearGradient>
<linearGradient id="paint27_linear_60_437" x1="47.9124" y1="60.2585" x2="71.1109" y2="39.4009" gradientUnits="userSpaceOnUse">
<stop stop-color="#FFC444"/>
<stop offset="0.9964" stop-color="#F36F56"/>
</linearGradient>
<linearGradient id="paint28_linear_60_437" x1="48.6744" y1="61.1053" x2="71.873" y2="40.2478" gradientUnits="userSpaceOnUse">
<stop stop-color="#FFC444"/>
<stop offset="0.9964" stop-color="#F36F56"/>
</linearGradient>
<linearGradient id="paint29_linear_60_437" x1="57.586" y1="64.7737" x2="75.8533" y2="64.7737" gradientUnits="userSpaceOnUse">
<stop offset="0.0036" stop-color="#E38DDD"/>
<stop offset="1" stop-color="#9571F6"/>
</linearGradient>
<linearGradient id="paint30_linear_60_437" x1="68.3125" y1="59.9027" x2="93.3859" y2="59.9027" gradientUnits="userSpaceOnUse">
<stop offset="0.0036" stop-color="#E38DDD"/>
<stop offset="1" stop-color="#9571F6"/>
</linearGradient>
<linearGradient id="paint31_linear_60_437" x1="87.5359" y1="53.2516" x2="75.559" y2="65.1323" gradientUnits="userSpaceOnUse">
<stop offset="0.0036" stop-color="#E38DDD"/>
<stop offset="1" stop-color="#9571F6"/>
</linearGradient>
<linearGradient id="paint32_linear_60_437" x1="57.5259" y1="60.1022" x2="39.81" y2="42.6697" gradientUnits="userSpaceOnUse">
<stop stop-color="#FFC444"/>
<stop offset="0.9964" stop-color="#F36F56"/>
</linearGradient>
<linearGradient id="paint33_linear_60_437" x1="158.846" y1="188.093" x2="161.929" y2="190.142" gradientUnits="userSpaceOnUse">
<stop stop-color="#444B8C"/>
<stop offset="0.9964" stop-color="#26264F"/>
</linearGradient>
<linearGradient id="paint34_linear_60_437" x1="161.755" y1="190.132" x2="161.995" y2="185.321" gradientUnits="userSpaceOnUse">
<stop stop-color="#FFC444"/>
<stop offset="0.9964" stop-color="#F36F56"/>
</linearGradient>
<linearGradient id="paint35_linear_60_437" x1="159.077" y1="187.744" x2="162.159" y2="189.793" gradientUnits="userSpaceOnUse">
<stop stop-color="#444B8C"/>
<stop offset="0.9964" stop-color="#26264F"/>
</linearGradient>
<linearGradient id="paint36_linear_60_437" x1="140.645" y1="191.141" x2="143.41" y2="193.601" gradientUnits="userSpaceOnUse">
<stop stop-color="#444B8C"/>
<stop offset="0.9964" stop-color="#26264F"/>
</linearGradient>
<linearGradient id="paint37_linear_60_437" x1="143.424" y1="193.755" x2="144.352" y2="189.028" gradientUnits="userSpaceOnUse">
<stop stop-color="#FFC444"/>
<stop offset="0.9964" stop-color="#F36F56"/>
</linearGradient>
<linearGradient id="paint38_linear_60_437" x1="140.924" y1="190.828" x2="143.689" y2="193.288" gradientUnits="userSpaceOnUse">
<stop stop-color="#444B8C"/>
<stop offset="0.9964" stop-color="#26264F"/>
</linearGradient>
<linearGradient id="paint39_linear_60_437" x1="155.678" y1="164.523" x2="167.104" y2="164.523" gradientUnits="userSpaceOnUse">
<stop stop-color="#311944"/>
<stop offset="1" stop-color="#6B3976"/>
</linearGradient>
<linearGradient id="paint40_linear_60_437" x1="155.678" y1="164.523" x2="166.174" y2="164.523" gradientUnits="userSpaceOnUse">
<stop stop-color="#311944"/>
<stop offset="1" stop-color="#6B3976"/>
</linearGradient>
<linearGradient id="paint41_linear_60_437" x1="176.815" y1="172.344" x2="145.381" y2="166.671" gradientUnits="userSpaceOnUse">
<stop stop-color="#311944"/>
<stop offset="0.7407" stop-color="#5C3169"/>
<stop offset="1" stop-color="#6B3976"/>
</linearGradient>
<linearGradient id="paint42_linear_60_437" x1="131.001" y1="90.0649" x2="151.688" y2="195.57" gradientUnits="userSpaceOnUse">
<stop stop-color="#AA80F9"/>
<stop offset="0.9964" stop-color="#6165D7"/>
</linearGradient>
<linearGradient id="paint43_linear_60_437" x1="128.864" y1="118.979" x2="139.495" y2="136.056" gradientUnits="userSpaceOnUse">
<stop stop-color="#FFC444"/>
<stop offset="0.9964" stop-color="#F36F56"/>
</linearGradient>
<linearGradient id="paint44_linear_60_437" x1="138.793" y1="128.096" x2="170.674" y2="128.096" gradientUnits="userSpaceOnUse">
<stop stop-color="#FF9085"/>
<stop offset="1" stop-color="#FB6FBB"/>
</linearGradient>
<linearGradient id="paint45_linear_60_437" x1="151.518" y1="100.606" x2="159.349" y2="118.572" gradientUnits="userSpaceOnUse">
<stop stop-color="#FFC444"/>
<stop offset="0.9964" stop-color="#F36F56"/>
</linearGradient>
<linearGradient id="paint46_linear_60_437" x1="150.932" y1="96.9179" x2="159.675" y2="116.977" gradientUnits="userSpaceOnUse">
<stop stop-color="#FFC444"/>
<stop offset="0.9964" stop-color="#F36F56"/>
</linearGradient>
<linearGradient id="paint47_linear_60_437" x1="138.113" y1="125.347" x2="157.661" y2="144.013" gradientUnits="userSpaceOnUse">
<stop stop-color="#FF9085"/>
<stop offset="1" stop-color="#FB6FBB"/>
</linearGradient>
<linearGradient id="paint48_linear_60_437" x1="129.522" y1="120.545" x2="146.948" y2="120.545" gradientUnits="userSpaceOnUse">
<stop stop-color="#FF9085"/>
<stop offset="1" stop-color="#FB6FBB"/>
</linearGradient>
</defs>
</svg>
