<svg width="24" height="24" viewBox="0 0 24 24" fill="none" xmlns="http://www.w3.org/2000/svg">
<path d="M20.9348 15.8991C20.8786 15.7705 20.7877 15.6602 20.6723 15.5803C19.0814 14.4872 18.7505 12.6225 18.7505 11.25C18.7505 9.59344 20.0133 8.15063 20.7661 7.43719C20.8401 7.3671 20.8991 7.28265 20.9394 7.189C20.9797 7.09535 21.0005 6.99446 21.0005 6.8925C21.0005 6.79054 20.9797 6.68966 20.9394 6.59601C20.8991 6.50235 20.8401 6.4179 20.7661 6.34781C19.5773 5.22563 17.6086 4.5 15.7505 4.5C14.4157 4.50103 13.111 4.89667 12.0005 5.63719C10.7049 4.76847 9.1472 4.37832 7.59516 4.53385C6.04311 4.68938 4.59377 5.38086 3.49639 6.48938C2.84036 7.15912 2.32563 7.95387 1.98275 8.82643C1.63988 9.69899 1.47587 10.6316 1.50045 11.5688C1.53757 13.1506 1.88946 14.7092 2.53557 16.1535C3.18168 17.5978 4.10906 18.899 5.26358 19.9809C5.95902 20.638 6.88028 21.0028 7.83702 21H16.057C16.5685 21.001 17.0747 20.8969 17.5443 20.6942C18.0139 20.4915 18.4369 20.1945 18.787 19.8216C19.4356 19.1236 19.9966 18.3491 20.4576 17.5153C21.1158 16.3125 21.0314 16.125 20.9348 15.8991ZM17.6883 18.7997C17.4789 19.022 17.226 19.1989 16.9454 19.3194C16.6648 19.4398 16.3624 19.5013 16.057 19.5H7.83702C7.26399 19.5018 6.71218 19.2833 6.29577 18.8897C5.28521 17.9436 4.47332 16.8056 3.90752 15.5421C3.34172 14.2787 3.03336 12.9152 3.00045 11.5313C2.97994 10.7959 3.10757 10.064 3.37573 9.37903C3.64389 8.69405 4.04711 8.07002 4.56139 7.54406C5.04188 7.05319 5.61591 6.66363 6.24954 6.39842C6.88318 6.13321 7.56356 5.99773 8.25045 6H8.32358C9.49195 6.01231 10.6221 6.41787 11.5317 7.15125C11.6647 7.25775 11.83 7.31578 12.0005 7.31578C12.1709 7.31578 12.3362 7.25775 12.4692 7.15125C13.3983 6.40215 14.557 5.99563 15.7505 6C16.9423 6.01383 18.1083 6.34906 19.1255 6.97031C17.9067 8.33156 17.2505 9.82688 17.2505 11.25C17.2505 13.4784 17.9667 15.2559 19.3298 16.4344C18.9006 17.2984 18.3476 18.0953 17.6883 18.7997ZM12.022 2.8125C12.23 2.00692 12.7 1.29338 13.358 0.784213C14.016 0.275046 14.8247 -0.000833469 15.6567 1.89152e-06H15.7505C15.9494 1.89152e-06 16.1401 0.0790195 16.2808 0.219672C16.4214 0.360324 16.5005 0.55109 16.5005 0.750002C16.5005 0.948914 16.4214 1.13968 16.2808 1.28033C16.1401 1.42098 15.9494 1.5 15.7505 1.5H15.6567C15.1579 1.49996 14.6731 1.6657 14.2787 1.97116C13.8844 2.27662 13.6027 2.70449 13.478 3.1875C13.4282 3.3802 13.304 3.54525 13.1326 3.64634C12.9611 3.74744 12.7566 3.77629 12.5639 3.72656C12.3712 3.67684 12.2061 3.5526 12.1051 3.38118C12.004 3.20976 11.9751 3.0052 12.0248 2.8125H12.022Z" fill="#6D7F89"/>
</svg>
