<svg width="25" height="24" viewBox="0 0 25 24" fill="none" xmlns="http://www.w3.org/2000/svg">
<g clip-path="url(#clip0_515_9498)">
<path d="M12.4818 1.52148C13.7139 3.63078 14.946 5.71641 16.1325 7.82571C14.1888 11.2618 12.2452 14.7232 10.2305 18.1356C9.44798 19.4387 8.71277 20.7671 7.93192 22.0702C5.44404 22.0939 2.95446 22.0939 0.490234 22.0702C0.56122 21.9046 0.632206 21.7389 0.726854 21.5733C4.65981 14.8888 8.59446 8.22965 12.4818 1.52148Z" fill="#AE285D"/>
<path d="M12.4824 14.3204C14.9703 14.3204 17.4599 14.2967 19.9478 14.344C21.4402 16.9283 22.9579 19.4871 24.4266 22.095C21.9388 22.1187 19.4492 22.095 16.9613 22.095C15.4926 19.4871 13.9512 16.9266 12.4824 14.3204Z" fill="#AE285D"/>
</g>
<defs>
<clipPath id="clip0_515_9498">
<rect width="24" height="24" fill="white" transform="translate(0.5)"/>
</clipPath>
</defs>
</svg>
