<svg width="24" height="24" viewBox="0 0 24 24" fill="none" xmlns="http://www.w3.org/2000/svg">
<path d="M11.0314 11.9711C11.027 10.9421 10.7605 10.3814 11.2665 9.71668C11.6196 9.28468 12.6086 9.27456 12.8324 9.8053C13.0449 10.4786 13.0961 11.1924 12.9818 11.889L12.6888 15.2516C12.6762 15.5682 12.607 15.88 12.4845 16.1722C12.437 16.2678 12.3641 16.3483 12.2737 16.4049C12.1833 16.4616 12.079 16.4921 11.9724 16.4932C11.8657 16.4943 11.7609 16.4658 11.6694 16.411C11.5779 16.3561 11.5033 16.2771 11.454 16.1825C11.337 15.8803 11.268 15.5616 11.2497 15.238L11.0314 11.9711ZM11.993 17.6865C11.859 17.6872 11.7263 17.7142 11.6027 17.7662C11.4791 17.8181 11.367 17.894 11.2727 17.9893C11.1785 18.0847 11.104 18.1977 11.0534 18.3218C11.0029 18.446 10.9774 18.579 10.9783 18.713C10.9792 18.8471 11.0066 18.9797 11.0588 19.1032C11.111 19.2267 11.1871 19.3386 11.2826 19.4327C11.3782 19.5267 11.4913 19.601 11.6156 19.6513C11.7399 19.7015 11.8729 19.7268 12.007 19.7256C12.1409 19.7247 12.2733 19.6974 12.3966 19.6453C12.52 19.5932 12.6318 19.5173 12.7259 19.422C12.8199 19.3267 12.8942 19.2138 12.9446 19.0897C12.995 18.9657 13.0205 18.8329 13.0196 18.6991C13.0186 18.5652 12.9914 18.4328 12.9393 18.3094C12.8872 18.1861 12.8113 18.0742 12.716 17.9802C12.6207 17.8862 12.5078 17.8118 12.3837 17.7614C12.2597 17.711 12.1269 17.6856 11.993 17.6865ZM22.5 5.25V20.25C22.4993 20.8465 22.2621 21.4185 21.8403 21.8403C21.4185 22.2621 20.8465 22.4993 20.25 22.5H3.75C3.15346 22.4993 2.58154 22.2621 2.15973 21.8403C1.73791 21.4185 1.50065 20.8465 1.5 20.25V5.25C1.50065 4.65346 1.73791 4.08154 2.15973 3.65973C2.58154 3.23791 3.15346 3.00065 3.75 3H6V2.25C6 2.05109 6.07902 1.86032 6.21967 1.71967C6.36032 1.57902 6.55109 1.5 6.75 1.5C6.94891 1.5 7.13968 1.57902 7.28033 1.71967C7.42098 1.86032 7.5 2.05109 7.5 2.25V3H11.25V2.25C11.25 2.05109 11.329 1.86032 11.4697 1.71967C11.6103 1.57902 11.8011 1.5 12 1.5C12.1989 1.5 12.3897 1.57902 12.5303 1.71967C12.671 1.86032 12.75 2.05109 12.75 2.25V3H16.5V2.25C16.5 2.05109 16.579 1.86032 16.7197 1.71967C16.8603 1.57902 17.0511 1.5 17.25 1.5C17.4489 1.5 17.6397 1.57902 17.7803 1.71967C17.921 1.86032 18 2.05109 18 2.25V3H20.25C20.8465 3.00065 21.4185 3.23791 21.8403 3.65973C22.2621 4.08154 22.4993 4.65346 22.5 5.25ZM3 5.25V6.75H21V5.25C20.9997 5.05117 20.9206 4.86055 20.78 4.71995C20.6394 4.57936 20.4488 4.50026 20.25 4.5H18V5.25C18 5.44891 17.921 5.63968 17.7803 5.78033C17.6397 5.92098 17.4489 6 17.25 6C17.0511 6 16.8603 5.92098 16.7197 5.78033C16.579 5.63968 16.5 5.44891 16.5 5.25V4.5H12.75V5.25C12.75 5.44891 12.671 5.63968 12.5303 5.78033C12.3897 5.92098 12.1989 6 12 6C11.8011 6 11.6103 5.92098 11.4697 5.78033C11.329 5.63968 11.25 5.44891 11.25 5.25V4.5H7.5V5.25C7.5 5.44891 7.42098 5.63968 7.28033 5.78033C7.13968 5.92098 6.94891 6 6.75 6C6.55109 6 6.36032 5.92098 6.21967 5.78033C6.07902 5.63968 6 5.44891 6 5.25V4.5H3.75C3.55117 4.50026 3.36055 4.57936 3.21995 4.71995C3.07936 4.86055 3.00026 5.05117 3 5.25ZM21 20.25V8.25H3V20.25C3.00026 20.4488 3.07936 20.6394 3.21995 20.78C3.36055 20.9206 3.55117 20.9997 3.75 21H20.25C20.4488 20.9997 20.6394 20.9206 20.78 20.78C20.9206 20.6394 20.9997 20.4488 21 20.25Z" fill="#4B0082"/>
</svg>
