<svg width="20" height="20" viewBox="0 0 20 20" fill="none" xmlns="http://www.w3.org/2000/svg">
<path d="M16.6667 3.23077H14.6667V2.61538C14.6667 2.45217 14.5965 2.29565 14.4714 2.18024C14.3463 2.06484 14.1769 2 14 2C13.8231 2 13.6537 2.06484 13.5286 2.18024C13.4035 2.29565 13.3333 2.45217 13.3333 2.61538V3.23077H6.66667V2.61538C6.66667 2.45217 6.59643 2.29565 6.4714 2.18024C6.34638 2.06484 6.17681 2 6 2C5.82319 2 5.65362 2.06484 5.5286 2.18024C5.40357 2.29565 5.33333 2.45217 5.33333 2.61538V3.23077H3.33333C2.97971 3.23077 2.64058 3.36044 2.39053 3.59126C2.14048 3.82207 2 4.13512 2 4.46154V16.7692C2 17.0956 2.14048 17.4087 2.39053 17.6395C2.64058 17.8703 2.97971 18 3.33333 18H16.6667C17.0203 18 17.3595 17.8703 17.6095 17.6395C17.8595 17.4087 18 17.0956 18 16.7692V4.46154C18 4.13512 17.8595 3.82207 17.6095 3.59126C17.3595 3.36044 17.0203 3.23077 16.6667 3.23077ZM5.33333 4.46154V5.07692C5.33333 5.24013 5.40357 5.39666 5.5286 5.51206C5.65362 5.62747 5.82319 5.69231 6 5.69231C6.17681 5.69231 6.34638 5.62747 6.4714 5.51206C6.59643 5.39666 6.66667 5.24013 6.66667 5.07692V4.46154H13.3333V5.07692C13.3333 5.24013 13.4035 5.39666 13.5286 5.51206C13.6537 5.62747 13.8231 5.69231 14 5.69231C14.1769 5.69231 14.3463 5.62747 14.4714 5.51206C14.5965 5.39666 14.6667 5.24013 14.6667 5.07692V4.46154H16.6667V6.92308H3.33333V4.46154H5.33333ZM16.6667 16.7692H3.33333V8.15385H16.6667V16.7692Z" fill="#6D7F89"/>
</svg>
