<svg width="24" height="25" viewBox="0 0 24 25" fill="none" xmlns="http://www.w3.org/2000/svg">
<path d="M16.2806 9.38734C16.3504 9.457 16.4057 9.53971 16.4434 9.63076C16.4812 9.72181 16.5006 9.81941 16.5006 9.91797C16.5006 10.0165 16.4812 10.1141 16.4434 10.2052C16.4057 10.2962 16.3504 10.3789 16.2806 10.4486L11.0306 15.6986C10.961 15.7683 10.8783 15.8236 10.7872 15.8614C10.6962 15.8991 10.5986 15.9186 10.5 15.9186C10.4014 15.9186 10.3038 15.8991 10.2128 15.8614C10.1218 15.8236 10.039 15.7683 9.96938 15.6986L7.71938 13.4486C7.57865 13.3079 7.49959 13.117 7.49959 12.918C7.49959 12.7189 7.57865 12.5281 7.71938 12.3873C7.86011 12.2466 8.05098 12.1676 8.25 12.1676C8.44903 12.1676 8.6399 12.2466 8.78063 12.3873L10.5 14.1077L15.2194 9.38734C15.289 9.31761 15.3718 9.26229 15.4628 9.22455C15.5538 9.18681 15.6514 9.16738 15.75 9.16738C15.8486 9.16738 15.9462 9.18681 16.0372 9.22455C16.1283 9.26229 16.211 9.31761 16.2806 9.38734ZM21.75 12.168C21.75 14.0963 21.1782 15.9814 20.1068 17.5848C19.0355 19.1882 17.5127 20.4378 15.7312 21.1758C13.9496 21.9137 11.9892 22.1068 10.0979 21.7306C8.20656 21.3544 6.46928 20.4258 5.10571 19.0623C3.74215 17.6987 2.81355 15.9614 2.43735 14.0701C2.06114 12.1788 2.25422 10.2184 2.99218 8.4368C3.73013 6.65523 4.97982 5.13248 6.58319 4.06114C8.18657 2.9898 10.0716 2.41797 12 2.41797C14.585 2.4207 17.0634 3.4488 18.8913 5.27669C20.7192 7.10458 21.7473 9.58295 21.75 12.168ZM20.25 12.168C20.25 10.5363 19.7661 8.94122 18.8596 7.58451C17.9531 6.22781 16.6646 5.17039 15.1571 4.54596C13.6497 3.92154 11.9909 3.75816 10.3905 4.07649C8.79017 4.39482 7.32016 5.18055 6.16637 6.33434C5.01259 7.48812 4.22685 8.95813 3.90853 10.5585C3.5902 12.1588 3.75358 13.8176 4.378 15.3251C5.00242 16.8326 6.05984 18.1211 7.41655 19.0276C8.77326 19.9341 10.3683 20.418 12 20.418C14.1873 20.4155 16.2843 19.5455 17.8309 17.9989C19.3775 16.4522 20.2475 14.3552 20.25 12.168Z" fill="white"/>
</svg>
