<svg width="24" height="24" viewBox="0 0 24 24" fill="none" xmlns="http://www.w3.org/2000/svg">
<path d="M21.4903 12.285C21.4018 12.1039 21.4018 11.8961 21.4903 11.7151L22.3109 10.0365C22.7677 9.10192 22.4057 7.98796 21.4868 7.5004L19.8364 6.62471C19.6584 6.53027 19.5363 6.36217 19.5014 6.1637L19.1787 4.32342C18.9989 3.2988 18.0511 2.61027 17.0213 2.75598L15.1714 3.01766C14.9717 3.04584 14.7743 2.98165 14.6294 2.84153L13.2866 1.54251C12.5389 0.819184 11.3676 0.819141 10.62 1.54251L9.27714 2.84166C9.13225 2.98182 8.93481 3.04589 8.73518 3.01778L6.88527 2.75611C5.8551 2.61032 4.90765 3.29893 4.72792 4.32355L4.40514 6.16375C4.37029 6.36226 4.24822 6.53031 4.0702 6.6248L2.41979 7.50049C1.50087 7.98801 1.13891 9.10205 1.59575 10.0366L2.41623 11.7152C2.50474 11.8963 2.50474 12.104 2.41623 12.285L1.5957 13.9636C1.13887 14.8982 1.50083 16.0121 2.41975 16.4997L4.07016 17.3754C4.24822 17.4698 4.37029 17.6379 4.40514 17.8364L4.72792 19.6767C4.89154 20.6094 5.69135 21.2636 6.61057 21.2635C6.70111 21.2635 6.79297 21.2571 6.88531 21.2441L8.73522 20.9824C8.93473 20.9541 9.13229 21.0184 9.27718 21.1585L10.62 22.4575C10.9939 22.8192 11.4735 23 11.9533 23C12.4329 23 12.9129 22.8191 13.2866 22.4575L14.6294 21.1585C14.7743 21.0184 14.9718 20.9544 15.1714 20.9824L17.0213 21.2441C18.0516 21.3898 18.9989 20.7012 19.1787 19.6766L19.5015 17.8364C19.5363 17.6379 19.6584 17.4699 19.8364 17.3754L21.4868 16.4997C22.4057 16.0122 22.7677 14.8981 22.3109 13.9635L21.4903 12.285ZM20.8921 15.3788L19.2417 16.2545C18.7155 16.5337 18.3546 17.0303 18.2517 17.6171L17.9289 19.4574C17.8681 19.804 17.5476 20.0369 17.199 19.9877L15.3491 19.726C14.7592 19.6424 14.1754 19.8323 13.7472 20.2465L12.4044 21.5454C12.1515 21.7901 11.7552 21.7901 11.5022 21.5454L10.1594 20.2464C9.79748 19.8964 9.3244 19.7067 8.83053 19.7067C8.74004 19.7067 8.64881 19.713 8.55746 19.7259L6.70755 19.9876C6.35925 20.0369 6.03849 19.804 5.97765 19.4573L5.65483 17.617C5.55188 17.0302 5.19103 16.5336 4.6648 16.2544L3.01439 15.3787C2.70347 15.2138 2.58101 14.8369 2.73557 14.5207L3.55609 12.8421C3.81768 12.3069 3.81768 11.6931 3.55609 11.1579L2.73557 9.47931C2.58101 9.1631 2.70347 8.78623 3.01439 8.62127L4.6648 7.74558C5.19099 7.46633 5.55188 6.9697 5.65479 6.38293L5.97756 4.54268C6.03841 4.19602 6.35886 3.96313 6.70747 4.01237L8.55738 4.27405C9.14712 4.35753 9.7311 4.16774 10.1593 3.75357L11.5021 2.45456C11.755 2.20989 12.1513 2.20989 12.4043 2.45456L13.7471 3.75357C14.1753 4.16779 14.7592 4.35753 15.349 4.27405L17.1989 4.01237C17.5473 3.96309 17.868 4.19602 17.9288 4.54268L18.2516 6.38297C18.3546 6.96975 18.7154 7.46642 19.2416 7.74558L20.8921 8.62127C21.203 8.78623 21.3254 9.1631 21.1709 9.47931L20.3504 11.1578C20.0888 11.693 20.0888 12.3069 20.3504 12.8421L21.1709 14.5206C21.3255 14.8369 21.203 15.2138 20.8921 15.3788Z" fill="#4B0082"/>
<path d="M16.5918 7.3616C16.3441 7.11384 15.9424 7.11384 15.6946 7.3616L7.32058 15.7357C7.07283 15.9834 7.07283 16.3851 7.32058 16.6329C7.44446 16.7568 7.60684 16.8187 7.76917 16.8187C7.9315 16.8187 8.09392 16.7568 8.21776 16.6329L16.5918 8.25886C16.8396 8.01106 16.8396 7.6094 16.5918 7.3616Z" fill="#4B0082"/>
<path d="M9.41805 6.29297C8.13537 6.29297 7.0918 7.33654 7.0918 8.61923C7.0918 9.90192 8.13537 10.9455 9.41805 10.9455C10.7007 10.9455 11.7443 9.90192 11.7443 8.61923C11.7443 7.33654 10.7007 6.29297 9.41805 6.29297ZM9.41805 9.67659C8.83502 9.67659 8.36069 9.20226 8.36069 8.61918C8.36069 8.03615 8.83502 7.56182 9.41805 7.56182C10.0011 7.56182 10.4755 8.03615 10.4755 8.61918C10.4754 9.20226 10.0011 9.67659 9.41805 9.67659Z" fill="#4B0082"/>
<path d="M14.4903 13.0586C13.2076 13.0586 12.1641 14.1022 12.1641 15.3849C12.1641 16.6675 13.2076 17.7111 14.4903 17.7111C15.773 17.7111 16.8166 16.6675 16.8166 15.3849C16.8166 14.1022 15.773 13.0586 14.4903 13.0586ZM14.4903 16.4422C13.9073 16.4422 13.4329 15.9679 13.4329 15.3849C13.4329 14.8018 13.9072 14.3275 14.4903 14.3275C15.0734 14.3275 15.5477 14.8018 15.5477 15.3849C15.5477 15.9679 15.0734 16.4422 14.4903 16.4422Z" fill="#4B0082"/>
</svg>
