<svg width="24" height="24" viewBox="0 0 24 24" fill="none" xmlns="http://www.w3.org/2000/svg">
<path d="M22.1515 15.1743C21.9532 15.4278 21.6786 15.6107 21.3683 15.6961C21.058 15.7816 20.7285 15.7649 20.4284 15.6487L15.8346 14.0184L15.8074 14.008C15.5777 13.9161 15.3743 13.7688 15.2153 13.5793C15.0563 13.3897 14.9467 13.1637 14.8962 12.9215L14.314 10.1324C12.8036 9.61776 11.1647 9.62139 9.65651 10.1427L9.10339 12.9102C9.0546 13.1551 8.94545 13.384 8.78583 13.576C8.62621 13.768 8.42118 13.9172 8.18932 14.0099L8.16214 14.0202L3.56839 15.6487C3.39787 15.7159 3.21635 15.7508 3.03307 15.7518C2.80493 15.7522 2.5797 15.7006 2.37451 15.6008C2.16933 15.5011 1.9896 15.3558 1.84901 15.1762C0.233699 13.093 0.414636 10.3284 2.2887 8.45336C7.55276 3.18742 16.4449 3.18742 21.7118 8.45336C23.5859 10.3265 23.7668 13.0912 22.1515 15.1743ZM20.2503 18.0018H3.75026C3.55135 18.0018 3.36058 18.0808 3.21993 18.2215C3.07928 18.3621 3.00026 18.5529 3.00026 18.7518C3.00026 18.9507 3.07928 19.1415 3.21993 19.2821C3.36058 19.4228 3.55135 19.5018 3.75026 19.5018H20.2503C20.4492 19.5018 20.6399 19.4228 20.7806 19.2821C20.9212 19.1415 21.0003 18.9507 21.0003 18.7518C21.0003 18.5529 20.9212 18.3621 20.7806 18.2215C20.6399 18.0808 20.4492 18.0018 20.2503 18.0018Z" fill="white"/>
</svg>
