<svg width="31" height="30" viewBox="0 0 31 30" fill="none" xmlns="http://www.w3.org/2000/svg">
<g clip-path="url(#clip0_421_13639)">
<path d="M27.7969 7.45208C24.8323 5.7407 21.0414 6.7576 19.3281 9.72234L15.0095 17.2034C13.7599 19.3638 15.3686 20.1186 17.1625 21.1942L21.318 23.5926C22.7253 24.4043 24.5227 23.9225 25.3344 22.5171L29.774 14.8288C31.2654 12.2453 30.3804 8.94355 27.7969 7.45208Z" fill="#EA4335"/>
<path d="M22.9117 10.5475L18.7562 8.14907C16.4622 6.87564 15.163 6.79134 14.2213 8.28832L8.09233 18.9027C6.38095 21.8655 7.39961 25.6547 10.3625 27.3623C12.946 28.8538 16.2478 27.9688 17.7393 25.3853L23.9855 14.5657C24.8008 13.1585 24.319 11.3592 22.9117 10.5475Z" fill="#FBBC04"/>
<path d="M23.7121 5.09124L20.7932 3.40534C17.5648 1.54203 13.4366 2.64686 11.5732 5.87531L6.01591 15.5002C5.19509 16.9203 5.68246 18.7379 7.10255 19.5568L10.3713 21.4441C11.9854 22.3768 14.0486 21.8233 14.9813 20.2092L21.33 9.21365C22.6456 6.93623 25.5572 6.15569 27.8346 7.47128L23.7121 5.09124Z" fill="#34A853"/>
<path d="M12.3625 8.62917L9.20729 6.81153C7.80012 6.00163 6.00268 6.4816 5.19102 7.88525L1.40534 14.4264C-0.457973 17.6457 0.646863 21.7646 3.87531 23.6227L6.27742 25.006L9.19085 26.6843L10.4551 27.4116C8.21059 25.9092 7.49779 22.8988 8.87009 20.5278L9.85047 18.8348L13.4398 12.6325C14.2497 11.2326 13.7679 9.43907 12.3625 8.62917Z" fill="#4285F4"/>
</g>
<defs>
<clipPath id="clip0_421_13639">
<rect width="30" height="30" fill="white" transform="translate(0.5)"/>
</clipPath>
</defs>
</svg>
