<svg width="20" height="20" viewBox="0 0 20 20" fill="none" xmlns="http://www.w3.org/2000/svg">
<path d="M18.75 8.17773C18.75 13.6465 10.6414 18.073 10.2961 18.2559C10.2051 18.3048 10.1033 18.3304 10 18.3304C9.89665 18.3304 9.79492 18.3048 9.70391 18.2559C9.35859 18.073 1.25 13.6465 1.25 8.17773C1.25145 6.89354 1.76223 5.66235 2.6703 4.75428C3.57837 3.84622 4.80955 3.33543 6.09375 3.33398C7.70703 3.33398 9.11953 4.02773 10 5.20039C10.8805 4.02773 12.293 3.33398 13.9062 3.33398C15.1904 3.33543 16.4216 3.84622 17.3297 4.75428C18.2378 5.66235 18.7486 6.89354 18.75 8.17773Z" fill="#E44E39"/>
</svg>
