<svg width="25" height="24" viewBox="0 0 25 24" fill="none" xmlns="http://www.w3.org/2000/svg">
<g clip-path="url(#clip0_515_9480)">
<path d="M22.4263 2.09612C19.7795 -1.64758 13.1985 -0.242578 7.71434 5.24162C2.23034 10.7166 -0.072162 18.2041 2.57464 21.9478C3.44744 23.1864 4.75834 23.8498 6.31324 24C7.36484 24.0078 8.22614 22.8154 8.92904 21.2226C9.65424 19.5548 10.0984 18.0046 10.4428 16.5634C10.9505 14.27 10.9868 12.6294 10.7328 12.2848C10.2978 11.7047 9.30074 11.8498 8.17674 12.5024C7.63274 12.8015 6.91674 12.6021 7.76874 11.5688C8.62994 10.5263 12.0292 8.00632 13.262 7.61652C14.6035 7.22672 16.1354 7.75252 15.6188 9.23912C15.2482 10.3238 10.5715 22.7251 14.0228 21.511C15.1277 20.764 16.2278 19.8613 17.2867 18.8024C22.7708 13.3274 25.0732 5.83992 22.4263 2.09612ZM17.0601 5.30512C15.9632 6.40192 14.5401 6.79162 13.9237 6.15712C13.262 5.52262 13.6517 4.09942 14.7486 2.98452C15.8544 1.86952 17.2776 1.52512 17.894 2.15052C18.5285 2.79412 18.1389 4.19932 17.0601 5.30512Z" fill="#AF212E"/>
<path d="M7.53776 5.38477C1.0372 18.3848 4.87046 22.3848 8.03713 21.8848L8.7 21.72C7.9 23.32 7.03742 24.3848 5.53721 23.8848C-0.962076 22.3848 0.537127 12.3848 7.53776 5.38477Z" fill="#F79119"/>
<path d="M23.5364 6.38595C20.5371 15.3848 15.0369 19.3844 12.7512 20.3844C12.7512 20.3844 12.7512 20.3843 12.7512 20.3843L12.7806 19.3857C12.7425 19.7772 12.735 20.1073 12.7512 20.3843L12.7512 20.3844C12.8385 21.876 13.6156 21.8246 14.0376 21.5009C15.0369 20.8844 23.0371 14.8848 23.5364 6.38595Z" fill="#F79119"/>
<path d="M12.7512 20.3844C12.7512 20.3844 12.7512 20.3843 12.7512 20.3843L12.7512 20.3844Z" fill="#F79119"/>
</g>
<defs>
<clipPath id="clip0_515_9480">
<rect width="24" height="24" fill="white" transform="translate(0.5)"/>
</clipPath>
</defs>
</svg>
