<svg width="24" height="25" viewBox="0 0 24 25" fill="none" xmlns="http://www.w3.org/2000/svg">
<path d="M18.75 7.92523V4.58398C18.75 4.18616 18.592 3.80463 18.3107 3.52332C18.0294 3.24202 17.6478 3.08398 17.25 3.08398H6.75C6.35218 3.08398 5.97064 3.24202 5.68934 3.52332C5.40804 3.80463 5.25 4.18616 5.25 4.58398V7.95898C5.25051 8.19176 5.30495 8.42126 5.40905 8.62946C5.51315 8.83766 5.66408 9.01891 5.85 9.15898L10.7503 12.834L5.85 16.509C5.66408 16.6491 5.51315 16.8303 5.40905 17.0385C5.30495 17.2467 5.25051 17.4762 5.25 17.709V21.084C5.25 21.4818 5.40804 21.8633 5.68934 22.1446C5.97064 22.4259 6.35218 22.584 6.75 22.584H17.25C17.6478 22.584 18.0294 22.4259 18.3107 22.1446C18.592 21.8633 18.75 21.4818 18.75 21.084V17.7427C18.7495 17.5108 18.6955 17.2822 18.5922 17.0746C18.489 16.8669 18.3393 16.6859 18.1547 16.5455L13.2441 12.834L18.1547 9.12148C18.3393 8.98141 18.4891 8.80057 18.5924 8.59306C18.6957 8.38556 18.7496 8.15701 18.75 7.92523ZM17.25 21.084H6.75V17.709L12 13.7715L17.25 17.7418V21.084ZM17.25 7.92523L12 11.8965L6.75 7.95898V4.58398H17.25V7.92523Z" fill="white"/>
</svg>
