<svg width="25" height="24" viewBox="0 0 25 24" fill="none" xmlns="http://www.w3.org/2000/svg">
<g clip-path="url(#clip0_515_9506)">
<path fill-rule="evenodd" clip-rule="evenodd" d="M0.5 12C0.5 5.37307 5.87234 0 12.5002 0C19.1281 0 24.5 5.37307 24.5 12C24.5 18.6269 19.1277 24 12.5002 24C5.8728 24 0.5 18.6277 0.5 12Z" fill="#003874"/>
<path fill-rule="evenodd" clip-rule="evenodd" d="M10.9942 4.88739L13.7843 3.96094L13.798 19.1187L10.9844 20.0661L10.9942 4.88739Z" fill="#ED1C24"/>
<path fill-rule="evenodd" clip-rule="evenodd" d="M21.4835 12.9781C21.2217 15.1463 20.0115 17.3369 17.3689 17.3411C15.8262 17.3438 14.621 16.2822 13.7864 14.9834V13.4789C14.8308 14.0001 15.807 14.5594 16.9913 14.5764C18.4502 14.5981 19.7694 14.0344 20.315 12.9778H21.4837L21.4835 12.9781ZM12.6498 14.3396C11.4375 15.8081 10.266 17.3081 8.07099 17.3081C4.9706 17.3081 3.5 14.2956 3.5 11.777C3.5 9.35695 4.64928 6.49219 7.66973 6.49219C8.97978 6.49219 10.2408 7.29734 10.9925 8.14899L10.9902 10.2033C10.3622 9.7784 8.95551 9.36156 8.03709 9.3466C6.12171 9.31437 4.43307 10.1488 4.46239 12.0489C4.48231 13.3569 5.77198 14.2461 7.05501 14.2461C9.02009 14.2461 10.2106 12.442 11.2055 11.0727C11.6044 10.55 11.9987 10.0238 12.3884 9.49414C13.4935 7.94229 14.7722 6.52556 16.9672 6.52556C19.553 6.52556 21.0046 8.62016 21.415 10.7764H20.2469C19.7774 10.0772 18.8744 9.64928 17.9848 9.64928C15.9533 9.64928 14.7394 11.5275 13.7235 12.9104L12.647 14.3393" fill="white"/>
</g>
<defs>
<clipPath id="clip0_515_9506">
<rect width="24" height="24" fill="white" transform="translate(0.5)"/>
</clipPath>
</defs>
</svg>
