<svg width="39" height="39" viewBox="0 0 39 39" fill="none" xmlns="http://www.w3.org/2000/svg">
<g clip-path="url(#clip0_21_318)">
<path d="M18.2795 28.6924C17.6618 28.6924 17.0554 28.524 16.5263 28.2053L7.28516 22.6426V26.0663C7.28516 28.3211 8.47964 30.4145 10.6486 31.9613C12.7016 33.4252 15.4116 34.2314 18.2795 34.2314C21.1474 34.2314 23.8574 33.4252 25.9104 31.9613C28.0794 30.4146 29.2738 28.3211 29.2738 26.0663V22.6426L20.0325 28.2055C19.5036 28.524 18.8973 28.6924 18.2795 28.6924Z" fill="white"/>
<path fill-rule="evenodd" clip-rule="evenodd" d="M38.6752 30.9118C38.6344 31.3922 38.2995 31.777 37.8628 31.9042L38.4373 32.636C38.8238 33.1282 38.738 33.8404 38.2458 34.2269C37.6957 34.6557 36.9373 34.4935 36.5595 33.9138V34.0256C36.5595 34.6513 36.0522 35.1586 35.4264 35.1586C34.8006 35.1586 34.2933 34.6513 34.2933 34.0256V16.9757L18.866 26.2623C18.6863 26.3706 18.484 26.4247 18.2817 26.4247C18.0794 26.4247 17.877 26.3706 17.6973 26.2623L0.552612 15.9418C0.212088 15.7369 0.00390625 15.3685 0.00390625 14.9711C0.00390625 14.5737 0.212088 14.2054 0.552612 14.0004L17.6973 3.67989C18.0568 3.46347 18.5066 3.46347 18.866 3.67989L36.0108 14.0004C36.3467 14.2003 36.5616 14.5801 36.5595 14.9711V29.5951L37.6421 29.687C38.2656 29.7399 38.7281 30.2883 38.6752 30.9118ZM16.3727 15.9987C16.6424 16.5496 17.0269 16.9303 17.5263 17.1409C18.1626 17.4004 18.878 17.4672 19.6726 17.3414C20.3143 17.2397 20.9046 17.0601 21.4433 16.8025C21.9796 16.5296 22.4001 16.2672 22.7048 16.0153C22.9558 16.1165 23.177 16.2773 23.3685 16.4975C23.5601 16.7178 23.6788 16.9731 23.7248 17.2634C23.7974 17.7218 23.6745 18.1329 23.3562 18.4965C23.0532 18.8578 22.5929 19.1656 21.9754 19.4201C21.3731 19.6721 20.6594 19.8634 19.8343 19.9941C18.6578 20.1805 17.5607 20.1271 16.5432 19.834C15.541 19.5386 14.7023 18.99 14.0271 18.1885C13.352 17.387 12.9079 16.3139 12.6949 14.9693C12.5401 13.9914 12.5585 13.1192 12.7504 12.3527C12.9575 11.5837 13.2845 10.9289 13.7314 10.3882C14.1912 9.82983 14.7327 9.39165 15.3558 9.07368C15.9918 8.738 16.6765 8.51208 17.41 8.39591C18.449 8.23135 19.3984 8.29242 20.2583 8.57913C21.1182 8.86584 21.8278 9.34081 22.3871 10.0041C22.9439 10.652 23.2961 11.442 23.4438 12.3741C23.5212 12.863 23.4494 13.2503 23.2284 13.5359C23.0074 13.8216 22.6648 14.0324 22.2008 14.1686L16.3727 15.9987ZM15.7963 13.7151L20.0984 12.3166C20.0025 11.9089 19.7587 11.5559 19.3669 11.2577C18.9879 10.9418 18.4699 10.8359 17.8129 10.94C17.1253 11.0489 16.5886 11.3688 16.2028 11.8998C15.8684 12.3769 15.7329 12.982 15.7963 13.7151Z" fill="white"/>
</g>
<defs>
<clipPath id="clip0_21_318">
<rect width="38.6754" height="38.6754" fill="white"/>
</clipPath>
</defs>
</svg>
