<svg width="160" height="39" viewBox="0 0 160 39" fill="none" xmlns="http://www.w3.org/2000/svg">
<g clip-path="url(#clip0_707_8188)">
<path d="M18.5413 28.6924C17.9235 28.6924 17.3172 28.524 16.788 28.2053L7.54688 22.6426V26.0663C7.54688 28.3211 8.74135 30.4145 10.9103 31.9613C12.9633 33.4252 15.6733 34.2314 18.5413 34.2314C21.4091 34.2314 24.1191 33.4252 26.1721 31.9613C28.3411 30.4146 29.5356 28.3211 29.5356 26.0663V22.6426L20.2943 28.2055C19.7653 28.524 19.159 28.6924 18.5413 28.6924Z" fill="#FFD700"/>
<path fill-rule="evenodd" clip-rule="evenodd" d="M38.9369 30.9118C38.8961 31.3922 38.5612 31.777 38.1245 31.9042L38.699 32.636C39.0855 33.1282 38.9998 33.8404 38.5076 34.2269C37.9574 34.6557 37.199 34.4935 36.8212 33.9138V34.0256C36.8212 34.6513 36.3139 35.1586 35.6881 35.1586C35.0624 35.1586 34.555 34.6513 34.555 34.0256V16.9757L19.1278 26.2623C18.948 26.3706 18.7457 26.4247 18.5434 26.4247C18.3411 26.4247 18.1387 26.3706 17.959 26.2623L0.814331 15.9418C0.473807 15.7369 0.265625 15.3685 0.265625 14.9711C0.265625 14.5737 0.473807 14.2054 0.814331 14.0004L17.959 3.67989C18.3185 3.46347 18.7683 3.46347 19.1278 3.67989L36.2725 14.0004C36.6085 14.2003 36.8234 14.5801 36.8213 14.9711V29.5951L37.9038 29.687C38.5273 29.7399 38.9899 30.2883 38.9369 30.9118ZM16.6352 15.9985C16.9048 16.5494 17.2894 16.9301 17.7888 17.1407C18.4251 17.4002 19.1405 17.467 19.935 17.3411C20.5768 17.2395 21.167 17.0598 21.7057 16.8022C22.242 16.5293 22.6625 16.2669 22.9672 16.0151C23.2182 16.1163 23.4395 16.277 23.631 16.4973C23.8225 16.7176 23.9412 16.9729 23.9872 17.2632C24.0598 17.7216 23.937 18.1326 23.6187 18.4963C23.3156 18.8575 22.8553 19.1654 22.2378 19.4198C21.6355 19.6718 20.9218 19.8632 20.0967 19.9939C18.9202 20.1802 17.8232 20.1269 16.8056 19.8338C15.8034 19.5383 14.9647 18.9898 14.2896 18.1883C13.6144 17.3868 13.1703 16.3137 12.9574 14.9691C12.8025 13.9912 12.821 13.119 13.0128 12.3524C13.22 11.5835 13.547 10.9286 13.9939 10.388C14.4536 9.82959 14.9951 9.39141 15.6183 9.07343C16.2543 8.73775 16.939 8.51183 17.6724 8.39567C18.7114 8.23111 19.6609 8.29218 20.5208 8.57889C21.3806 8.86559 22.0902 9.34057 22.6495 10.0038C23.2063 10.6518 23.5586 11.4418 23.7062 12.3738C23.7837 12.8628 23.7119 13.2501 23.4908 13.5357C23.2698 13.8213 22.9273 14.0322 22.4633 14.1683L16.6352 15.9985ZM16.0588 13.7149L20.3609 12.3163C20.265 11.9086 20.0211 11.5557 19.6293 11.2575C19.2504 10.9416 18.7324 10.8357 18.0753 10.9397C17.3878 11.0486 16.8511 11.3686 16.4653 11.8996C16.1308 12.3767 15.9953 12.9818 16.0588 13.7149Z" fill="#4B0082"/>
</g>
<path d="M46.8647 14.5681H51.3607V26.6639L49.2723 26.8959C48.5374 26.8959 47.9476 26.6832 47.5029 26.2578C47.0774 25.8323 46.8647 25.2522 46.8647 24.5174V14.5681ZM49.2723 26.8959V23.2701H58.3803C58.4963 23.4441 58.6027 23.6858 58.6994 23.9953C58.8154 24.3047 58.8734 24.6431 58.8734 25.0105C58.8734 25.6486 58.7284 26.1224 58.4383 26.4318C58.1676 26.7412 57.7905 26.8959 57.3071 26.8959H49.2723ZM51.3607 20.1954H46.8647V9.20192C47.0774 9.16325 47.3772 9.1149 47.7639 9.05689C48.17 8.99888 48.5664 8.96987 48.9532 8.96987C49.804 8.96987 50.4132 9.1149 50.7806 9.40497C51.1673 9.69503 51.3607 10.2558 51.3607 11.0873V20.1954ZM63.0504 21.9068L62.8763 18.9771L70.0119 17.8459C69.9732 17.3237 69.7412 16.8403 69.3158 16.3955C68.9097 15.9314 68.2909 15.6994 67.4593 15.6994C66.5891 15.6994 65.864 15.9894 65.2839 16.5696C64.7231 17.1497 64.433 17.9716 64.4137 19.0351L64.5587 21.0946C64.7327 22.1195 65.1775 22.8543 65.893 23.2991C66.6278 23.7439 67.498 23.9662 68.5036 23.9662C69.3158 23.9662 70.0796 23.8599 70.7951 23.6472C71.5106 23.4151 72.081 23.1734 72.5065 22.922C72.7965 23.096 73.0383 23.3378 73.2316 23.6472C73.425 23.9566 73.5217 24.295 73.5217 24.6624C73.5217 25.2425 73.2897 25.726 72.8256 26.1127C72.3808 26.4995 71.7523 26.7895 70.9401 26.9829C70.1473 27.1763 69.2287 27.273 68.1845 27.273C66.6955 27.273 65.3515 26.9926 64.1526 26.4318C62.973 25.871 62.0448 25.0298 61.368 23.9082C60.6912 22.7866 60.3527 21.375 60.3527 19.6733C60.3527 18.4357 60.5461 17.3624 60.9329 16.4536C61.339 15.5447 61.8708 14.8002 62.5282 14.2201C63.2051 13.6206 63.9592 13.1855 64.7907 12.9148C65.6416 12.6247 66.5311 12.4797 67.4593 12.4797C68.7743 12.4797 69.9346 12.7407 70.9401 13.2628C71.9457 13.785 72.7289 14.5101 73.2897 15.4383C73.8504 16.3472 74.1308 17.3914 74.1308 18.571C74.1308 19.1898 73.9665 19.6539 73.6377 19.9633C73.309 20.2727 72.8449 20.4661 72.2454 20.5435L63.0504 21.9068ZM82.5128 27.302C80.521 27.302 78.9354 26.9152 77.7558 26.1417C76.5762 25.3682 75.9864 24.2176 75.9864 22.69C75.9864 21.375 76.3924 20.3694 77.2046 19.6733C78.0168 18.9578 79.2254 18.513 80.8304 18.339L84.7173 17.9329V17.6138C84.7173 16.9563 84.4563 16.4826 83.9341 16.1925C83.4314 15.9024 82.7062 15.7574 81.7587 15.7574C81.0238 15.7574 80.2987 15.8444 79.5832 16.0185C78.887 16.1925 78.2585 16.4052 77.6977 16.6566C77.4657 16.4826 77.2626 16.2408 77.0886 15.9314C76.9339 15.6027 76.8566 15.2643 76.8566 14.9162C76.8566 14.0847 77.3013 13.4852 78.1909 13.1178C78.7516 12.9051 79.3995 12.7504 80.1343 12.6537C80.8885 12.5377 81.6136 12.4797 82.3098 12.4797C84.3209 12.4797 85.9259 12.8954 87.1249 13.7269C88.3431 14.5585 88.9523 15.8638 88.9523 17.6428V24.2273C88.9523 24.7107 88.8266 25.1072 88.5752 25.4166C88.3238 25.7066 88.0047 25.958 87.618 26.1707C87.0378 26.5188 86.3127 26.7895 85.4425 26.9829C84.5916 27.1956 83.6151 27.302 82.5128 27.302ZM82.5128 24.0533C82.9383 24.0533 83.3637 24.0146 83.7891 23.9372C84.2145 23.8405 84.5336 23.7245 84.7463 23.5892V20.8625L82.3098 21.0946C81.6716 21.1333 81.1592 21.2686 80.7724 21.5007C80.405 21.7327 80.2213 22.0808 80.2213 22.5449C80.2213 22.9897 80.3953 23.3571 80.7434 23.6472C81.1108 23.9179 81.7006 24.0533 82.5128 24.0533ZM96.6152 16.6856V20.2534H92.2352V16.1345C92.2352 15.593 92.3706 15.1386 92.6413 14.7712C92.912 14.3844 93.2795 14.0363 93.7436 13.7269C94.3817 13.3402 95.1455 13.0405 96.0351 12.8277C96.9439 12.5957 97.8915 12.4797 98.8777 12.4797C100.869 12.4797 101.865 13.1468 101.865 14.4811C101.865 14.8099 101.817 15.1096 101.72 15.3803C101.643 15.651 101.537 15.8831 101.401 16.0765C101.208 16.0378 100.966 16.0088 100.676 15.9894C100.405 15.9508 100.115 15.9314 99.8059 15.9314C99.2258 15.9314 98.6457 15.9991 98.0655 16.1345C97.5047 16.2698 97.0213 16.4536 96.6152 16.6856ZM92.2352 19.1802L96.6152 19.2672V26.8089C96.4218 26.8669 96.1414 26.9152 95.774 26.9539C95.4259 27.0119 95.0489 27.0409 94.6428 27.0409C93.8112 27.0409 93.2021 26.8959 92.8154 26.6058C92.4286 26.3158 92.2352 25.784 92.2352 25.0105V19.1802ZM117.108 17.8169V20.5435H112.757V17.9619C112.757 17.2464 112.544 16.7243 112.119 16.3955C111.713 16.0668 111.171 15.9024 110.494 15.9024C110.03 15.9024 109.595 15.9604 109.189 16.0765C108.802 16.1925 108.445 16.3375 108.116 16.5116V20.5435H103.736V16.0185C103.736 15.535 103.842 15.1386 104.055 14.8292C104.268 14.5004 104.567 14.2007 104.954 13.93C105.573 13.5046 106.366 13.1565 107.333 12.8858C108.3 12.615 109.373 12.4797 110.552 12.4797C112.641 12.4797 114.256 12.9438 115.396 13.872C116.537 14.7808 117.108 16.0958 117.108 17.8169ZM103.736 19.2092H108.116V26.8089C107.922 26.8669 107.642 26.9152 107.275 26.9539C106.927 27.0119 106.549 27.0409 106.143 27.0409C105.312 27.0409 104.703 26.8959 104.316 26.6058C103.929 26.3158 103.736 25.784 103.736 25.0105V19.2092ZM112.757 19.2092H117.108V26.8089C116.914 26.8669 116.644 26.9152 116.296 26.9539C115.948 27.0119 115.571 27.0409 115.164 27.0409C114.314 27.0409 113.695 26.8959 113.308 26.6058C112.941 26.3158 112.757 25.784 112.757 25.0105V19.2092ZM120.304 8.91186C120.304 8.23504 120.536 7.67424 121 7.22948C121.464 6.76537 122.044 6.53332 122.74 6.53332C123.475 6.53332 124.065 6.76537 124.51 7.22948C124.954 7.67424 125.177 8.23504 125.177 8.91186C125.177 9.55 124.954 10.1011 124.51 10.5652C124.065 11.0293 123.475 11.2614 122.74 11.2614C122.044 11.2614 121.464 11.0293 121 10.5652C120.536 10.1011 120.304 9.55 120.304 8.91186ZM120.565 19.1802H124.945V26.8089C124.751 26.8669 124.481 26.9152 124.132 26.9539C123.784 27.0119 123.398 27.0409 122.972 27.0409C122.141 27.0409 121.532 26.8959 121.145 26.6058C120.758 26.3158 120.565 25.784 120.565 25.0105V19.1802ZM124.945 21.4427H120.565V13.0598C120.758 13.0018 121.029 12.9534 121.377 12.9148C121.744 12.8567 122.131 12.8277 122.537 12.8277C123.388 12.8277 123.997 12.9728 124.364 13.2628C124.751 13.5336 124.945 14.0653 124.945 14.8582V21.4427ZM141.752 17.8169V20.5435H137.401V17.9619C137.401 17.2464 137.188 16.7243 136.763 16.3955C136.357 16.0668 135.815 15.9024 135.139 15.9024C134.674 15.9024 134.239 15.9604 133.833 16.0765C133.447 16.1925 133.089 16.3375 132.76 16.5116V20.5435H128.38V16.0185C128.38 15.535 128.486 15.1386 128.699 14.8292C128.912 14.5004 129.212 14.2007 129.598 13.93C130.217 13.5046 131.01 13.1565 131.977 12.8858C132.944 12.615 134.017 12.4797 135.197 12.4797C137.285 12.4797 138.9 12.9438 140.041 13.872C141.182 14.7808 141.752 16.0958 141.752 17.8169ZM128.38 19.2092H132.76V26.8089C132.567 26.8669 132.286 26.9152 131.919 26.9539C131.571 27.0119 131.194 27.0409 130.788 27.0409C129.956 27.0409 129.347 26.8959 128.96 26.6058C128.573 26.3158 128.38 25.784 128.38 25.0105V19.2092ZM137.401 19.2092H141.752V26.8089C141.559 26.8669 141.288 26.9152 140.94 26.9539C140.592 27.0119 140.215 27.0409 139.809 27.0409C138.958 27.0409 138.339 26.8959 137.952 26.6058C137.585 26.3158 137.401 25.784 137.401 25.0105V19.2092ZM150.865 26.2868C149.705 26.2868 148.632 26.0741 147.645 25.6486C146.679 25.2039 145.905 24.4787 145.325 23.4731C144.745 22.4482 144.455 21.1139 144.455 19.4702C144.455 17.9232 144.754 16.6373 145.354 15.6124C145.953 14.5681 146.804 13.785 147.906 13.2628C149.028 12.7407 150.314 12.4797 151.764 12.4797C152.828 12.4797 153.804 12.615 154.694 12.8858C155.603 13.1565 156.309 13.4562 156.811 13.785C157.179 14.017 157.469 14.2974 157.682 14.6261C157.894 14.9549 158.001 15.361 158.001 15.8444V24.9525H153.795V16.3665C153.563 16.2312 153.302 16.1248 153.012 16.0475C152.722 15.9508 152.364 15.9024 151.938 15.9024C151.01 15.9024 150.256 16.1925 149.676 16.7726C149.096 17.3334 148.806 18.2326 148.806 19.4702C148.806 20.8045 149.076 21.7231 149.618 22.2259C150.159 22.7286 150.836 22.98 151.648 22.98C152.286 22.98 152.809 22.8737 153.215 22.661C153.64 22.4289 154.007 22.1775 154.317 21.9068L154.462 25.3876C154.056 25.639 153.553 25.8517 152.954 26.0257C152.373 26.1997 151.677 26.2868 150.865 26.2868ZM153.853 26.6929V23.9662H158.001V26.8089C158.001 28.1432 157.682 29.2358 157.044 30.0866C156.405 30.9568 155.545 31.595 154.462 32.0011C153.379 32.4071 152.17 32.6102 150.836 32.6102C149.831 32.6102 148.931 32.5232 148.139 32.3491C147.365 32.1751 146.775 31.9527 146.369 31.682C145.692 31.2372 145.354 30.6281 145.354 29.8546C145.354 29.4485 145.441 29.0811 145.615 28.7523C145.789 28.4236 145.982 28.1819 146.195 28.0272C146.737 28.3366 147.365 28.5976 148.08 28.8103C148.796 29.0424 149.54 29.1584 150.314 29.1584C151.397 29.1584 152.257 28.9554 152.896 28.5493C153.534 28.1625 153.853 27.5437 153.853 26.6929Z" fill="#330059"/>
<defs>
<clipPath id="clip0_707_8188">
<rect width="38.6754" height="38.6754" fill="white" transform="translate(0.261719)"/>
</clipPath>
</defs>
</svg>
