<svg width="39" height="39" viewBox="0 0 39 39" fill="none" xmlns="http://www.w3.org/2000/svg">
<g clip-path="url(#clip0_707_8189)">
<path d="M18.5413 28.6924C17.9235 28.6924 17.3172 28.524 16.788 28.2053L7.54688 22.6426V26.0663C7.54688 28.3211 8.74135 30.4145 10.9103 31.9613C12.9633 33.4252 15.6733 34.2314 18.5413 34.2314C21.4091 34.2314 24.1191 33.4252 26.1721 31.9613C28.3411 30.4146 29.5356 28.3211 29.5356 26.0663V22.6426L20.2943 28.2055C19.7653 28.524 19.159 28.6924 18.5413 28.6924Z" fill="#FFD700"/>
<path fill-rule="evenodd" clip-rule="evenodd" d="M38.9369 30.9118C38.8961 31.3922 38.5612 31.777 38.1245 31.9042L38.699 32.636C39.0855 33.1282 38.9998 33.8404 38.5076 34.2269C37.9574 34.6557 37.199 34.4935 36.8212 33.9138V34.0256C36.8212 34.6513 36.3139 35.1586 35.6881 35.1586C35.0624 35.1586 34.555 34.6513 34.555 34.0256V16.9757L19.1278 26.2623C18.948 26.3706 18.7457 26.4247 18.5434 26.4247C18.3411 26.4247 18.1387 26.3706 17.959 26.2623L0.814331 15.9418C0.473807 15.7369 0.265625 15.3685 0.265625 14.9711C0.265625 14.5737 0.473807 14.2054 0.814331 14.0004L17.959 3.67989C18.3185 3.46347 18.7683 3.46347 19.1278 3.67989L36.2725 14.0004C36.6085 14.2003 36.8234 14.5801 36.8213 14.9711V29.5951L37.9038 29.687C38.5273 29.7399 38.9899 30.2883 38.9369 30.9118ZM16.6352 15.9985C16.9048 16.5494 17.2894 16.9301 17.7888 17.1407C18.4251 17.4002 19.1405 17.467 19.935 17.3411C20.5768 17.2395 21.167 17.0598 21.7057 16.8022C22.242 16.5293 22.6625 16.2669 22.9672 16.0151C23.2182 16.1163 23.4395 16.277 23.631 16.4973C23.8225 16.7176 23.9412 16.9729 23.9872 17.2632C24.0598 17.7216 23.937 18.1326 23.6187 18.4963C23.3156 18.8575 22.8553 19.1654 22.2378 19.4198C21.6355 19.6718 20.9218 19.8632 20.0967 19.9939C18.9202 20.1802 17.8232 20.1269 16.8056 19.8338C15.8034 19.5383 14.9647 18.9898 14.2896 18.1883C13.6144 17.3868 13.1703 16.3137 12.9574 14.9691C12.8025 13.9912 12.821 13.119 13.0128 12.3524C13.22 11.5835 13.547 10.9286 13.9939 10.388C14.4536 9.82959 14.9951 9.39141 15.6183 9.07343C16.2543 8.73775 16.939 8.51183 17.6724 8.39567C18.7114 8.23111 19.6609 8.29218 20.5208 8.57889C21.3806 8.86559 22.0902 9.34057 22.6495 10.0038C23.2063 10.6518 23.5586 11.4418 23.7062 12.3738C23.7837 12.8628 23.7119 13.2501 23.4908 13.5357C23.2698 13.8213 22.9273 14.0322 22.4633 14.1683L16.6352 15.9985ZM16.0588 13.7149L20.3609 12.3163C20.265 11.9086 20.0211 11.5557 19.6293 11.2575C19.2504 10.9416 18.7324 10.8357 18.0753 10.9397C17.3878 11.0486 16.8511 11.3686 16.4653 11.8996C16.1308 12.3767 15.9953 12.9818 16.0588 13.7149Z" fill="#4B0082"/>
</g>
<defs>
<clipPath id="clip0_707_8189">
<rect width="38.6754" height="38.6754" fill="white" transform="translate(0.261719)"/>
</clipPath>
</defs>
</svg>
