<svg width="160" height="39" viewBox="0 0 160 39" fill="none" xmlns="http://www.w3.org/2000/svg">
<g clip-path="url(#clip0_21_317)">
<path d="M18.2795 28.6924C17.6618 28.6924 17.0554 28.524 16.5263 28.2053L7.28516 22.6426V26.0663C7.28516 28.3211 8.47964 30.4145 10.6486 31.9613C12.7016 33.4252 15.4116 34.2314 18.2795 34.2314C21.1474 34.2314 23.8574 33.4252 25.9104 31.9613C28.0794 30.4146 29.2738 28.3211 29.2738 26.0663V22.6426L20.0325 28.2055C19.5036 28.524 18.8973 28.6924 18.2795 28.6924Z" fill="white"/>
<path fill-rule="evenodd" clip-rule="evenodd" d="M38.6752 30.9118C38.6344 31.3922 38.2995 31.777 37.8628 31.9042L38.4373 32.636C38.8238 33.1282 38.738 33.8404 38.2458 34.2269C37.6957 34.6557 36.9373 34.4935 36.5595 33.9138V34.0256C36.5595 34.6513 36.0522 35.1586 35.4264 35.1586C34.8006 35.1586 34.2933 34.6513 34.2933 34.0256V16.9757L18.866 26.2623C18.6863 26.3706 18.484 26.4247 18.2817 26.4247C18.0794 26.4247 17.877 26.3706 17.6973 26.2623L0.552612 15.9418C0.212088 15.7369 0.00390625 15.3685 0.00390625 14.9711C0.00390625 14.5737 0.212088 14.2054 0.552612 14.0004L17.6973 3.67989C18.0568 3.46347 18.5066 3.46347 18.866 3.67989L36.0108 14.0004C36.3467 14.2003 36.5616 14.5801 36.5595 14.9711V29.5951L37.6421 29.687C38.2656 29.7399 38.7281 30.2883 38.6752 30.9118ZM16.3727 15.9987C16.6424 16.5496 17.0269 16.9303 17.5263 17.1409C18.1626 17.4004 18.878 17.4672 19.6726 17.3414C20.3143 17.2397 20.9046 17.0601 21.4433 16.8025C21.9796 16.5296 22.4001 16.2672 22.7048 16.0153C22.9558 16.1165 23.177 16.2773 23.3685 16.4975C23.5601 16.7178 23.6788 16.9731 23.7248 17.2634C23.7974 17.7218 23.6745 18.1329 23.3562 18.4965C23.0532 18.8578 22.5929 19.1656 21.9754 19.4201C21.3731 19.6721 20.6594 19.8634 19.8343 19.9941C18.6578 20.1805 17.5607 20.1271 16.5432 19.834C15.541 19.5386 14.7023 18.99 14.0271 18.1885C13.352 17.387 12.9079 16.3139 12.6949 14.9693C12.5401 13.9914 12.5585 13.1192 12.7504 12.3527C12.9575 11.5837 13.2845 10.9289 13.7314 10.3882C14.1912 9.82983 14.7327 9.39165 15.3558 9.07368C15.9918 8.738 16.6765 8.51208 17.41 8.39591C18.449 8.23135 19.3984 8.29242 20.2583 8.57913C21.1182 8.86584 21.8278 9.34081 22.3871 10.0041C22.9439 10.652 23.2961 11.442 23.4438 12.3741C23.5212 12.863 23.4494 13.2503 23.2284 13.5359C23.0074 13.8216 22.6648 14.0324 22.2008 14.1686L16.3727 15.9987ZM15.7963 13.7151L20.0984 12.3166C20.0025 11.9089 19.7587 11.5559 19.3669 11.2577C18.9879 10.9418 18.4699 10.8359 17.8129 10.94C17.1253 11.0489 16.5886 11.3688 16.2028 11.8998C15.8684 12.3769 15.7329 12.982 15.7963 13.7151Z" fill="white"/>
</g>
<path d="M46.603 14.5681H51.099V26.6639L49.0105 26.8959C48.2757 26.8959 47.6859 26.6832 47.2411 26.2578C46.8157 25.8323 46.603 25.2522 46.603 24.5174V14.5681ZM49.0105 26.8959V23.2701H58.1186C58.2346 23.4441 58.341 23.6858 58.4377 23.9953C58.5537 24.3047 58.6117 24.6431 58.6117 25.0105C58.6117 25.6486 58.4667 26.1224 58.1766 26.4318C57.9059 26.7412 57.5288 26.8959 57.0453 26.8959H49.0105ZM51.099 20.1954H46.603V9.20192C46.8157 9.16325 47.1154 9.1149 47.5022 9.05689C47.9083 8.99888 48.3047 8.96987 48.6915 8.96987C49.5423 8.96987 50.1515 9.1149 50.5189 9.40497C50.9056 9.69503 51.099 10.2558 51.099 11.0873V20.1954ZM62.7886 21.9068L62.6146 18.9771L69.7502 17.8459C69.7115 17.3237 69.4795 16.8403 69.054 16.3955C68.648 15.9314 68.0291 15.6994 67.1976 15.6994C66.3274 15.6994 65.6023 15.9894 65.0221 16.5696C64.4613 17.1497 64.1713 17.9716 64.1519 19.0351L64.297 21.0946C64.471 22.1195 64.9158 22.8543 65.6313 23.2991C66.3661 23.7439 67.2363 23.9662 68.2419 23.9662C69.054 23.9662 69.8179 23.8599 70.5334 23.6472C71.2489 23.4151 71.8193 23.1734 72.2448 22.922C72.5348 23.096 72.7765 23.3378 72.9699 23.6472C73.1633 23.9566 73.26 24.295 73.26 24.6624C73.26 25.2425 73.0279 25.726 72.5638 26.1127C72.1191 26.4995 71.4906 26.7895 70.6784 26.9829C69.8856 27.1763 68.967 27.273 67.9228 27.273C66.4338 27.273 65.0898 26.9926 63.8909 26.4318C62.7113 25.871 61.7831 25.0298 61.1063 23.9082C60.4294 22.7866 60.091 21.375 60.091 19.6733C60.091 18.4357 60.2844 17.3624 60.6712 16.4536C61.0772 15.5447 61.609 14.8002 62.2665 14.2201C62.9433 13.6206 63.6975 13.1855 64.529 12.9148C65.3799 12.6247 66.2694 12.4797 67.1976 12.4797C68.5126 12.4797 69.6728 12.7407 70.6784 13.2628C71.684 13.785 72.4671 14.5101 73.0279 15.4383C73.5887 16.3472 73.8691 17.3914 73.8691 18.571C73.8691 19.1898 73.7048 19.6539 73.376 19.9633C73.0473 20.2727 72.5832 20.4661 71.9837 20.5435L62.7886 21.9068ZM82.2511 27.302C80.2593 27.302 78.6736 26.9152 77.494 26.1417C76.3144 25.3682 75.7246 24.2176 75.7246 22.69C75.7246 21.375 76.1307 20.3694 76.9429 19.6733C77.7551 18.9578 78.9637 18.513 80.5687 18.339L84.4556 17.9329V17.6138C84.4556 16.9563 84.1945 16.4826 83.6724 16.1925C83.1696 15.9024 82.4445 15.7574 81.4969 15.7574C80.7621 15.7574 80.0369 15.8444 79.3214 16.0185C78.6253 16.1925 77.9968 16.4052 77.436 16.6566C77.204 16.4826 77.0009 16.2408 76.8269 15.9314C76.6722 15.6027 76.5948 15.2643 76.5948 14.9162C76.5948 14.0847 77.0396 13.4852 77.9291 13.1178C78.4899 12.9051 79.1377 12.7504 79.8726 12.6537C80.6267 12.5377 81.3519 12.4797 82.0481 12.4797C84.0592 12.4797 85.6642 12.8954 86.8631 13.7269C88.0814 14.5585 88.6906 15.8638 88.6906 17.6428V24.2273C88.6906 24.7107 88.5649 25.1072 88.3135 25.4166C88.0621 25.7066 87.743 25.958 87.3563 26.1707C86.7761 26.5188 86.051 26.7895 85.1808 26.9829C84.3299 27.1956 83.3534 27.302 82.2511 27.302ZM82.2511 24.0533C82.6765 24.0533 83.102 24.0146 83.5274 23.9372C83.9528 23.8405 84.2719 23.7245 84.4846 23.5892V20.8625L82.0481 21.0946C81.4099 21.1333 80.8975 21.2686 80.5107 21.5007C80.1433 21.7327 79.9596 22.0808 79.9596 22.5449C79.9596 22.9897 80.1336 23.3571 80.4817 23.6472C80.8491 23.9179 81.4389 24.0533 82.2511 24.0533ZM96.3535 16.6856V20.2534H91.9735V16.1345C91.9735 15.593 92.1089 15.1386 92.3796 14.7712C92.6503 14.3844 93.0177 14.0363 93.4818 13.7269C94.12 13.3402 94.8838 13.0405 95.7734 12.8277C96.6822 12.5957 97.6298 12.4797 98.616 12.4797C100.608 12.4797 101.604 13.1468 101.604 14.4811C101.604 14.8099 101.555 15.1096 101.459 15.3803C101.381 15.651 101.275 15.8831 101.14 16.0765C100.946 16.0378 100.704 16.0088 100.414 15.9894C100.144 15.9508 99.8536 15.9314 99.5442 15.9314C98.9641 15.9314 98.3839 15.9991 97.8038 16.1345C97.243 16.2698 96.7596 16.4536 96.3535 16.6856ZM91.9735 19.1802L96.3535 19.2672V26.8089C96.1601 26.8669 95.8797 26.9152 95.5123 26.9539C95.1642 27.0119 94.7871 27.0409 94.381 27.0409C93.5495 27.0409 92.9404 26.8959 92.5536 26.6058C92.1669 26.3158 91.9735 25.784 91.9735 25.0105V19.1802ZM116.846 17.8169V20.5435H112.495V17.9619C112.495 17.2464 112.282 16.7243 111.857 16.3955C111.451 16.0668 110.909 15.9024 110.233 15.9024C109.769 15.9024 109.333 15.9604 108.927 16.0765C108.541 16.1925 108.183 16.3375 107.854 16.5116V20.5435H103.474V16.0185C103.474 15.535 103.58 15.1386 103.793 14.8292C104.006 14.5004 104.306 14.2007 104.692 13.93C105.311 13.5046 106.104 13.1565 107.071 12.8858C108.038 12.615 109.111 12.4797 110.291 12.4797C112.379 12.4797 113.994 12.9438 115.135 13.872C116.276 14.7808 116.846 16.0958 116.846 17.8169ZM103.474 19.2092H107.854V26.8089C107.661 26.8669 107.38 26.9152 107.013 26.9539C106.665 27.0119 106.288 27.0409 105.882 27.0409C105.05 27.0409 104.441 26.8959 104.054 26.6058C103.668 26.3158 103.474 25.784 103.474 25.0105V19.2092ZM112.495 19.2092H116.846V26.8089C116.653 26.8669 116.382 26.9152 116.034 26.9539C115.686 27.0119 115.309 27.0409 114.903 27.0409C114.052 27.0409 113.433 26.8959 113.046 26.6058C112.679 26.3158 112.495 25.784 112.495 25.0105V19.2092ZM120.042 8.91186C120.042 8.23504 120.274 7.67424 120.738 7.22948C121.202 6.76537 121.782 6.53332 122.478 6.53332C123.213 6.53332 123.803 6.76537 124.248 7.22948C124.693 7.67424 124.915 8.23504 124.915 8.91186C124.915 9.55 124.693 10.1011 124.248 10.5652C123.803 11.0293 123.213 11.2614 122.478 11.2614C121.782 11.2614 121.202 11.0293 120.738 10.5652C120.274 10.1011 120.042 9.55 120.042 8.91186ZM120.303 19.1802H124.683V26.8089C124.49 26.8669 124.219 26.9152 123.871 26.9539C123.523 27.0119 123.136 27.0409 122.71 27.0409C121.879 27.0409 121.27 26.8959 120.883 26.6058C120.496 26.3158 120.303 25.784 120.303 25.0105V19.1802ZM124.683 21.4427H120.303V13.0598C120.496 13.0018 120.767 12.9534 121.115 12.9148C121.483 12.8567 121.869 12.8277 122.275 12.8277C123.126 12.8277 123.735 12.9728 124.103 13.2628C124.49 13.5336 124.683 14.0653 124.683 14.8582V21.4427ZM141.49 17.8169V20.5435H137.139V17.9619C137.139 17.2464 136.927 16.7243 136.501 16.3955C136.095 16.0668 135.554 15.9024 134.877 15.9024C134.413 15.9024 133.978 15.9604 133.572 16.0765C133.185 16.1925 132.827 16.3375 132.498 16.5116V20.5435H128.118V16.0185C128.118 15.535 128.225 15.1386 128.437 14.8292C128.65 14.5004 128.95 14.2007 129.337 13.93C129.955 13.5046 130.748 13.1565 131.715 12.8858C132.682 12.615 133.755 12.4797 134.935 12.4797C137.023 12.4797 138.638 12.9438 139.779 13.872C140.92 14.7808 141.49 16.0958 141.49 17.8169ZM128.118 19.2092H132.498V26.8089C132.305 26.8669 132.025 26.9152 131.657 26.9539C131.309 27.0119 130.932 27.0409 130.526 27.0409C129.694 27.0409 129.085 26.8959 128.698 26.6058C128.312 26.3158 128.118 25.784 128.118 25.0105V19.2092ZM137.139 19.2092H141.49V26.8089C141.297 26.8669 141.026 26.9152 140.678 26.9539C140.33 27.0119 139.953 27.0409 139.547 27.0409C138.696 27.0409 138.077 26.8959 137.691 26.6058C137.323 26.3158 137.139 25.784 137.139 25.0105V19.2092ZM150.603 26.2868C149.443 26.2868 148.37 26.0741 147.384 25.6486C146.417 25.2039 145.643 24.4787 145.063 23.4731C144.483 22.4482 144.193 21.1139 144.193 19.4702C144.193 17.9232 144.493 16.6373 145.092 15.6124C145.692 14.5681 146.542 13.785 147.645 13.2628C148.766 12.7407 150.052 12.4797 151.503 12.4797C152.566 12.4797 153.543 12.615 154.432 12.8858C155.341 13.1565 156.047 13.4562 156.55 13.785C156.917 14.017 157.207 14.2974 157.42 14.6261C157.633 14.9549 157.739 15.361 157.739 15.8444V24.9525H153.533V16.3665C153.301 16.2312 153.04 16.1248 152.75 16.0475C152.46 15.9508 152.102 15.9024 151.677 15.9024C150.748 15.9024 149.994 16.1925 149.414 16.7726C148.834 17.3334 148.544 18.2326 148.544 19.4702C148.544 20.8045 148.815 21.7231 149.356 22.2259C149.898 22.7286 150.574 22.98 151.387 22.98C152.025 22.98 152.547 22.8737 152.953 22.661C153.378 22.4289 153.746 22.1775 154.055 21.9068L154.2 25.3876C153.794 25.639 153.291 25.8517 152.692 26.0257C152.112 26.1997 151.416 26.2868 150.603 26.2868ZM153.591 26.6929V23.9662H157.739V26.8089C157.739 28.1432 157.42 29.2358 156.782 30.0866C156.144 30.9568 155.283 31.595 154.2 32.0011C153.117 32.4071 151.909 32.6102 150.574 32.6102C149.569 32.6102 148.67 32.5232 147.877 32.3491C147.103 32.1751 146.513 31.9527 146.107 31.682C145.431 31.2372 145.092 30.6281 145.092 29.8546C145.092 29.4485 145.179 29.0811 145.353 28.7523C145.527 28.4236 145.721 28.1819 145.933 28.0272C146.475 28.3366 147.103 28.5976 147.819 28.8103C148.534 29.0424 149.279 29.1584 150.052 29.1584C151.135 29.1584 151.996 28.9554 152.634 28.5493C153.272 28.1625 153.591 27.5437 153.591 26.6929Z" fill="white"/>
<defs>
<clipPath id="clip0_21_317">
<rect width="38.6754" height="38.6754" fill="white"/>
</clipPath>
</defs>
</svg>
