<svg width="30" height="30" viewBox="0 0 30 30" fill="none" xmlns="http://www.w3.org/2000/svg">
<path d="M10 23.75C14.8325 23.75 18.75 19.8325 18.75 15C18.75 10.1675 14.8325 6.25 10 6.25C5.16751 6.25 1.25 10.1675 1.25 15C1.25 19.8325 5.16751 23.75 10 23.75Z" fill="#F93232"/>
<path d="M20.5 6.25C18.5347 6.25 16.727 6.90625 15.2675 8H15.25V8.01225C14.9035 8.273 14.585 8.567 14.2814 8.875H16.2186C16.4881 9.14887 16.7366 9.442 16.9668 9.75H13.5262C13.3145 10.0291 13.1202 10.3205 12.9426 10.625H17.5486C17.7131 10.9085 17.868 11.1972 18.0019 11.5H12.4973C12.3721 11.7844 12.2619 12.0757 12.1674 12.375H18.3309C18.4219 12.6603 18.4936 12.9534 18.5566 13.25H11.939C11.8804 13.537 11.8314 13.8275 11.8016 14.125H18.6975C18.7316 14.412 18.75 14.7034 18.75 15H11.75C11.75 15.2966 11.7736 15.5863 11.8025 15.875H18.6992C18.666 16.1716 18.6179 16.463 18.5575 16.75H11.9399C12.0003 17.0484 12.0781 17.3389 12.1682 17.625H18.3317C18.2372 17.9242 18.127 18.2156 18.0019 18.5H12.4973C12.6294 18.801 12.7781 19.0933 12.9426 19.375H17.5486C17.3719 19.6795 17.175 19.9709 16.9633 20.25H13.5262C13.759 20.558 14.0101 20.8511 14.2805 21.125H16.2186C15.9141 21.4339 15.5965 21.727 15.25 21.9878C16.713 23.0894 18.5269 23.75 20.5 23.75C25.3326 23.75 29.25 19.8317 29.25 15C29.25 10.1683 25.3326 6.25 20.5 6.25Z" fill="#FED049"/>
</svg>
