<svg width="24" height="24" viewBox="0 0 24 24" fill="none" xmlns="http://www.w3.org/2000/svg">
<path fill-rule="evenodd" clip-rule="evenodd" d="M3 6.00001C3 5.44772 3.44772 5 4.00001 5H20C20.5523 5 21 5.44772 21 6.00001C21 6.5523 20.5523 6.99999 20 6.99999H4.00001C3.44772 6.99999 3 6.5523 3 6.00001ZM3 12C3 11.4477 3.44772 11 4.00001 11H20C20.5523 11 21 11.4477 21 12C21 12.5523 20.5523 13 20 13H4.00001C3.44772 13 3 12.5523 3 12ZM3 18C3 17.4477 3.44772 17 4.00001 17H20C20.5523 17 21 17.4477 21 18C21 18.5523 20.5523 19 20 19H4.00001C3.44772 19 3 18.5523 3 18Z" fill="#6D7F89"/>
</svg>
