<svg width="24" height="24" viewBox="0 0 24 24" fill="none" xmlns="http://www.w3.org/2000/svg">
<path d="M20.0027 20.8049C19.8555 20.9387 19.6612 21.0085 19.4625 20.999C19.2638 20.9895 19.0771 20.9015 18.9433 20.7543L16.4627 18.0262C15.3771 18.8316 14.0934 19.3277 12.7483 19.4615V21.7499C12.7483 21.9488 12.6693 22.1396 12.5286 22.2802C12.388 22.4209 12.1972 22.4999 11.9983 22.4999C11.7994 22.4999 11.6086 22.4209 11.468 22.2802C11.3273 22.1396 11.2483 21.9488 11.2483 21.7499V19.4624C9.39915 19.2743 7.68552 18.4071 6.43872 17.0287C5.19192 15.6503 4.50052 13.8585 4.49824 11.9999C4.49824 11.801 4.57726 11.6102 4.71791 11.4696C4.85856 11.3289 5.04933 11.2499 5.24824 11.2499C5.44715 11.2499 5.63792 11.3289 5.77857 11.4696C5.91922 11.6102 5.99824 11.801 5.99824 11.9999C5.99839 13.0983 6.30003 14.1755 6.87029 15.1142C7.44056 16.053 8.25755 16.8171 9.23223 17.3235C10.207 17.8298 11.3019 18.0589 12.3979 17.9858C13.4938 17.9126 14.5486 17.5401 15.4474 16.9087L14.4274 15.7837C13.7477 16.2195 12.9634 16.4644 12.1566 16.4928C11.3498 16.5212 10.5501 16.332 9.84153 15.9451C9.13296 15.5582 8.54154 14.9877 8.12926 14.2936C7.71697 13.5995 7.49902 12.8072 7.49824 11.9999V8.1646L3.94324 4.25429C3.87561 4.18165 3.82308 4.0963 3.78868 4.00321C3.75428 3.91011 3.7387 3.81111 3.74284 3.71195C3.74699 3.61279 3.77077 3.51544 3.81282 3.42554C3.85486 3.33563 3.91433 3.25497 3.98778 3.18822C4.06123 3.12147 4.1472 3.06996 4.2407 3.03668C4.3342 3.0034 4.43338 2.98901 4.53248 2.99434C4.63159 2.99968 4.72865 3.02462 4.81804 3.06774C4.90743 3.11086 4.98737 3.1713 5.05324 3.24554L20.0533 19.7455C20.187 19.8927 20.2569 20.087 20.2474 20.2857C20.2379 20.4844 20.1498 20.6711 20.0027 20.8049ZM15.1933 12.1696C15.2951 12.2816 15.4284 12.3602 15.5758 12.395C15.7231 12.4299 15.8775 12.4193 16.0187 12.3647C16.1599 12.3101 16.2812 12.2141 16.3668 12.0893C16.4525 11.9644 16.4983 11.8166 16.4983 11.6652V5.99992C16.4983 5.02073 16.1789 4.06827 15.5885 3.28704C14.9982 2.50582 14.1692 1.93846 13.2272 1.67105C12.2852 1.40365 11.2817 1.45078 10.369 1.80531C9.45619 2.15984 8.68399 2.80242 8.16949 3.63554C8.08325 3.77364 8.04429 3.93605 8.0585 4.09824C8.0727 4.26043 8.1393 4.4136 8.24824 4.5346L15.1933 12.1696ZM18.0152 15.1537C18.1069 15.1894 18.2049 15.2068 18.3034 15.2047C18.4018 15.2026 18.499 15.1812 18.5891 15.1416C18.6793 15.102 18.7608 15.045 18.829 14.9739C18.8972 14.9027 18.9507 14.8189 18.9864 14.7271C19.326 13.858 19.4996 12.933 19.4983 11.9999C19.4983 11.801 19.4193 11.6102 19.2786 11.4696C19.138 11.3289 18.9472 11.2499 18.7483 11.2499C18.5494 11.2499 18.3586 11.3289 18.218 11.4696C18.0773 11.6102 17.9983 11.801 17.9983 11.9999C17.9995 12.7463 17.8609 13.4862 17.5895 14.1815C17.5536 14.2733 17.5361 14.3712 17.538 14.4698C17.54 14.5683 17.5612 14.6655 17.6007 14.7558C17.6403 14.8461 17.6973 14.9277 17.7684 14.996C17.8395 15.0642 17.9233 15.1178 18.0152 15.1537Z" fill="white"/>
</svg>
