<svg width="18" height="18" viewBox="0 0 18 18" fill="none" xmlns="http://www.w3.org/2000/svg">
<g clip-path="url(#clip0_1091_2261)">
<path d="M5.90625 11.25C7.92554 11.25 9.5625 9.61304 9.5625 7.59375C9.5625 5.57446 7.92554 3.9375 5.90625 3.9375C3.88696 3.9375 2.25 5.57446 2.25 7.59375C2.25 9.61304 3.88696 11.25 5.90625 11.25Z" stroke="#6D7F89" stroke-width="1.4" stroke-linecap="round" stroke-linejoin="round"/>
<path d="M0.71875 14.062C1.28061 13.1981 2.04934 12.4883 2.95515 11.9968C3.86097 11.5054 4.87518 11.248 5.9057 11.248C6.93623 11.248 7.95044 11.5054 8.85625 11.9968C9.76206 12.4883 10.5308 13.1981 11.0927 14.062" stroke="#6D7F89" stroke-width="1.4" stroke-linecap="round" stroke-linejoin="round"/>
<path d="M12.0938 11.25C13.1242 11.2494 14.1385 11.5064 15.0444 11.9976C15.9503 12.4888 16.719 13.1986 17.2807 14.0625" stroke="#6D7F89" stroke-width="1.4" stroke-linecap="round" stroke-linejoin="round"/>
<path d="M10.7344 4.19766C11.2345 3.99818 11.7725 3.91163 12.31 3.94419C12.8475 3.97676 13.3711 4.12764 13.8435 4.38605C14.3159 4.64445 14.7254 5.00401 15.0428 5.43903C15.3601 5.87405 15.5774 6.37379 15.6792 6.90253C15.781 7.43128 15.7648 7.97599 15.6316 8.49773C15.4985 9.01947 15.2518 9.50536 14.9091 9.92069C14.5664 10.336 14.1362 10.6705 13.6492 10.9003C13.1623 11.1301 12.6306 11.2495 12.0921 11.25" stroke="#6D7F89" stroke-width="1.4" stroke-linecap="round" stroke-linejoin="round"/>
</g>
<defs>
<clipPath id="clip0_1091_2261">
<rect width="18" height="18" fill="white"/>
</clipPath>
</defs>
</svg>
