<svg width="24" height="25" viewBox="0 0 24 25" fill="none" xmlns="http://www.w3.org/2000/svg">
<path d="M11.9976 8.17534C11.1076 8.17534 10.2376 8.43926 9.49754 8.93372C8.75751 9.42819 8.18074 10.131 7.84014 10.9533C7.49955 11.7755 7.41044 12.6803 7.58407 13.5532C7.7577 14.4262 8.18629 15.228 8.81562 15.8573C9.44496 16.4867 10.2468 16.9152 11.1197 17.0889C11.9926 17.2625 12.8974 17.1734 13.7197 16.8328C14.5419 16.4922 15.2447 15.9154 15.7392 15.1754C16.2337 14.4354 16.4976 13.5654 16.4976 12.6753C16.4964 11.4822 16.0219 10.3384 15.1782 9.49473C14.3346 8.65108 13.1907 8.17658 11.9976 8.17534ZM11.9976 15.6753C11.4043 15.6753 10.8242 15.4994 10.3309 15.1697C9.83754 14.8401 9.45303 14.3716 9.22596 13.8234C8.9989 13.2752 8.93949 12.672 9.05525 12.0901C9.171 11.5081 9.45672 10.9736 9.87628 10.554C10.2958 10.1345 10.8304 9.84874 11.4123 9.73298C11.9943 9.61722 12.5975 9.67663 13.1457 9.9037C13.6938 10.1308 14.1624 10.5153 14.492 11.0086C14.8217 11.502 14.9976 12.082 14.9976 12.6753C14.9976 13.471 14.6815 14.234 14.1189 14.7967C13.5563 15.3593 12.7933 15.6753 11.9976 15.6753ZM20.2476 12.8778C20.2514 12.7428 20.2514 12.6078 20.2476 12.4728L21.6464 10.7253C21.7197 10.6336 21.7705 10.5259 21.7946 10.4109C21.8187 10.296 21.8154 10.1769 21.7851 10.0635C21.5558 9.20153 21.2128 8.37395 20.7651 7.60252C20.7065 7.50157 20.6251 7.4157 20.5275 7.35173C20.4298 7.28777 20.3186 7.24749 20.2026 7.23409L17.9789 6.98659C17.8864 6.88909 17.7926 6.79534 17.6976 6.70534L17.4351 4.47596C17.4216 4.35991 17.3812 4.24862 17.317 4.15096C17.2529 4.0533 17.1669 3.97197 17.0657 3.91346C16.294 3.4666 15.4665 3.12393 14.6048 2.8944C14.4912 2.86421 14.3722 2.86112 14.2572 2.88538C14.1422 2.90965 14.0346 2.96058 13.9429 3.03409L12.2001 4.42534C12.0651 4.42534 11.9301 4.42534 11.7951 4.42534L10.0476 3.0294C9.95585 2.95606 9.84815 2.90529 9.73319 2.88119C9.61823 2.85709 9.49921 2.86033 9.38573 2.89065C8.52393 3.12036 7.6964 3.46335 6.92479 3.91065C6.82384 3.96927 6.73796 4.05064 6.674 4.14829C6.61004 4.24595 6.56975 4.35718 6.55635 4.47315L6.30885 6.70065C6.21135 6.79377 6.1176 6.88752 6.0276 6.9819L3.79823 7.23784C3.68218 7.25134 3.57088 7.29176 3.47322 7.3559C3.37556 7.42002 3.29424 7.50608 3.23573 7.60721C2.78886 8.37893 2.4462 9.20644 2.21666 10.0681C2.18647 10.1817 2.18339 10.3008 2.20765 10.4157C2.23191 10.5307 2.28285 10.6384 2.35635 10.73L3.7476 12.4728C3.7476 12.6078 3.7476 12.7428 3.7476 12.8778L2.35166 14.6253C2.27832 14.7171 2.22756 14.8248 2.20346 14.9397C2.17936 15.0547 2.1826 15.1737 2.21291 15.2872C2.44222 16.1491 2.78523 16.9767 3.23291 17.7481C3.29153 17.8491 3.37291 17.935 3.47056 17.9989C3.56821 18.0629 3.67945 18.1032 3.79541 18.1166L6.01916 18.3641C6.11229 18.4616 6.20604 18.5553 6.30041 18.6453L6.5601 20.8747C6.5736 20.9908 6.61403 21.1021 6.67816 21.1997C6.74229 21.2974 6.82835 21.3787 6.92948 21.4372C7.70119 21.8841 8.5287 22.2267 9.39041 22.4563C9.50397 22.4865 9.62303 22.4896 9.73799 22.4653C9.85296 22.441 9.96062 22.3901 10.0523 22.3166L11.7951 20.9253C11.9301 20.9291 12.0651 20.9291 12.2001 20.9253L13.9476 22.3241C14.0394 22.3974 14.147 22.4482 14.262 22.4723C14.377 22.4964 14.496 22.4932 14.6095 22.4628C15.4714 22.2335 16.299 21.8905 17.0704 21.4428C17.1714 21.3842 17.2572 21.3028 17.3212 21.2052C17.3852 21.1075 17.4255 20.9963 17.4389 20.8803L17.6864 18.6566C17.7839 18.5641 17.8776 18.4703 17.9676 18.3753L20.197 18.1128C20.313 18.0993 20.4243 18.0589 20.522 17.9948C20.6196 17.9306 20.701 17.8446 20.7595 17.7435C21.2063 16.9717 21.549 16.1442 21.7785 15.2825C21.8087 15.169 21.8118 15.0499 21.7876 14.9349C21.7633 14.82 21.7124 14.7123 21.6389 14.6206L20.2476 12.8778ZM18.7382 12.2685C18.7542 12.5395 18.7542 12.8112 18.7382 13.0822C18.7271 13.2678 18.7852 13.4508 18.9014 13.596L20.2317 15.2582C20.079 15.7433 19.8836 16.2139 19.6476 16.6644L17.5289 16.9044C17.3443 16.9249 17.174 17.0131 17.0507 17.1519C16.8703 17.3549 16.6781 17.5471 16.4751 17.7275C16.3363 17.8508 16.2481 18.0211 16.2276 18.2057L15.9923 20.3225C15.5418 20.5586 15.0712 20.7541 14.586 20.9066L12.9229 19.5763C12.7898 19.4699 12.6245 19.4121 12.4542 19.4122H12.4092C12.1381 19.4282 11.8664 19.4282 11.5954 19.4122C11.4099 19.401 11.2268 19.4592 11.0817 19.5753L9.41479 20.9066C8.92966 20.7539 8.45906 20.5585 8.00854 20.3225L7.76854 18.2066C7.74806 18.0221 7.65987 17.8517 7.52104 17.7285C7.31808 17.548 7.12587 17.3558 6.94541 17.1528C6.82216 17.014 6.6518 16.9258 6.46729 16.9053L4.35041 16.6691C4.11434 16.2186 3.91888 15.748 3.76635 15.2628L5.09666 13.5997C5.21283 13.4546 5.27096 13.2715 5.25979 13.086C5.24385 12.8149 5.24385 12.5432 5.25979 12.2722C5.27096 12.0867 5.21283 11.9036 5.09666 11.7585L3.76635 10.0925C3.919 9.6074 4.11446 9.1368 4.35041 8.68627L6.46635 8.44627C6.65087 8.42579 6.82123 8.33761 6.94448 8.19877C7.12494 7.99581 7.31714 7.80361 7.5201 7.62315C7.65949 7.49982 7.74804 7.32907 7.76854 7.14409L8.00385 5.02815C8.45432 4.79208 8.92493 4.59662 9.4101 4.44409L11.0732 5.7744C11.2183 5.89056 11.4014 5.94869 11.587 5.93752C11.858 5.92159 12.1297 5.92159 12.4007 5.93752C12.5863 5.94869 12.7694 5.89056 12.9145 5.7744L14.5804 4.44409C15.0655 4.59673 15.5361 4.79219 15.9867 5.02815L16.2267 7.14409C16.2471 7.3286 16.3353 7.49896 16.4742 7.62221C16.6771 7.80267 16.8693 7.99488 17.0498 8.19784C17.173 8.33667 17.3434 8.42485 17.5279 8.44534L19.6448 8.68065C19.8809 9.13112 20.0763 9.60173 20.2289 10.0869L18.8985 11.75C18.7813 11.8964 18.7231 12.0813 18.7354 12.2685H18.7382Z" fill="#6D7F89"/>
</svg>
