<svg width="24" height="25" viewBox="0 0 24 25" fill="none" xmlns="http://www.w3.org/2000/svg">
<path d="M20.5153 10.4046L13.0153 3.32833C13.0116 3.32513 13.0082 3.32168 13.005 3.31801C12.7289 3.06689 12.369 2.92773 11.9958 2.92773C11.6225 2.92773 11.2627 3.06689 10.9866 3.31801L10.9763 3.32833L3.48469 10.4046C3.33187 10.5451 3.20989 10.7158 3.12646 10.9059C3.04303 11.096 2.99997 11.3014 3 11.509V20.1761C3 20.574 3.15804 20.9555 3.43934 21.2368C3.72064 21.5181 4.10218 21.6761 4.5 21.6761H9C9.39782 21.6761 9.77936 21.5181 10.0607 21.2368C10.342 20.9555 10.5 20.574 10.5 20.1761V15.6761H13.5V20.1761C13.5 20.574 13.658 20.9555 13.9393 21.2368C14.2206 21.5181 14.6022 21.6761 15 21.6761H19.5C19.8978 21.6761 20.2794 21.5181 20.5607 21.2368C20.842 20.9555 21 20.574 21 20.1761V11.509C21 11.3014 20.957 11.096 20.8735 10.9059C20.7901 10.7158 20.6681 10.5451 20.5153 10.4046ZM19.5 20.1761H15V15.6761C15 15.2783 14.842 14.8968 14.5607 14.6155C14.2794 14.3342 13.8978 14.1761 13.5 14.1761H10.5C10.1022 14.1761 9.72064 14.3342 9.43934 14.6155C9.15804 14.8968 9 15.2783 9 15.6761V20.1761H4.5V11.509L4.51031 11.4996L12 4.42614L19.4906 11.4977L19.5009 11.5071L19.5 20.1761Z" fill="#6D7F89"/>
</svg>
