<svg width="24" height="25" viewBox="0 0 24 25" fill="none" xmlns="http://www.w3.org/2000/svg">
<path d="M23.6023 9.01378L12.3523 3.01378C12.2438 2.956 12.1227 2.92578 11.9998 2.92578C11.8768 2.92578 11.7558 2.956 11.6473 3.01378L0.397266 9.01378C0.27727 9.07773 0.176916 9.1731 0.106941 9.28968C0.036965 9.40627 0 9.53968 0 9.67566C0 9.81163 0.036965 9.94504 0.106941 10.0616C0.176916 10.1782 0.27727 10.2736 0.397266 10.3375L2.99977 11.726V16.2653C2.99899 16.6337 3.13457 16.9894 3.38039 17.2638C4.60852 18.6316 7.36008 20.9257 11.9998 20.9257C13.5382 20.9384 15.065 20.6597 16.4998 20.1044V23.1757C16.4998 23.3746 16.5788 23.5653 16.7194 23.706C16.8601 23.8466 17.0509 23.9257 17.2498 23.9257C17.4487 23.9257 17.6394 23.8466 17.7801 23.706C17.9207 23.5653 17.9998 23.3746 17.9998 23.1757V19.3797C18.9778 18.8151 19.8616 18.1012 20.6191 17.2638C20.865 16.9894 21.0005 16.6337 20.9998 16.2653V11.726L23.6023 10.3375C23.7223 10.2736 23.8226 10.1782 23.8926 10.0616C23.9626 9.94504 23.9995 9.81163 23.9995 9.67566C23.9995 9.53968 23.9626 9.40627 23.8926 9.28968C23.8226 9.1731 23.7223 9.07773 23.6023 9.01378ZM11.9998 19.4257C7.9432 19.4257 5.55727 17.4438 4.49977 16.2653V12.5257L11.6473 16.3375C11.7558 16.3953 11.8768 16.4255 11.9998 16.4255C12.1227 16.4255 12.2438 16.3953 12.3523 16.3375L16.4998 14.126V18.4703C15.3185 19.0216 13.8298 19.4257 11.9998 19.4257ZM19.4998 16.2616C19.0502 16.7605 18.5472 17.2085 17.9998 17.5975V13.3253L19.4998 12.5257V16.2616ZM17.6248 11.8263L17.6041 11.8141L12.3541 9.01378C12.179 8.92431 11.9757 8.90724 11.7881 8.96622C11.6004 9.02521 11.4435 9.15555 11.351 9.32915C11.2586 9.50275 11.238 9.70572 11.2938 9.89434C11.3495 10.083 11.4771 10.2421 11.6491 10.3375L16.031 12.6757L11.9998 14.8253L2.34352 9.67566L11.9998 4.52597L21.656 9.67566L17.6248 11.8263Z" fill="#6D7F89"/>
</svg>
