<svg width="24" height="25" viewBox="0 0 24 25" fill="none" xmlns="http://www.w3.org/2000/svg">
<path d="M21 5.17578H15C14.4178 5.17578 13.8437 5.31133 13.3229 5.57168C12.8022 5.83203 12.3493 6.21005 12 6.67578C11.6507 6.21005 11.1978 5.83203 10.6771 5.57168C10.1563 5.31133 9.58217 5.17578 9 5.17578H3C2.60218 5.17578 2.22064 5.33382 1.93934 5.61512C1.65804 5.89643 1.5 6.27796 1.5 6.67578V18.6758C1.5 19.0736 1.65804 19.4551 1.93934 19.7364C2.22064 20.0177 2.60218 20.1758 3 20.1758H9C9.59674 20.1758 10.169 20.4128 10.591 20.8348C11.0129 21.2567 11.25 21.829 11.25 22.4258C11.25 22.6247 11.329 22.8155 11.4697 22.9561C11.6103 23.0968 11.8011 23.1758 12 23.1758C12.1989 23.1758 12.3897 23.0968 12.5303 22.9561C12.671 22.8155 12.75 22.6247 12.75 22.4258C12.75 21.829 12.9871 21.2567 13.409 20.8348C13.831 20.4128 14.4033 20.1758 15 20.1758H21C21.3978 20.1758 21.7794 20.0177 22.0607 19.7364C22.342 19.4551 22.5 19.0736 22.5 18.6758V6.67578C22.5 6.27796 22.342 5.89643 22.0607 5.61512C21.7794 5.33382 21.3978 5.17578 21 5.17578ZM9 18.6758H3V6.67578H9C9.59674 6.67578 10.169 6.91283 10.591 7.33479C11.0129 7.75675 11.25 8.32904 11.25 8.92578V19.4258C10.6015 18.9378 9.8116 18.6745 9 18.6758ZM21 18.6758H15C14.1884 18.6745 13.3985 18.9378 12.75 19.4258V8.92578C12.75 8.32904 12.9871 7.75675 13.409 7.33479C13.831 6.91283 14.4033 6.67578 15 6.67578H21V18.6758ZM15 8.92578H18.75C18.9489 8.92578 19.1397 9.0048 19.2803 9.14545C19.421 9.2861 19.5 9.47687 19.5 9.67578C19.5 9.87469 19.421 10.0655 19.2803 10.2061C19.1397 10.3468 18.9489 10.4258 18.75 10.4258H15C14.8011 10.4258 14.6103 10.3468 14.4697 10.2061C14.329 10.0655 14.25 9.87469 14.25 9.67578C14.25 9.47687 14.329 9.2861 14.4697 9.14545C14.6103 9.0048 14.8011 8.92578 15 8.92578ZM19.5 12.6758C19.5 12.8747 19.421 13.0655 19.2803 13.2061C19.1397 13.3468 18.9489 13.4258 18.75 13.4258H15C14.8011 13.4258 14.6103 13.3468 14.4697 13.2061C14.329 13.0655 14.25 12.8747 14.25 12.6758C14.25 12.4769 14.329 12.2861 14.4697 12.1455C14.6103 12.0048 14.8011 11.9258 15 11.9258H18.75C18.9489 11.9258 19.1397 12.0048 19.2803 12.1455C19.421 12.2861 19.5 12.4769 19.5 12.6758ZM19.5 15.6758C19.5 15.8747 19.421 16.0655 19.2803 16.2061C19.1397 16.3468 18.9489 16.4258 18.75 16.4258H15C14.8011 16.4258 14.6103 16.3468 14.4697 16.2061C14.329 16.0655 14.25 15.8747 14.25 15.6758C14.25 15.4769 14.329 15.2861 14.4697 15.1455C14.6103 15.0048 14.8011 14.9258 15 14.9258H18.75C18.9489 14.9258 19.1397 15.0048 19.2803 15.1455C19.421 15.2861 19.5 15.4769 19.5 15.6758Z" fill="white"/>
</svg>
