<svg width="24" height="25" viewBox="0 0 24 25" fill="none" xmlns="http://www.w3.org/2000/svg">
<path d="M19.5 3.67578H17.25V2.92578C17.25 2.72687 17.171 2.5361 17.0303 2.39545C16.8897 2.2548 16.6989 2.17578 16.5 2.17578C16.3011 2.17578 16.1103 2.2548 15.9697 2.39545C15.829 2.5361 15.75 2.72687 15.75 2.92578V3.67578H8.25V2.92578C8.25 2.72687 8.17098 2.5361 8.03033 2.39545C7.88968 2.2548 7.69891 2.17578 7.5 2.17578C7.30109 2.17578 7.11032 2.2548 6.96967 2.39545C6.82902 2.5361 6.75 2.72687 6.75 2.92578V3.67578H4.5C4.10218 3.67578 3.72064 3.83382 3.43934 4.11512C3.15804 4.39643 3 4.77796 3 5.17578V20.1758C3 20.5736 3.15804 20.9551 3.43934 21.2364C3.72064 21.5177 4.10218 21.6758 4.5 21.6758H19.5C19.8978 21.6758 20.2794 21.5177 20.5607 21.2364C20.842 20.9551 21 20.5736 21 20.1758V5.17578C21 4.77796 20.842 4.39643 20.5607 4.11512C20.2794 3.83382 19.8978 3.67578 19.5 3.67578ZM6.75 5.17578V5.92578C6.75 6.12469 6.82902 6.31546 6.96967 6.45611C7.11032 6.59676 7.30109 6.67578 7.5 6.67578C7.69891 6.67578 7.88968 6.59676 8.03033 6.45611C8.17098 6.31546 8.25 6.12469 8.25 5.92578V5.17578H15.75V5.92578C15.75 6.12469 15.829 6.31546 15.9697 6.45611C16.1103 6.59676 16.3011 6.67578 16.5 6.67578C16.6989 6.67578 16.8897 6.59676 17.0303 6.45611C17.171 6.31546 17.25 6.12469 17.25 5.92578V5.17578H19.5V8.17578H4.5V5.17578H6.75ZM19.5 20.1758H4.5V9.67578H19.5V20.1758Z" fill="white"/>
</svg>
