<svg width="24" height="25" viewBox="0 0 24 25" fill="none" xmlns="http://www.w3.org/2000/svg">
<path d="M20.8256 6.19484C20.7552 6.1106 20.6672 6.04283 20.5677 5.99634C20.4683 5.94985 20.3598 5.92576 20.25 5.92578H5.12625L4.66781 3.40766C4.60502 3.06203 4.42292 2.74941 4.15325 2.52429C3.88359 2.29917 3.54347 2.17583 3.19219 2.17578H1.5C1.30109 2.17578 1.11032 2.2548 0.96967 2.39545C0.829018 2.5361 0.75 2.72687 0.75 2.92578C0.75 3.12469 0.829018 3.31546 0.96967 3.45611C1.11032 3.59676 1.30109 3.67578 1.5 3.67578H3.1875L5.58375 16.828C5.65434 17.218 5.82671 17.5825 6.08344 17.8845C5.72911 18.2155 5.47336 18.6381 5.34455 19.1055C5.21575 19.573 5.21892 20.0669 5.35371 20.5327C5.48851 20.9984 5.74966 21.4177 6.10821 21.7441C6.46676 22.0705 6.9087 22.2912 7.38502 22.3817C7.86134 22.4723 8.35344 22.4291 8.80673 22.2571C9.26003 22.085 9.65682 21.7908 9.9531 21.407C10.2494 21.0232 10.4336 20.5648 10.4853 20.0827C10.537 19.6006 10.4541 19.1137 10.2459 18.6758H14.5041C14.3363 19.0271 14.2495 19.4115 14.25 19.8008C14.25 20.32 14.404 20.8275 14.6924 21.2592C14.9808 21.6908 15.3908 22.0273 15.8705 22.226C16.3501 22.4246 16.8779 22.4766 17.3871 22.3753C17.8963 22.2741 18.364 22.024 18.7312 21.6569C19.0983 21.2898 19.3483 20.8221 19.4496 20.3129C19.5508 19.8037 19.4989 19.2759 19.3002 18.7962C19.1015 18.3166 18.7651 17.9066 18.3334 17.6182C17.9017 17.3297 17.3942 17.1758 16.875 17.1758H7.79719C7.62155 17.1758 7.45149 17.1141 7.31665 17.0015C7.18182 16.889 7.09077 16.7327 7.05938 16.5598L6.76219 14.9258H17.6372C18.1641 14.9257 18.6743 14.7407 19.0788 14.403C19.4833 14.0653 19.7564 13.5964 19.8506 13.078L20.9906 6.80984C21.0099 6.70151 21.0051 6.59025 20.9766 6.48396C20.9481 6.37768 20.8966 6.27897 20.8256 6.19484ZM9 19.8008C9 20.0233 8.93402 20.2408 8.8104 20.4258C8.68679 20.6108 8.51109 20.755 8.30552 20.8401C8.09995 20.9253 7.87375 20.9476 7.65552 20.9042C7.43729 20.8608 7.23684 20.7536 7.0795 20.5963C6.92217 20.4389 6.81502 20.2385 6.77162 20.0203C6.72821 19.802 6.75049 19.5758 6.83564 19.3703C6.92078 19.1647 7.06498 18.989 7.24998 18.8654C7.43499 18.7418 7.6525 18.6758 7.875 18.6758C8.17337 18.6758 8.45952 18.7943 8.6705 19.0053C8.88147 19.2163 9 19.5024 9 19.8008ZM18 19.8008C18 20.0233 17.934 20.2408 17.8104 20.4258C17.6868 20.6108 17.5111 20.755 17.3055 20.8401C17.1 20.9253 16.8738 20.9476 16.6555 20.9042C16.4373 20.8608 16.2368 20.7536 16.0795 20.5963C15.9222 20.4389 15.815 20.2385 15.7716 20.0203C15.7282 19.802 15.7505 19.5758 15.8356 19.3703C15.9208 19.1647 16.065 18.989 16.25 18.8654C16.435 18.7418 16.6525 18.6758 16.875 18.6758C17.1734 18.6758 17.4595 18.7943 17.6705 19.0053C17.8815 19.2163 18 19.5024 18 19.8008ZM18.375 12.8098C18.3435 12.9831 18.2521 13.1398 18.1166 13.2524C17.9812 13.365 17.8105 13.4264 17.6344 13.4258H6.48938L5.39906 7.42578H19.3509L18.375 12.8098Z" fill="white"/>
</svg>
