<svg width="24" height="24" viewBox="0 0 24 24" fill="none" xmlns="http://www.w3.org/2000/svg">
<path d="M17.6858 13.8106C17.7063 13.7251 17.707 13.636 17.6877 13.5502C17.6684 13.4644 17.6297 13.3842 17.5745 13.3157C17.5194 13.2473 17.4493 13.1924 17.3695 13.1553C17.2898 13.1181 17.2027 13.0998 17.1148 13.1017C17.0268 13.1036 16.9405 13.1256 16.8625 13.166C16.7844 13.2065 16.7167 13.2644 16.6645 13.3351C16.6123 13.4059 16.577 13.4877 16.5614 13.5742C16.5458 13.6607 16.5502 13.7497 16.5744 13.8342C16.1988 13.896 15.86 14.0964 15.6251 14.3959C15.3901 14.6954 15.2761 15.0721 15.3055 15.4516C15.3349 15.8312 15.5056 16.1858 15.7839 16.4456C16.0621 16.7053 16.4277 16.8512 16.8084 16.8544C17.1637 16.877 17.8492 16.7123 17.8627 17.2646C17.8626 17.3734 17.8193 17.4777 17.7424 17.5546C17.6655 17.6315 17.5612 17.6748 17.4524 17.6749H15.8418C15.6963 17.6777 15.5577 17.7375 15.4558 17.8414C15.3539 17.9453 15.2969 18.085 15.2969 18.2306C15.2969 18.3761 15.354 18.5158 15.4559 18.6197C15.5578 18.7236 15.6963 18.7834 15.8418 18.7862H16.5744V18.9447C16.5769 19.0255 16.5967 19.1049 16.6324 19.1774C16.668 19.25 16.7188 19.3141 16.7812 19.3655C16.8436 19.4169 16.9163 19.4543 16.9944 19.4753C17.0725 19.4964 17.1541 19.5005 17.2339 19.4874C17.3137 19.4743 17.3898 19.4444 17.4571 19.3995C17.5243 19.3547 17.5813 19.296 17.624 19.2274C17.6668 19.1588 17.6944 19.0818 17.7051 19.0017C17.7157 18.9215 17.7091 18.84 17.6857 18.7626C18.0613 18.7009 18.4 18.5005 18.6349 18.2012C18.8698 17.9018 18.9839 17.5252 18.9546 17.1457C18.9253 16.7663 18.7547 16.4117 18.4765 16.152C18.1984 15.8922 17.8329 15.7463 17.4524 15.743H16.8083C16.7007 15.741 16.5982 15.6969 16.5229 15.6201C16.4475 15.5433 16.4053 15.44 16.4053 15.3325C16.4053 15.2249 16.4475 15.1216 16.5229 15.0448C16.5983 14.968 16.7008 14.9239 16.8083 14.9219H18.4184C18.5639 14.9191 18.7025 14.8593 18.8044 14.7554C18.9062 14.6515 18.9633 14.5118 18.9633 14.3662C18.9633 14.2207 18.9062 14.081 18.8043 13.9771C18.7024 13.8732 18.5638 13.8134 18.4183 13.8106H17.6858Z" fill="#4B0082"/>
<path d="M1.65308 14.2292C2.44116 16.4047 4.02224 18.202 6.07949 19.2609C8.13675 20.3198 10.5182 20.5622 12.7466 19.9394C13.2969 20.6029 13.9904 21.1331 14.775 21.49C15.5596 21.8469 16.415 22.0214 17.2767 22.0002C18.1385 21.9791 18.9842 21.7629 19.7504 21.3679C20.5166 20.9729 21.1832 20.4094 21.7003 19.7198C22.2174 19.0301 22.5715 18.2322 22.7359 17.386C22.9003 16.5398 22.8707 15.6674 22.6495 14.8343C22.4282 14.0011 22.021 13.229 21.4585 12.5759C20.8959 11.9227 20.1926 11.4056 19.4015 11.0634C19.3964 10.0415 19.2171 9.02798 18.8712 8.06641C18.2342 6.29286 17.0656 4.75897 15.5248 3.67388C13.9841 2.58879 12.1462 2.00532 10.2617 2.00302C4.05876 1.90633 -0.540493 8.42507 1.65308 14.2292ZM6.34226 8.83946C6.16489 10.3728 6.16504 11.9215 6.34271 13.4548H2.57337C2.11713 11.9502 2.11698 10.3441 2.57294 8.83946H6.34226ZM10.2617 3.11439C11.1878 3.11439 12.3544 4.69642 12.9095 7.72809H7.61344C8.16909 4.69634 9.33554 3.11439 10.2617 3.11439ZM13.0639 8.83946C13.1972 9.94752 13.2361 11.0649 13.1801 12.1795C12.7901 12.5558 12.4551 12.9851 12.185 13.4548H7.45949C7.27408 11.922 7.27393 10.3724 7.45903 8.83946H13.0639ZM17.9502 8.83946C18.133 9.44793 18.2422 10.0761 18.2753 10.7106C16.9215 10.4267 15.5106 10.6505 14.3112 11.3396C14.3117 11.2746 14.317 11.2113 14.317 11.1463C14.3139 10.3754 14.2684 9.60531 14.1808 8.83944L17.9502 8.83946ZM7.61412 14.5662H11.699C11.3333 15.7002 11.3332 16.9204 11.6987 18.0544C9.999 20.7015 8.35328 18.2889 7.61412 14.5662ZM2.99766 14.5662H6.48796C6.69118 16.086 7.21172 17.5462 8.01579 18.8518C6.92406 18.5325 5.9124 17.9855 5.04744 17.2468C4.18248 16.5081 3.4839 15.5945 2.99766 14.5662ZM21.7292 16.2994C21.7277 17.5182 21.2428 18.6867 20.381 19.5485C19.5191 20.4102 18.3506 20.895 17.1318 20.8963C12.9624 20.9501 10.9229 15.5655 14.0926 12.8493C16.9829 10.2496 21.7847 12.4008 21.7292 16.2994ZM17.5262 7.72809H14.0356C13.8324 6.20785 13.3118 4.74732 12.5075 3.44134C13.5995 3.76071 14.6113 4.30787 15.4764 5.04677C16.3414 5.78567 17.04 6.69952 17.5262 7.72809ZM8.01575 3.44137C7.21145 4.74735 6.69072 6.20785 6.48738 7.72809H2.99691C3.4831 6.69952 4.18177 5.78567 5.04685 5.04678C5.91194 4.30789 6.92381 3.76073 8.01575 3.44137Z" fill="#4B0082"/>
</svg>
