<svg width="24" height="24" viewBox="0 0 24 24" fill="none" xmlns="http://www.w3.org/2000/svg">
<path d="M14.814 12.191L16.102 10.903C16.1957 11.2536 16.2507 11.6202 16.2507 12C16.2507 14.3446 14.3433 16.252 11.9987 16.252C11.6189 16.252 11.2523 16.197 10.9017 16.1033L12.1897 14.8153C13.598 14.7193 14.718 13.5993 14.814 12.191ZM23.2479 11.6558C23.1608 11.499 21.9245 9.33281 19.508 7.49704L18.4767 8.52831C20.2388 9.82391 21.3553 11.3349 21.7948 12.0011C20.9549 13.28 17.66 17.6693 11.9987 17.6693C11.1497 17.6693 10.3603 17.5607 9.61743 17.3874L8.45292 18.5519C9.52353 18.8802 10.7003 19.0866 11.9987 19.0866C19.4171 19.0866 23.0951 12.6194 23.2479 12.3443C23.367 12.1301 23.367 11.87 23.2479 11.6558ZM20.295 4.70582L4.70447 20.2963C4.56611 20.4346 4.38469 20.5039 4.20345 20.5039C4.02221 20.5039 3.84079 20.4346 3.70243 20.2963C3.42552 20.0194 3.42552 19.571 3.70243 19.2942L5.68596 17.3107C2.47928 15.3748 0.8499 12.5251 0.749447 12.3443C0.630393 12.1301 0.630393 11.8698 0.749447 11.6556C0.90234 11.3807 4.58028 4.91345 11.9987 4.91345C13.9169 4.91345 15.5783 5.35105 16.9986 5.99805L19.2929 3.70377C19.5698 3.42687 20.0182 3.42687 20.295 3.70377C20.5717 3.98068 20.5719 4.42908 20.295 4.70582ZM6.74275 16.2539L8.5369 14.4598C8.04137 13.7646 7.74674 12.9168 7.74674 12C7.74674 9.65543 9.6541 7.74808 11.9987 7.74808C12.9155 7.74808 13.7633 8.0427 14.4585 8.53806L15.9093 7.08726C14.763 6.62822 13.4605 6.33077 11.9987 6.33077C6.3374 6.33077 3.04249 10.72 2.20273 11.999C2.736 12.8072 4.26882 14.8531 6.74275 16.2539ZM9.56569 13.4308L13.4295 9.56702C13.008 9.31811 12.5228 9.16539 11.9987 9.16539C10.4358 9.16539 9.16406 10.4371 9.16406 12C9.16406 12.5241 9.31678 13.0093 9.56569 13.4308Z" fill="#6D7F89"/>
</svg>
