<svg width="25" height="24" viewBox="0 0 25 24" fill="none" xmlns="http://www.w3.org/2000/svg">
<path d="M21.136 8.76937C20.6326 8.12244 19.9843 7.60285 19.2432 7.2525C19.1796 5.90459 18.5994 4.63293 17.6231 3.70144C16.6467 2.76996 15.3492 2.25019 13.9998 2.25H8.37477C8.04028 2.25005 7.7154 2.3619 7.45177 2.56778C7.18814 2.77365 7.00089 3.06174 6.91977 3.38625L3.54477 16.8862C3.4895 17.1074 3.48535 17.3382 3.53263 17.5612C3.57991 17.7841 3.67738 17.9934 3.81764 18.173C3.9579 18.3527 4.13726 18.498 4.34209 18.598C4.54692 18.698 4.77185 18.75 4.99977 18.75H7.5779L7.29665 19.8862C7.24141 20.1072 7.23723 20.3379 7.2844 20.5607C7.33158 20.7835 7.42889 20.9927 7.56894 21.1723C7.70899 21.3519 7.8881 21.4973 8.0927 21.5974C8.2973 21.6975 8.522 21.7497 8.74977 21.75H11.7029C12.0371 21.7495 12.3615 21.6375 12.6248 21.4316C12.888 21.2258 13.075 20.9379 13.156 20.6138L13.9998 17.25H16.9998C17.9834 17.25 18.9472 16.9736 19.7814 16.4524C20.6155 15.9313 21.2865 15.1863 21.7179 14.3023C22.1492 13.4183 22.3235 12.4309 22.221 11.4527C22.1184 10.4745 21.7432 9.54469 21.1379 8.76937H21.136ZM4.99977 17.25L8.37477 3.75H13.9998C14.8724 3.74975 15.7177 4.05381 16.3902 4.60979C17.0627 5.16577 17.5203 5.93887 17.6841 6.79594C17.4572 6.76598 17.2286 6.75064 16.9998 6.75H11.7498C11.4151 6.74984 11.09 6.8616 10.8262 7.06749C10.5624 7.27338 10.375 7.56159 10.2938 7.88625L7.95477 17.25H4.99977ZM17.656 8.30813C17.6485 8.34188 17.642 8.37562 17.6335 8.40937C17.4318 9.2205 16.9644 9.94081 16.3059 10.4556C15.6474 10.9704 14.8356 11.25 13.9998 11.25H10.9998L11.7498 8.25H16.9998C17.2198 8.25012 17.4394 8.26957 17.656 8.30813ZM20.6335 12.9094C20.4318 13.7205 19.9644 14.4408 19.3059 14.9556C18.6474 15.4704 17.8356 15.75 16.9998 15.75H13.9998C13.6653 15.7501 13.3404 15.8619 13.0768 16.0678C12.8131 16.2737 12.6259 16.5617 12.5448 16.8862L11.701 20.25H8.74977L10.6248 12.75H13.9998C15.153 12.7503 16.2741 12.3703 17.1894 11.6687C18.1046 10.9672 18.7629 9.98336 19.0623 8.86969C19.4009 9.09406 19.701 9.37171 19.951 9.69187C20.3038 10.14 20.549 10.6631 20.6676 11.221C20.7863 11.7788 20.7753 12.3565 20.6354 12.9094H20.6335Z" fill="#4B0082"/>
</svg>
