<svg width="31" height="30" viewBox="0 0 31 30" fill="none" xmlns="http://www.w3.org/2000/svg">
<g clip-path="url(#clip0_421_13681)">
<path d="M30.3992 12.7773C30.127 11.9988 29.3848 11.4397 28.5132 11.4397H28.495C27.9283 11.4397 27.4176 11.6755 27.0541 12.0541C26.69 11.6755 26.1793 11.4397 25.6133 11.4397H25.595C25.0969 11.4397 24.6416 11.6221 24.292 11.9239V11.7704C24.28 11.6175 24.1542 11.4974 23.9989 11.4974H22.6619C22.4983 11.4974 22.3663 11.6295 22.3663 11.7936V19.0543C22.3663 19.2185 22.4984 19.3505 22.6619 19.3505H23.9989C24.148 19.3505 24.2706 19.2391 24.2902 19.0951L24.2896 13.8828C24.2896 13.8645 24.2902 13.8476 24.2921 13.8306C24.3134 13.5979 24.4838 13.4067 24.7531 13.3827H24.9996C25.1122 13.3928 25.2072 13.4324 25.282 13.4922C25.3984 13.5846 25.463 13.7268 25.463 13.8828L25.4681 19.0694C25.4681 19.2336 25.6008 19.3663 25.7636 19.3663H27.1007C27.2585 19.3663 27.3869 19.2405 27.3944 19.0839L27.3938 13.8759C27.3932 13.7048 27.4724 13.5501 27.6114 13.4583C27.6799 13.4143 27.7624 13.3848 27.8573 13.3759H28.1038C28.3931 13.4011 28.5679 13.6206 28.5673 13.8759L28.5724 19.0556C28.5724 19.2198 28.7051 19.3518 28.8679 19.3518H30.205C30.3678 19.3518 30.5005 19.2197 30.5005 19.0556V13.4849C30.5005 13.1049 30.4578 12.9433 30.3992 12.7773ZM21.3476 11.5164H20.5829V10.2737C20.5829 10.1246 20.4622 10.0039 20.3131 10.0039C20.2955 10.0039 20.2786 10.0064 20.2621 10.0095C19.4143 10.2422 19.5841 11.4164 18.0365 11.5164H17.8861C17.8634 11.5164 17.8421 11.5195 17.8213 11.5239H17.8201L17.8213 11.5245C17.6892 11.5541 17.5898 11.6711 17.5898 11.8119V13.1491C17.5898 13.3119 17.7226 13.4447 17.886 13.4447H18.6929L18.6917 19.1143C18.6917 19.2759 18.8225 19.4067 18.9841 19.4067H20.306C20.4671 19.4067 20.5979 19.2759 20.5979 19.1143L20.5985 13.4447H21.3475C21.5104 13.4447 21.6431 13.3119 21.6431 13.1491V11.8121C21.6433 11.6491 21.5106 11.5164 21.3476 11.5164Z" fill="#54C1F0"/>
<path d="M16.5366 11.5159H15.1995C15.0367 11.5159 14.9046 11.6486 14.9046 11.8114V14.5761C14.9014 14.7472 14.7631 14.8843 14.5914 14.8843H14.0317C13.8582 14.8843 13.7179 14.7447 13.7179 14.5711L13.7128 11.8114C13.7128 11.6486 13.5801 11.5159 13.4173 11.5159H12.0801C11.9166 11.5159 11.7846 11.6486 11.7846 11.8114V14.8415C11.7846 15.9925 12.6052 16.8131 13.7568 16.8131C13.7568 16.8131 14.6209 16.8131 14.6473 16.8182C14.8033 16.8358 14.9246 16.9666 14.9246 17.1277C14.9246 17.2868 14.8057 17.417 14.6516 17.4364C14.644 17.4376 14.6371 17.4395 14.6289 17.4409L12.6736 17.4478C12.5101 17.4478 12.3781 17.5805 12.3781 17.7434V19.0798C12.3781 19.2434 12.5102 19.3754 12.6736 19.3754H14.8597C16.0118 19.3754 16.8319 18.5553 16.8319 17.4038V11.8115C16.8321 11.6486 16.7001 11.5159 16.5366 11.5159ZM3.7124 11.5156H0.78992C0.6296 11.5156 0.5 11.6457 0.5 11.8055V13.1156C0.5 13.1181 0.5006 13.1206 0.5006 13.1231C0.5006 13.1294 0.5 13.1357 0.5 13.1414V19.0706C0.5 19.2316 0.62072 19.363 0.77048 19.3667H2.13272C2.29556 19.3667 2.42828 19.2346 2.42828 19.0712L2.43332 17.0392H3.71252C4.78292 17.0392 5.52884 16.2965 5.52884 15.2217V13.3357C5.52872 12.2608 4.7828 11.5156 3.7124 11.5156ZM3.5948 14.7909C3.5948 14.9638 3.45452 15.1047 3.2816 15.1047L2.4332 15.1053V13.4519H3.2816C3.45452 13.4519 3.5948 13.5915 3.5948 13.7651V14.7909ZM8.92988 11.5232H7.07468C6.91052 11.5232 6.7778 11.6477 6.7778 11.8005V12.3206C6.7778 12.3237 6.7784 12.3275 6.7784 12.3307C6.7784 12.3344 6.7778 12.3382 6.7778 12.3419V13.0545C6.7778 13.2161 6.91868 13.3481 7.0922 13.3481H8.85884C8.9984 13.3701 9.10916 13.472 9.12488 13.6311V13.8034C9.10916 13.955 8.99972 14.0656 8.8664 14.0782H7.9916C6.82808 14.0782 5.99924 14.8511 5.99924 15.9367V17.4913C5.99924 18.5704 6.7118 19.3383 7.86704 19.3383H10.2915C10.7268 19.3383 11.0796 19.0088 11.0796 18.6031V13.5301C11.0796 12.2999 10.4456 11.5232 8.92988 11.5232ZM9.14252 17.3135C9.14252 17.3306 9.14 17.3469 9.13748 17.3626C9.13433 17.3774 9.13012 17.3919 9.12488 17.4061C9.08336 17.5231 8.96636 17.6079 8.8274 17.6079H8.27084C8.09732 17.6079 7.95572 17.4758 7.95572 17.3135V17.0613C7.95572 17.0582 7.95512 17.0551 7.95512 17.0518L7.95572 16.3808V16.1708L7.95632 16.1689C7.95692 16.0072 8.0972 15.8764 8.27072 15.8764H8.82728C9.00152 15.8764 9.1424 16.0078 9.1424 16.1708V17.3135H9.14252Z" fill="#233266"/>
</g>
<defs>
<clipPath id="clip0_421_13681">
<rect width="30" height="30" fill="white" transform="translate(0.5)"/>
</clipPath>
</defs>
</svg>
