<svg width="24" height="25" viewBox="0 0 24 25" fill="none" xmlns="http://www.w3.org/2000/svg">
<path d="M12.7506 7.99936V12.0747L16.1368 14.1062C16.3074 14.2087 16.4303 14.3747 16.4784 14.5677C16.5266 14.7608 16.4961 14.965 16.3937 15.1356C16.2912 15.3062 16.1252 15.4291 15.9322 15.4772C15.7392 15.5254 15.5349 15.4949 15.3643 15.3925L11.6143 13.1425C11.5033 13.0758 11.4115 12.9815 11.3477 12.8688C11.284 12.7561 11.2505 12.6288 11.2506 12.4994V7.99936C11.2506 7.80045 11.3296 7.60968 11.4702 7.46903C11.6109 7.32838 11.8016 7.24936 12.0006 7.24936C12.1995 7.24936 12.3902 7.32838 12.5309 7.46903C12.6715 7.60968 12.7506 7.80045 12.7506 7.99936ZM21.0006 5.74936C20.8016 5.74936 20.6109 5.82838 20.4702 5.96903C20.3296 6.10968 20.2506 6.30045 20.2506 6.49936V8.18686C19.6552 7.49686 19.0477 6.83217 18.3643 6.1403C17.1135 4.8894 15.5219 4.03482 13.7882 3.68335C12.0545 3.33188 10.2557 3.4991 8.61655 4.16411C6.97737 4.82913 5.5705 5.96245 4.57175 7.42246C3.573 8.88248 3.02664 10.6044 3.00095 12.3732C2.97526 14.142 3.47137 15.8791 4.42731 17.3675C5.38324 18.8559 6.75659 20.0296 8.37577 20.7419C9.99494 21.4543 11.7881 21.6737 13.5313 21.3727C15.2744 21.0717 16.8902 20.2637 18.1768 19.0497C18.2485 18.982 18.3061 18.9008 18.3464 18.8108C18.3866 18.7208 18.4088 18.6238 18.4116 18.5253C18.4144 18.4267 18.3977 18.3286 18.3626 18.2365C18.3275 18.1444 18.2745 18.0601 18.2068 17.9884C18.1391 17.9168 18.0579 17.8592 17.968 17.8189C17.878 17.7786 17.7809 17.7564 17.6824 17.7536C17.5839 17.7508 17.4857 17.7675 17.3936 17.8026C17.3015 17.8378 17.2172 17.8907 17.1456 17.9584C16.0731 18.9691 14.7267 19.6415 13.2744 19.8915C11.8221 20.1416 10.3283 19.9582 8.97957 19.3644C7.63085 18.7706 6.48695 17.7926 5.69073 16.5526C4.89451 15.3125 4.48124 13.8654 4.50254 12.3919C4.52384 10.9184 4.97877 9.48378 5.8105 8.26727C6.64224 7.05077 7.81393 6.10624 9.17925 5.55165C10.5446 4.99706 12.043 4.85699 13.4875 5.14891C14.9319 5.44084 16.2584 6.15184 17.3012 7.19311C18.0643 7.96561 18.7327 8.70999 19.4068 9.49936H17.2506C17.0516 9.49936 16.8609 9.57838 16.7202 9.71903C16.5796 9.85968 16.5006 10.0504 16.5006 10.2494C16.5006 10.4483 16.5796 10.639 16.7202 10.7797C16.8609 10.9203 17.0516 10.9994 17.2506 10.9994H21.0006C21.1995 10.9994 21.3902 10.9203 21.5309 10.7797C21.6715 10.639 21.7506 10.4483 21.7506 10.2494V6.49936C21.7506 6.30045 21.6715 6.10968 21.5309 5.96903C21.3902 5.82838 21.1995 5.74936 21.0006 5.74936Z" fill="white"/>
</svg>
