<svg width="31" height="30" viewBox="0 0 31 30" fill="none" xmlns="http://www.w3.org/2000/svg">
<g clip-path="url(#clip0_421_13672)">
<path d="M13.2574 12.4262H16.9437V18.2912C16.4412 18.5424 15.7712 18.6262 15.2687 18.6262C13.9287 18.6262 13.2574 17.9562 13.2574 16.4474V12.4262ZM30.0949 18.4462C28.1912 26.5074 20.1137 31.4987 12.0537 29.5949C3.99242 27.6924 -0.998832 19.6137 0.904918 11.5537C2.80867 3.49242 10.8862 -1.49883 18.9462 0.404918C27.0074 2.30867 31.9987 10.3862 30.0949 18.4462ZM22.3062 11.0862C22.301 10.799 22.1847 10.5251 21.9816 10.322C21.7785 10.1189 21.5046 10.0026 21.2174 9.99742H19.2062L14.5987 4.71992C14.1799 4.21742 13.5099 4.04992 12.8399 4.21742L11.2474 4.71867C10.9962 4.80242 10.9124 5.13742 11.0799 5.30492L16.1062 10.0799H8.48242C8.23117 10.0799 8.06367 10.2474 8.06367 10.4987V11.3362C8.06367 11.9224 8.56617 12.4249 9.15242 12.4249H10.3249V16.4462C10.3249 19.4624 11.9162 21.2212 14.5974 21.2212C15.4349 21.2212 16.1049 21.1374 16.9437 20.8024V23.4837C16.9437 24.2374 17.5299 24.8237 18.2837 24.8237H19.4562C19.5865 24.8149 19.7093 24.7591 19.8017 24.6667C19.8941 24.5743 19.9499 24.4516 19.9587 24.3212V12.3424H21.8862C22.1374 12.3424 22.3049 12.1749 22.3049 11.9237L22.3062 11.0862Z" fill="#5F259F"/>
</g>
<defs>
<clipPath id="clip0_421_13672">
<rect width="30" height="30" fill="white" transform="translate(0.5)"/>
</clipPath>
</defs>
</svg>
