<svg width="14" height="14" viewBox="0 0 14 14" fill="none" xmlns="http://www.w3.org/2000/svg">
<path d="M12.25 7.00027C12.2504 7.14882 12.2123 7.29493 12.1394 7.4244C12.0666 7.55386 11.9615 7.66228 11.8344 7.7391L3.955 12.5593C3.82216 12.6406 3.67001 12.685 3.51426 12.6879C3.35852 12.6908 3.20483 12.652 3.06906 12.5757C2.93459 12.5005 2.82257 12.3908 2.74453 12.258C2.66648 12.1252 2.62522 11.9739 2.625 11.8199V2.18066C2.62522 2.0266 2.66648 1.87538 2.74453 1.74255C2.82257 1.60971 2.93459 1.50007 3.06906 1.42488C3.20483 1.34851 3.35852 1.30977 3.51426 1.31265C3.67001 1.31553 3.82216 1.35994 3.955 1.44129L11.8344 6.26144C11.9615 6.33827 12.0666 6.44668 12.1394 6.57615C12.2123 6.70562 12.2504 6.85173 12.25 7.00027Z" fill="#4B0082"/>
</svg>
