<svg width="24" height="24" viewBox="0 0 24 24" fill="none" xmlns="http://www.w3.org/2000/svg">
<rect width="24" height="24" rx="12" fill="white"/>
<rect x="0.5" y="0.5" width="23" height="23" rx="11.5" stroke="#B3C3CC" stroke-opacity="0.56"/>
<path d="M17.25 12.0003C17.2504 12.1488 17.2123 12.2949 17.1394 12.4244C17.0666 12.5539 16.9615 12.6623 16.8344 12.7391L8.955 17.5593C8.82216 17.6406 8.67001 17.685 8.51426 17.6879C8.35852 17.6908 8.20483 17.652 8.06906 17.5757C7.93459 17.5005 7.82257 17.3908 7.74453 17.258C7.66648 17.1252 7.62522 16.9739 7.625 16.8199V7.18066C7.62522 7.0266 7.66648 6.87538 7.74453 6.74255C7.82257 6.60971 7.93459 6.50007 8.06906 6.42488C8.20483 6.34851 8.35852 6.30977 8.51426 6.31265C8.67001 6.31553 8.82216 6.35994 8.955 6.44129L16.8344 11.2614C16.9615 11.3383 17.0666 11.4467 17.1394 11.5761C17.2123 11.7056 17.2504 11.8517 17.25 12.0003Z" fill="#4B0082"/>
</svg>
