<svg width="14" height="14" viewBox="0 0 14 14" fill="none" xmlns="http://www.w3.org/2000/svg">
<path d="M12.8231 6.25505L10.3567 8.40755L11.0955 11.6122C11.1346 11.7798 11.1234 11.9551 11.0634 12.1163C11.0034 12.2776 10.8972 12.4175 10.7581 12.5187C10.6189 12.6199 10.4531 12.6778 10.2812 12.6853C10.1093 12.6927 9.93908 12.6493 9.79173 12.5605L6.99665 10.8652L4.20759 12.5605C4.06025 12.6493 3.89 12.6927 3.71812 12.6853C3.54625 12.6778 3.38038 12.6199 3.24126 12.5187C3.10214 12.4175 2.99593 12.2776 2.93591 12.1163C2.8759 11.9551 2.86474 11.7798 2.90384 11.6122L3.64157 8.41083L1.17462 6.25505C1.04414 6.14251 0.949791 5.99396 0.903402 5.82802C0.857013 5.66208 0.860649 5.48613 0.913856 5.32225C0.967063 5.15836 1.06747 5.01384 1.20249 4.90679C1.33751 4.79974 1.50113 4.73494 1.67282 4.72052L4.92454 4.43888L6.19384 1.41138C6.26013 1.25252 6.37193 1.11682 6.51518 1.02138C6.65842 0.925929 6.82671 0.875 6.99884 0.875C7.17097 0.875 7.33926 0.925929 7.48251 1.02138C7.62575 1.11682 7.73756 1.25252 7.80384 1.41138L9.07697 4.43888L12.3276 4.72052C12.4993 4.73494 12.6629 4.79974 12.7979 4.90679C12.9329 5.01384 13.0334 5.15836 13.0866 5.32225C13.1398 5.48613 13.1434 5.66208 13.097 5.82802C13.0506 5.99396 12.9563 6.14251 12.8258 6.25505H12.8231Z" fill="#E4A039"/>
</svg>
