<svg width="20" height="20" viewBox="0 0 20 20" fill="none" xmlns="http://www.w3.org/2000/svg">
<g clip-path="url(#clip0_2911_9347)">
<mask id="mask0_2911_9347" style="mask-type:luminance" maskUnits="userSpaceOnUse" x="0" y="0" width="20" height="20">
<path d="M20 0H0V20H20V0Z" fill="white"/>
</mask>
<g mask="url(#mask0_2911_9347)">
<path d="M9.99922 14.7727L14.2742 17.4016C14.3851 17.4689 14.5135 17.5019 14.6432 17.4963C14.7728 17.4907 14.8979 17.4467 15.0025 17.3701C15.1072 17.2934 15.1868 17.1874 15.2313 17.0655C15.2758 16.9436 15.2831 16.8113 15.2523 16.6852L14.0898 11.7797L17.8945 8.49848C17.9915 8.41331 18.0615 8.30158 18.0957 8.17711C18.13 8.05264 18.127 7.92087 18.0872 7.79806C18.0474 7.67526 17.9725 7.56679 17.8718 7.48607C17.771 7.40534 17.6488 7.35588 17.5203 7.34379L12.5273 6.93754L10.6039 2.28129C10.5549 2.16117 10.4712 2.05837 10.3635 1.98601C10.2558 1.91365 10.129 1.875 9.99922 1.875C9.86947 1.875 9.74266 1.91365 9.63497 1.98601C9.52727 2.05837 9.44357 2.16117 9.39453 2.28129L7.4711 6.93754L2.47813 7.34379C2.34873 7.35516 2.22554 7.4044 2.12396 7.48537C2.02239 7.56634 1.94692 7.67544 1.90699 7.79905C1.86707 7.92267 1.86445 8.0553 1.89947 8.18039C1.9345 8.30548 2.0056 8.41748 2.10391 8.50239L5.9086 11.7836L4.7461 16.6852C4.71536 16.8113 4.72269 16.9436 4.76716 17.0655C4.81162 17.1874 4.89122 17.2934 4.9959 17.3701C5.10058 17.4467 5.22564 17.4907 5.35528 17.4963C5.48491 17.5019 5.6133 17.4689 5.72422 17.4016L9.99922 14.7727Z" stroke="#E49F39" stroke-width="1.25" stroke-linecap="round" stroke-linejoin="round"/>
</g>
</g>
<defs>
<clipPath id="clip0_2911_9347">
<rect width="20" height="20" fill="white"/>
</clipPath>
</defs>
</svg>
