<svg width="25" height="24" viewBox="0 0 25 24" fill="none" xmlns="http://www.w3.org/2000/svg">
<g clip-path="url(#clip0_515_9490)">
<path d="M24.4943 12.0001C24.4959 18.6248 19.1267 23.9965 12.502 23.9982C5.87724 23.9997 0.505442 18.6305 0.503907 12.0057V12.0001C0.502323 5.37529 5.87148 0.0035848 12.4963 0.00195345C19.1211 0.000418065 24.4928 5.36958 24.4944 11.9943L24.4943 12.0001Z" fill="#156DD1"/>
<path d="M14.6581 12.0009C14.6581 13.1934 13.6915 14.1601 12.499 14.1601C11.3065 14.1601 10.3398 13.1934 10.3398 12.0009C10.3398 10.8085 11.3065 9.8418 12.499 9.8418C13.6915 9.8418 14.6581 10.8085 14.6581 12.0009Z" fill="white"/>
<path d="M11.7539 13.5723H13.243V23.9958H11.7539V13.5723Z" fill="white"/>
</g>
<defs>
<clipPath id="clip0_515_9490">
<rect width="23.9904" height="24" fill="white" transform="translate(0.503906)"/>
</clipPath>
</defs>
</svg>
