<svg width="24" height="24" viewBox="0 0 24 24" fill="none" xmlns="http://www.w3.org/2000/svg">
<path d="M12.531 17.031L20.031 9.53104C20.1007 9.46136 20.156 9.37863 20.1937 9.28759C20.2314 9.19654 20.2508 9.09896 20.2508 9.00042C20.2508 8.90187 20.2314 8.80429 20.1937 8.71324C20.156 8.6222 20.1007 8.53947 20.031 8.46979C19.9614 8.40011 19.8786 8.34483 19.7876 8.30712C19.6965 8.26941 19.599 8.25 19.5004 8.25C19.4019 8.25 19.3043 8.26941 19.2132 8.30712C19.1222 8.34483 19.0395 8.40011 18.9698 8.46979L12.0004 15.4401L5.03104 8.46979C4.89031 8.32906 4.69944 8.25 4.50042 8.25C4.30139 8.25 4.11052 8.32906 3.96979 8.46979C3.82906 8.61052 3.75 8.80139 3.75 9.00042C3.75 9.19944 3.82906 9.39031 3.96979 9.53104L11.4698 17.031C11.5394 17.1008 11.6222 17.1561 11.7132 17.1938C11.8043 17.2316 11.9019 17.251 12.0004 17.251C12.099 17.251 12.1966 17.2316 12.2876 17.1938C12.3787 17.1561 12.4614 17.1008 12.531 17.031Z" fill="#6D7F89"/>
</svg>
