<svg width="24" height="24" viewBox="0 0 24 24" fill="none" xmlns="http://www.w3.org/2000/svg">
<path d="M16.5002 14.9991C15.9999 14.9989 15.5047 15.0992 15.0438 15.2939C14.5829 15.4885 14.1658 15.7737 13.8171 16.1325L9.49522 13.3547C9.83519 12.4829 9.83519 11.5153 9.49522 10.6435L13.8171 7.86566C14.4663 8.53065 15.3392 8.9309 16.2668 8.98881C17.1943 9.04672 18.1103 8.75818 18.8371 8.17911C19.564 7.60004 20.0499 6.77171 20.2007 5.85471C20.3516 4.93771 20.1565 3.99737 19.6534 3.21601C19.1503 2.43464 18.375 1.86792 17.4778 1.6257C16.5806 1.38349 15.6254 1.48306 14.7975 1.90509C13.9695 2.32712 13.3277 3.04155 12.9966 3.90987C12.6655 4.77819 12.6685 5.73854 13.0052 6.60472L8.68335 9.38253C8.16291 8.84823 7.49496 8.48126 6.76489 8.32854C6.03481 8.17582 5.27578 8.24429 4.58481 8.52519C3.89385 8.80609 3.30235 9.28666 2.88592 9.90547C2.4695 10.5243 2.24707 11.2532 2.24707 11.9991C2.24707 12.745 2.4695 13.4739 2.88592 14.0927C3.30235 14.7115 3.89385 15.1921 4.58481 15.473C5.27578 15.7539 6.03481 15.8224 6.76489 15.6696C7.49496 15.5169 8.16291 15.15 8.68335 14.6157L13.0052 17.3935C12.7157 18.1402 12.6729 18.96 12.883 19.7329C13.0931 20.5058 13.5451 21.191 14.1729 21.6884C14.8006 22.1858 15.5712 22.4691 16.3716 22.4968C17.172 22.5246 17.9603 22.2954 18.621 21.8427C19.2818 21.3901 19.7802 20.7378 20.0434 19.9813C20.3066 19.2249 20.3206 18.4041 20.0836 17.6391C19.8465 16.8741 19.3707 16.205 18.7259 15.73C18.0811 15.2549 17.3011 14.9988 16.5002 14.9991ZM16.5002 2.9991C16.9452 2.9991 17.3802 3.13106 17.7503 3.37829C18.1203 3.62552 18.4087 3.97693 18.579 4.38806C18.7493 4.79919 18.7938 5.25159 18.707 5.68805C18.6202 6.12451 18.4059 6.52542 18.0912 6.84009C17.7765 7.15476 17.3756 7.36905 16.9392 7.45586C16.5027 7.54268 16.0503 7.49812 15.6392 7.32783C15.2281 7.15753 14.8767 6.86914 14.6294 6.49913C14.3822 6.12912 14.2502 5.6941 14.2502 5.2491C14.2502 4.65236 14.4873 4.08006 14.9092 3.65811C15.3312 3.23615 15.9035 2.9991 16.5002 2.9991ZM6.00023 14.2491C5.55522 14.2491 5.1202 14.1171 4.75019 13.8699C4.38018 13.6227 4.09179 13.2713 3.9215 12.8601C3.7512 12.449 3.70664 11.9966 3.79346 11.5601C3.88028 11.1237 4.09457 10.7228 4.40924 10.4081C4.7239 10.0934 5.12481 9.87915 5.56127 9.79233C5.99773 9.70551 6.45013 9.75007 6.86126 9.92037C7.2724 10.0907 7.6238 10.3791 7.87103 10.7491C8.11827 11.1191 8.25023 11.5541 8.25023 11.9991C8.25023 12.5958 8.01317 13.1681 7.59122 13.5901C7.16926 14.012 6.59696 14.2491 6.00023 14.2491ZM16.5002 20.9991C16.0552 20.9991 15.6202 20.8671 15.2502 20.6199C14.8802 20.3727 14.5918 20.0213 14.4215 19.6101C14.2512 19.199 14.2066 18.7466 14.2935 18.3101C14.3803 17.8737 14.5946 17.4728 14.9092 17.1581C15.2239 16.8434 15.6248 16.6291 16.0613 16.5423C16.4977 16.4555 16.9501 16.5001 17.3613 16.6704C17.7724 16.8407 18.1238 17.1291 18.371 17.4991C18.6183 17.8691 18.7502 18.3041 18.7502 18.7491C18.7502 19.3458 18.5132 19.9181 18.0912 20.3401C17.6693 20.762 17.097 20.9991 16.5002 20.9991Z" fill="#6D7F89"/>
</svg>
