<svg width="20" height="20" viewBox="0 0 20 20" fill="none" xmlns="http://www.w3.org/2000/svg">
<path d="M13.7507 12.5005C13.3338 12.5004 12.921 12.5839 12.537 12.7462C12.1529 12.9084 11.8053 13.1461 11.5147 13.4451L7.91318 11.1302C8.19648 10.4038 8.19648 9.59734 7.91318 8.87086L11.5147 6.55602C12.0557 7.11017 12.7832 7.44372 13.5561 7.49198C14.3291 7.54024 15.0924 7.29978 15.6981 6.81723C16.3038 6.33467 16.7088 5.64439 16.8344 4.88023C16.9601 4.11606 16.7976 3.33245 16.3783 2.68131C15.9591 2.03017 15.313 1.5579 14.5653 1.35606C13.8177 1.15421 13.0217 1.23718 12.3317 1.58887C11.6417 1.94057 11.1069 2.53592 10.831 3.25953C10.555 3.98313 10.5576 4.78342 10.8382 5.50524L7.23661 7.82008C6.80292 7.37483 6.24629 7.06902 5.63789 6.94175C5.0295 6.81449 4.39697 6.87154 3.82116 7.10563C3.24536 7.33971 2.75244 7.74019 2.40542 8.25586C2.0584 8.77154 1.87305 9.37898 1.87305 10.0005C1.87305 10.6221 2.0584 11.2296 2.40542 11.7452C2.75244 12.2609 3.24536 12.6614 3.82116 12.8955C4.39697 13.1296 5.0295 13.1866 5.63789 13.0593C6.24629 12.9321 6.80292 12.6263 7.23661 12.181L10.8382 14.4959C10.5969 15.1181 10.5612 15.8013 10.7363 16.4454C10.9114 17.0894 11.2881 17.6605 11.8112 18.075C12.3344 18.4894 12.9765 18.7255 13.6435 18.7487C14.3105 18.7718 14.9674 18.5808 15.518 18.2036C16.0686 17.8264 16.484 17.2828 16.7033 16.6524C16.9226 16.0221 16.9344 15.338 16.7368 14.7005C16.5392 14.063 16.1428 13.5055 15.6054 13.1096C15.0681 12.7137 14.4181 12.5003 13.7507 12.5005ZM13.7507 2.50055C14.1215 2.50055 14.484 2.61052 14.7924 2.81654C15.1007 3.02257 15.341 3.31541 15.483 3.65802C15.6249 4.00063 15.662 4.37763 15.5896 4.74134C15.5173 5.10506 15.3387 5.43915 15.0765 5.70137C14.8143 5.9636 14.4802 6.14217 14.1165 6.21452C13.7528 6.28687 13.3758 6.24974 13.0331 6.10782C12.6905 5.96591 12.3977 5.72559 12.1917 5.41724C11.9856 5.1089 11.8757 4.74639 11.8757 4.37555C11.8757 3.87827 12.0732 3.40135 12.4249 3.04972C12.7765 2.69809 13.2534 2.50055 13.7507 2.50055ZM5.00068 11.8755C4.62984 11.8755 4.26732 11.7656 3.95898 11.5596C3.65064 11.3535 3.41032 11.0607 3.2684 10.7181C3.12649 10.3755 3.08936 9.99847 3.1617 9.63475C3.23405 9.27104 3.41263 8.93695 3.67485 8.67472C3.93707 8.4125 4.27117 8.23392 4.63488 8.16158C4.9986 8.08923 5.3756 8.12636 5.71821 8.26827C6.06082 8.41019 6.35365 8.65051 6.55968 8.95885C6.76571 9.2672 6.87568 9.62971 6.87568 10.0005C6.87568 10.4978 6.67813 10.9747 6.3265 11.3264C5.97487 11.678 5.49796 11.8755 5.00068 11.8755ZM13.7507 17.5005C13.3798 17.5005 13.0173 17.3906 12.709 17.1846C12.4006 16.9785 12.1603 16.6857 12.0184 16.3431C11.8765 16.0005 11.8394 15.6235 11.9117 15.2598C11.9841 14.896 12.1626 14.5619 12.4249 14.2997C12.6871 14.0375 13.0212 13.8589 13.3849 13.7866C13.7486 13.7142 14.1256 13.7514 14.4682 13.8933C14.8108 14.0352 15.1037 14.2755 15.3097 14.5839C15.5157 14.8922 15.6257 15.2547 15.6257 15.6255C15.6257 16.1228 15.4281 16.5997 15.0765 16.9514C14.7249 17.303 14.248 17.5005 13.7507 17.5005Z" fill="white"/>
</svg>
