<svg width="24" height="24" viewBox="0 0 24 24" fill="none" xmlns="http://www.w3.org/2000/svg">
<path d="M5.055 3.24575C4.98914 3.17151 4.90919 3.11108 4.8198 3.06796C4.73041 3.02484 4.63335 2.99989 4.53424 2.99456C4.43514 2.98923 4.33596 3.00362 4.24246 3.0369C4.14896 3.07018 4.06299 3.12169 3.98954 3.18843C3.91609 3.25518 3.85662 3.33585 3.81458 3.42575C3.77253 3.51565 3.74875 3.613 3.74461 3.71217C3.74046 3.81133 3.75604 3.91033 3.79044 4.00342C3.82484 4.09652 3.87738 4.18186 3.945 4.2545L6.89531 7.50013H3C2.60218 7.50013 2.22064 7.65816 1.93934 7.93947C1.65804 8.22077 1.5 8.6023 1.5 9.00013V15.0001C1.5 15.398 1.65804 15.7795 1.93934 16.0608C2.22064 16.3421 2.60218 16.5001 3 16.5001H7.24219L13.7897 21.5917C13.9005 21.6778 14.0332 21.7311 14.1728 21.7456C14.3124 21.76 14.4533 21.735 14.5793 21.6734C14.7054 21.6118 14.8117 21.516 14.8861 21.397C14.9604 21.278 14.9999 21.1405 15 21.0001V16.4148L18.945 20.7545C19.0109 20.8287 19.0908 20.8892 19.1802 20.9323C19.2696 20.9754 19.3667 21.0004 19.4658 21.0057C19.5649 21.011 19.664 20.9966 19.7575 20.9634C19.851 20.9301 19.937 20.8786 20.0105 20.8118C20.0839 20.7451 20.1434 20.6644 20.1854 20.5745C20.2275 20.4846 20.2513 20.3873 20.2554 20.2881C20.2595 20.1889 20.244 20.0899 20.2096 19.9968C20.1752 19.9037 20.1226 19.8184 20.055 19.7458L5.055 3.24575ZM3 9.00013H6.75V15.0001H3V9.00013ZM17.4375 13.4879C17.7992 13.0771 17.9988 12.5485 17.9988 12.0011C17.9988 11.4537 17.7992 10.925 17.4375 10.5142C17.3686 10.441 17.3151 10.3546 17.2803 10.2603C17.2454 10.1659 17.2299 10.0656 17.2346 9.96513C17.2393 9.86468 17.2642 9.7662 17.3077 9.67555C17.3512 9.58491 17.4126 9.50394 17.488 9.43747C17.5635 9.371 17.6515 9.32039 17.747 9.28864C17.8424 9.25689 17.9432 9.24465 18.0434 9.25265C18.1437 9.26066 18.2413 9.28874 18.3305 9.33522C18.4196 9.38171 18.4985 9.44565 18.5625 9.52325C19.1657 10.2081 19.4986 11.0894 19.4986 12.002C19.4986 12.9146 19.1657 13.7959 18.5625 14.4808C18.4308 14.6299 18.2453 14.7207 18.0467 14.7331C17.8482 14.7455 17.6528 14.6785 17.5036 14.5468C17.3544 14.4152 17.2636 14.2297 17.2512 14.0311C17.2388 13.8325 17.3058 13.6371 17.4375 13.4879ZM9.95906 6.41075C9.88945 6.33433 9.83639 6.24434 9.8032 6.14644C9.77002 6.04854 9.75744 5.94483 9.76624 5.84183C9.77505 5.73883 9.80505 5.63876 9.85436 5.54791C9.90368 5.45706 9.97124 5.37738 10.0528 5.31388L13.7888 2.40763C13.8996 2.32117 14.0325 2.26761 14.1723 2.25305C14.3122 2.2385 14.4533 2.26354 14.5796 2.32531C14.7058 2.38708 14.8122 2.4831 14.8866 2.60242C14.9609 2.72174 15.0002 2.85955 15 3.00013V10.0154C15 10.1668 14.9542 10.3146 14.8686 10.4395C14.783 10.5643 14.6616 10.6604 14.5204 10.7149C14.3792 10.7695 14.2248 10.7801 14.0775 10.7452C13.9301 10.7104 13.7968 10.6318 13.695 10.5198L9.95906 6.41075ZM23.25 12.0001C23.2511 13.8453 22.5711 15.626 21.3403 17.0008C21.2067 17.1453 21.0216 17.2316 20.825 17.2409C20.6284 17.2502 20.436 17.1818 20.2893 17.0505C20.1426 16.9192 20.0535 16.7356 20.041 16.5391C20.0286 16.3426 20.0939 16.1492 20.2228 16.0004C21.2066 14.9004 21.7505 13.4764 21.7505 12.0006C21.7505 10.5248 21.2066 9.10078 20.2228 8.00075C20.1553 7.92769 20.103 7.84191 20.0689 7.74843C20.0349 7.65494 20.0197 7.55561 20.0245 7.45623C20.0292 7.35685 20.0536 7.25939 20.0963 7.16955C20.1391 7.0797 20.1993 6.99925 20.2734 6.93289C20.3475 6.86653 20.4341 6.81559 20.5281 6.78302C20.6222 6.75046 20.7217 6.73693 20.821 6.74321C20.9203 6.7495 21.0173 6.77548 21.1065 6.81964C21.1957 6.8638 21.2751 6.92526 21.3403 7.00044C22.5714 8.37464 23.2515 10.1551 23.25 12.0001Z" fill="#6D7F89"/>
</svg>
