<svg width="24" height="24" viewBox="0 0 24 24" fill="none" xmlns="http://www.w3.org/2000/svg">
<path fill-rule="evenodd" clip-rule="evenodd" d="M18.0164 12.1414L18.0109 12.1462L18.0023 12.1538L9.57318 19.7858L10.3633 17.0653L15.4181 12.5263C15.6367 12.337 15.7845 12.079 15.837 11.7945C15.8899 11.508 15.8428 11.2116 15.704 10.9556L13.3619 6.57541L13.9819 4.50093L18.0149 12.1217L18.0188 12.1288C18.0192 12.1296 18.0196 12.1305 18.0198 12.1315C18.0201 12.1328 18.0201 12.1342 18.0198 12.1355C18.0194 12.1378 18.0182 12.1399 18.0164 12.1414ZM14.5912 11.5544L14.5934 11.5583C14.5945 11.5604 14.5949 11.5627 14.5944 11.565C14.594 11.5673 14.5928 11.5694 14.591 11.5709L14.5798 11.5807L6.06564 19.2262L10.5076 3.91709L14.5912 11.5544ZM10.8903 1.95304C10.7691 1.72648 10.5229 1.59584 10.2673 1.62259C10.0118 1.64934 9.79794 1.82816 9.72635 2.0749L4.23602 20.9973C4.15741 21.2682 4.26791 21.5584 4.50679 21.7084C4.74566 21.8584 5.05504 21.8319 5.26492 21.6435L8.58324 18.6637L7.73796 21.5742C7.65914 21.8455 7.77011 22.1362 8.00971 22.2861C8.24931 22.4359 8.55926 22.4084 8.76874 22.2187L18.8438 13.0965L18.8447 13.0957C19.0626 12.9066 19.21 12.649 19.2624 12.365C19.3153 12.0789 19.2684 11.7831 19.13 11.5273L14.3769 2.54591C14.257 2.31922 14.0119 2.18754 13.7566 2.21268C13.5014 2.23781 13.2866 2.41476 13.2132 2.66051L12.5159 4.9933L10.8903 1.95304ZM5.19811 21.5691L8.77622 18.356L8.77652 18.355L5.19811 21.5691Z" fill="#6D7F89"/>
</svg>
