<svg width="24" height="24" viewBox="0 0 24 24" fill="none" xmlns="http://www.w3.org/2000/svg">
<path fill-rule="evenodd" clip-rule="evenodd" d="M13.956 4.2385L13.2543 6.58624L15.6161 11.0033C15.7442 11.2393 15.7875 11.5122 15.7387 11.7763C15.6902 12.0388 15.5538 12.2768 15.352 12.4512L10.2752 17.01L9.37904 20.0957L9.37834 20.0963L10.2748 17.0096L15.3516 12.4508C15.5534 12.2764 15.6898 12.0384 15.7383 11.7759C15.7871 11.5118 15.7438 11.2389 15.6157 11.0029L13.2539 6.58585L13.9557 4.23788L13.956 4.2385ZM18.0164 12.1414L18.0109 12.1462L18.0023 12.1538L9.57318 19.7858L10.3633 17.0653L15.4181 12.5263C15.6367 12.337 15.7845 12.079 15.837 11.7945C15.8899 11.508 15.8428 11.2116 15.704 10.9556L13.3619 6.57541L13.9819 4.50093L18.0149 12.1217L18.0188 12.1288C18.0192 12.1296 18.0196 12.1305 18.0198 12.1315C18.0201 12.1328 18.0201 12.1342 18.0198 12.1355C18.0194 12.1378 18.0182 12.1399 18.0164 12.1414ZM10.4799 3.6536L5.87238 19.5334L5.87169 19.534L10.4796 3.65298L10.4799 3.6536ZM14.5912 11.5544L14.5934 11.5583C14.5945 11.5604 14.5949 11.5627 14.5944 11.565C14.594 11.5673 14.5928 11.5694 14.591 11.5709L14.5798 11.5807L6.06564 19.2262L10.5076 3.91709L14.5912 11.5544ZM10.8903 1.95304C10.7691 1.72648 10.5229 1.59584 10.2673 1.62259C10.0118 1.64934 9.79794 1.82816 9.72635 2.0749L4.23602 20.9973C4.15741 21.2682 4.26791 21.5584 4.50679 21.7084C4.74566 21.8584 5.05504 21.8319 5.26492 21.6435L8.58324 18.6637L7.73796 21.5742C7.65914 21.8455 7.77011 22.1362 8.00971 22.2861C8.24931 22.4359 8.55926 22.4084 8.76874 22.2187L18.8438 13.0965L18.8447 13.0957C19.0626 12.9066 19.21 12.649 19.2624 12.365C19.3153 12.0789 19.2684 11.7831 19.13 11.5273L14.3769 2.54591C14.257 2.31922 14.0119 2.18754 13.7566 2.21268C13.5014 2.23781 13.2866 2.41476 13.2132 2.66051L12.5159 4.9933L10.8903 1.95304ZM4.55997 21.6237C4.76104 21.75 5.02145 21.7277 5.19811 21.5691L8.77622 18.356L8.77652 18.355L5.19771 21.5687C5.02105 21.7273 4.76064 21.7496 4.55957 21.6234C4.52588 21.6022 4.49522 21.5777 4.46784 21.5506C4.49532 21.5779 4.52611 21.6025 4.55997 21.6237ZM7.97031 22.1281C7.99789 22.1554 8.02877 22.18 8.06273 22.2013C8.26441 22.3274 8.5253 22.3042 8.70162 22.1446L18.7783 13.0209C18.9796 12.8465 19.1157 12.6088 19.1641 12.3468C19.2128 12.0831 19.1697 11.8107 19.0421 11.5749L14.2886 2.59269C14.2629 2.54415 14.2304 2.50079 14.1927 2.46346C14.2302 2.5007 14.2626 2.54393 14.2882 2.5923L19.0417 11.5745C19.1693 11.8103 19.2124 12.0827 19.1637 12.3464C19.1153 12.6085 18.9792 12.8461 18.7779 13.0205L8.70123 22.1442C8.5249 22.3038 8.26401 22.327 8.06233 22.2009C8.02854 22.1797 7.99779 22.1553 7.97031 22.1281ZM12.5419 5.25393L10.8021 2.0002C10.7762 1.95169 10.7434 1.90841 10.7055 1.8712C10.7432 1.90832 10.7759 1.95147 10.8017 1.9998L12.5418 5.25415L12.5419 5.25393Z" fill="#4B0082"/>
</svg>
