<svg width="24" height="24" viewBox="0 0 24 24" fill="none" xmlns="http://www.w3.org/2000/svg">
<path d="M20.055 19.7454C20.1226 19.8181 20.1752 19.9034 20.2096 19.9965C20.244 20.0896 20.2595 20.1886 20.2554 20.2878C20.2513 20.3869 20.2275 20.4843 20.1854 20.5742C20.1434 20.6641 20.0839 20.7448 20.0105 20.8115C19.937 20.8783 19.851 20.9298 19.7575 20.9631C19.664 20.9963 19.5649 21.0107 19.4658 21.0054C19.3667 21.0001 19.2696 20.9751 19.1802 20.932C19.0908 20.8889 19.0109 20.8284 18.945 20.7542L17.1225 18.7498H3C2.60218 18.7498 2.22064 18.5918 1.93934 18.3105C1.65804 18.0292 1.5 17.6476 1.5 17.2498V6.74982C1.5 6.35199 1.65804 5.97046 1.93934 5.68916C2.22064 5.40785 2.60218 5.24982 3 5.24982H4.84969L3.945 4.25419C3.87738 4.18155 3.82484 4.09621 3.79044 4.00311C3.75604 3.91002 3.74046 3.81102 3.74461 3.71186C3.74875 3.61269 3.77253 3.51534 3.81458 3.42544C3.85662 3.33554 3.91609 3.25487 3.98954 3.18812C4.06299 3.12137 4.14896 3.06987 4.24246 3.03659C4.33596 3.00331 4.43514 2.98892 4.53424 2.99425C4.63335 2.99958 4.73041 3.02453 4.8198 3.06765C4.90919 3.11077 4.98914 3.1712 5.055 3.24544L20.055 19.7454ZM23.6034 6.84357C23.4838 6.77946 23.3491 6.74901 23.2135 6.75545C23.078 6.76188 22.9467 6.80498 22.8337 6.88013L19.8337 8.88076C19.7311 8.94922 19.647 9.04192 19.5888 9.15067C19.5306 9.25942 19.5001 9.38084 19.5 9.50419V14.5048C19.5001 14.6282 19.5306 14.7496 19.5888 14.8583C19.647 14.9671 19.7311 15.0598 19.8337 15.1283L22.8337 17.1289C22.9576 17.2093 23.1024 17.2514 23.25 17.2498C23.4489 17.2498 23.6397 17.1708 23.7803 17.0301C23.921 16.8895 24 16.6987 24 16.4998V7.49982C23.9991 7.36487 23.9617 7.23268 23.8919 7.11719C23.8221 7.00169 23.7225 6.90716 23.6034 6.84357ZM16.695 13.8242C16.7972 13.9367 16.9313 14.0155 17.0793 14.0501C17.2273 14.0847 17.3824 14.0735 17.5239 14.018C17.6654 13.9625 17.7867 13.8653 17.8718 13.7392C17.9568 13.6132 18.0015 13.4643 18 13.3123V6.74982C18 6.35199 17.842 5.97046 17.5607 5.68916C17.2794 5.40785 16.8978 5.24982 16.5 5.24982H10.5994C10.4541 5.24983 10.312 5.29204 10.1902 5.37131C10.0685 5.45058 9.97236 5.5635 9.91358 5.69636C9.8548 5.82921 9.83587 5.97628 9.85909 6.11969C9.88231 6.2631 9.94668 6.39667 10.0444 6.50419L16.695 13.8242Z" fill="#6D7F89"/>
</svg>
