<svg width="50" height="16" viewBox="0 0 50 16" fill="none" xmlns="http://www.w3.org/2000/svg">
<path d="M22.8033 14.1882H19.5838L21.5959 1.82252H24.8157L22.8033 14.1882ZM16.8754 1.82252L13.8062 10.3277L13.443 8.49624L13.4433 8.4969L12.36 2.93591C12.36 2.93591 12.229 1.82252 10.8328 1.82252H5.75876L5.69922 2.0319C5.69922 2.0319 7.25088 2.35474 9.06684 3.4453L11.8639 14.1885H15.2183L20.3403 1.82252H16.8754ZM42.1979 14.1882H45.1541L42.5767 1.82219H39.9887C38.7936 1.82219 38.5025 2.74373 38.5025 2.74373L33.701 14.1882H37.057L37.7282 12.3514H41.8208L42.1979 14.1882ZM38.6553 9.81404L40.3469 5.1865L41.2985 9.81404H38.6553ZM33.9527 4.79619L34.4121 2.14072C34.4121 2.14072 32.9944 1.60156 31.5165 1.60156C29.9189 1.60156 26.1249 2.29983 26.1249 5.69523C26.1249 8.88986 30.5778 8.92955 30.5778 10.6076C30.5778 12.2856 26.5837 11.9849 25.2656 10.9268L24.7869 13.7033C24.7869 13.7033 26.2245 14.4016 28.4208 14.4016C30.6178 14.4016 33.9322 13.264 33.9322 10.168C33.9322 6.95284 29.4393 6.65349 29.4393 5.25563C29.4396 3.85745 32.575 4.03706 33.9527 4.79619Z" fill="#2566AF"/>
</svg>
